<svg id="Layer_1" data-name="Layer 1" xmlns="http://www.w3.org/2000/svg" viewBox="0 0 346.71 166.48"><path d="M20.39,61.29a.69.69,0,0,1-.72-.71L20,40.79l-.36-20.37a.69.69,0,0,1,.72-.72H35.65c12.12,0,22.88,5.94,22.88,21.21,0,15-10.64,20.38-22.76,20.38ZM30.72,40.56,31,53.27h5.23c6.42,0,10.81-3.5,10.81-12.42,0-9.21-4.63-13.19-11.05-13.19H31Z" transform="translate(-19.65 -18.69)"/><path d="M93.35,54v6.6a.69.69,0,0,1-.72.71H63a.69.69,0,0,1-.72-.71l.42-19.73-.42-20.43A.69.69,0,0,1,63,19.7H92.16a.69.69,0,0,1,.71.72V27a.68.68,0,0,1-.71.71H73.56l-.24,7.79h17a.68.68,0,0,1,.71.71V42.7a.69.69,0,0,1-.71.71h-17l.24,9.86H92.63A.69.69,0,0,1,93.35,54Z" transform="translate(-19.65 -18.69)"/><path d="M96.14,48.28a.65.65,0,0,1,.71-.77h9.87a.77.77,0,0,1,.77.65c.71,4,3,6.12,8.38,6.12,4.51,0,7.07-1.25,7.07-4.28,0-8-26-1.3-26-18.18,0-8,6.06-13.13,17.35-13.13,9.8,0,16.87,3.63,18.42,12.48a.61.61,0,0,1-.65.77H122.1a.67.67,0,0,1-.71-.65c-.53-2.85-3-4.46-7.25-4.46-3.56,0-6.18,1.13-6.18,3.86,0,7.49,26.2,1.19,26.2,17.77,0,8.91-7,13.9-18.47,13.9C104.4,62.36,97.09,57.55,96.14,48.28Z" transform="translate(-19.65 -18.69)"/><path d="M149.2,60.58a.69.69,0,0,1-.72.71h-9.8a.68.68,0,0,1-.71-.71l.35-19.9L138,20.42a.69.69,0,0,1,.71-.72h9.8a.69.69,0,0,1,.72.72l-.36,20.26Z" transform="translate(-19.65 -18.69)"/><path d="M153.3,40.5c0-13.07,8.55-21.81,21.21-21.81,10.87,0,17.7,5.17,20.08,13.85.12.47-.18.77-.65.77h-10a.72.72,0,0,1-.78-.6c-1.3-3.8-4-5.76-8.43-5.76-6.66,0-10,5.17-10,13.61S168.15,54,174.86,54c5,0,8.44-2.79,8.86-7.9h-9.27a.68.68,0,0,1-.71-.71V38.89a.68.68,0,0,1,.71-.71h20.32c.41,0,.71.3.71.89-.06,15.57-7.78,23.23-20.68,23.23S153.3,53.27,153.3,40.5Z" transform="translate(-19.65 -18.69)"/><path d="M209.5,60.58a.68.68,0,0,1-.71.71h-8.73a.69.69,0,0,1-.72-.71l.3-19.9-.3-20.26a.69.69,0,0,1,.72-.72h11.4a1.06,1.06,0,0,1,.9.48L226.85,46l-.3-7.72V20.42a.69.69,0,0,1,.72-.72H236a.69.69,0,0,1,.72.72l-.36,20.26.36,19.9a.69.69,0,0,1-.72.71H224.24a1,1,0,0,1-.89-.47L209.21,35.21l.29,8.85Z" transform="translate(-19.65 -18.69)"/><path d="M272.42,54v6.6a.68.68,0,0,1-.71.71H242.06a.68.68,0,0,1-.71-.71l.42-19.73-.42-20.43a.69.69,0,0,1,.71-.72h29.18a.69.69,0,0,1,.71.72V27a.68.68,0,0,1-.71.71h-18.6l-.24,7.79h17a.69.69,0,0,1,.72.71V42.7a.69.69,0,0,1-.72.71h-17l.24,9.86h19.07A.68.68,0,0,1,272.42,54Z" transform="translate(-19.65 -18.69)"/><path d="M286.68,60.82a1.06,1.06,0,0,1-.89.47H275.1c-.54,0-.78-.29-.48-.83l13-20.68L275.39,20.53c-.29-.53-.06-.83.48-.83h11.29a1.05,1.05,0,0,1,.89.48l6.3,11.11,6.35-11.11a1.06,1.06,0,0,1,.9-.48h10.75c.53,0,.77.3.48.83L300.59,39.72l13.13,20.74c.29.54.06.83-.48.83H302a1.07,1.07,0,0,1-.89-.47L294,47.92Z" transform="translate(-19.65 -18.69)"/><path d="M328.1,60.58a.69.69,0,0,1-.72.71h-9.8a.68.68,0,0,1-.71-.71l.35-19.9-.35-20.26a.69.69,0,0,1,.71-.72h9.8a.69.69,0,0,1,.72.72l-.36,20.26Z" transform="translate(-19.65 -18.69)"/><path d="M354.83,60.58a.68.68,0,0,1-.71.71H343.9a.68.68,0,0,1-.71-.71l.47-20.2-.35-12.72h-11a.68.68,0,0,1-.71-.71V20.42a.69.69,0,0,1,.71-.72h33.33a.69.69,0,0,1,.72.72V27a.69.69,0,0,1-.72.71h-11l-.29,12.72Z" transform="translate(-19.65 -18.69)"/><path d="M96.68,164.14v16.65a1.75,1.75,0,0,1-1.82,1.81H21.46a1.74,1.74,0,0,1-1.81-1.81V167.17c0-44.5,51.3-38.44,51.3-60.08.15-7.87-4.24-12.41-12.26-12.41-7.26.15-12.25,5.14-12.86,14.37A1.68,1.68,0,0,1,44,110.87H22.52a1.67,1.67,0,0,1-1.81-1.82c.75-22.39,14.07-34.65,39-34.8,23.31,0,36.32,12.25,36.63,32.38,0,38-49.64,36.47-49.64,54.18v1.51H94.86A1.75,1.75,0,0,1,96.68,164.14Z" transform="translate(-19.65 -18.69)"/><path d="M105.3,129.94c0-37.38,17.41-55.85,44.8-55.85,27.09,0,45,17.86,45,55.85,0,35.71-17.71,55.24-45,55.24S105.3,165.8,105.3,129.94Zm61.45,0c0-25-5.6-34.81-16.65-34.81-11.35,0-16.49,9.23-16.49,34.81,0,25,5.75,34.05,16.64,34.05S166.75,155.06,166.75,129.94Z" transform="translate(-19.65 -18.69)"/><path d="M279.19,164.14v16.65a1.75,1.75,0,0,1-1.82,1.81H204a1.75,1.75,0,0,1-1.82-1.81V167.17c0-44.5,51.3-38.44,51.3-60.08.15-7.87-4.24-12.41-12.26-12.41-7.26.15-12.25,5.14-12.86,14.37a1.68,1.68,0,0,1-1.82,1.82H205a1.67,1.67,0,0,1-1.81-1.82c.76-22.39,14.07-34.65,39-34.8,23.31,0,36.32,12.25,36.63,32.38,0,38-49.64,36.47-49.64,54.18v1.51h48.12A1.75,1.75,0,0,1,279.19,164.14Z" transform="translate(-19.65 -18.69)"/><path d="M366.36,164.14v16.65a1.75,1.75,0,0,1-1.82,1.81h-73.4a1.74,1.74,0,0,1-1.81-1.81V167.17c0-44.5,51.3-38.44,51.3-60.08.15-7.87-4.24-12.41-12.26-12.41-7.26.15-12.26,5.14-12.86,14.37a1.68,1.68,0,0,1-1.82,1.82H292.2a1.67,1.67,0,0,1-1.81-1.82c.75-22.39,14.07-34.65,39-34.8,23.31,0,36.32,12.25,36.62,32.38,0,38-49.63,36.47-49.63,54.18v1.51h48.12A1.75,1.75,0,0,1,366.36,164.14Z" transform="translate(-19.65 -18.69)"/></svg>