<svg xmlns="http://www.w3.org/2000/svg" width="1242.000000pt" height="622.000000pt" viewBox="0 0 1242.000000 622.000000"
    preserveAspectRatio="xMidYMid meet">

    <g id="logo" fill="currentColor" transform="translate(0.000000,622.000000) scale(0.100000,-0.100000)" stroke="none">
        <path d="M11154 5085 c-37 -25 -27 19 -239 -1000 -187 -897 -305 -1516 -305
-1599 0 -49 47 -134 93 -167 46 -33 77 -37 99 -11 33 37 75 179 274 909 259
954 417 1577 408 1617 -7 33 -160 188 -232 236 -51 34 -68 36 -98 15z" />
        <path d="M2969 4999 c-169 -14 -356 -74 -586 -185 -344 -168 -621 -374 -774
-576 -117 -156 -164 -284 -157 -431 3 -81 8 -102 40 -168 41 -88 132 -191 221
-251 61 -41 253 -138 275 -138 6 0 12 -2 12 -5 0 -22 -146 -617 -312 -1265
-82 -324 -115 -439 -130 -452 -36 -32 -485 -168 -553 -168 -15 0 -28 17 -50
62 -16 34 -42 71 -58 82 -24 18 -32 19 -72 8 -102 -27 -175 -114 -175 -207 0
-44 42 -115 90 -153 68 -53 202 -92 317 -92 306 0 1036 248 1488 505 153 87
286 176 505 338 304 226 580 523 690 742 124 251 75 466 -130 570 -136 69
-367 91 -630 61 -80 -10 -156 -20 -170 -23 -45 -10 -8 13 60 37 116 41 138 56
151 99 10 35 9 44 -9 75 l-21 36 91 128 c191 263 302 457 372 645 52 140 69
231 64 351 -3 87 -7 110 -32 161 -84 170 -247 238 -517 214z m237 -251 c54
-54 21 -238 -73 -408 -101 -181 -268 -405 -444 -595 -26 -27 -95 -105 -154
-172 -81 -94 -112 -123 -131 -123 -13 0 -24 6 -24 13 0 7 36 144 80 303 44
159 80 306 80 327 0 101 -159 163 -245 95 -65 -51 -100 -143 -185 -485 -29
-117 -56 -213 -61 -213 -27 0 -139 68 -187 113 -75 71 -96 116 -96 197 1 118
70 252 204 393 101 107 191 181 325 268 299 195 613 312 822 306 52 -2 77 -7
89 -19z m-900 -1727 c14 -17 51 -43 82 -58 53 -26 65 -28 172 -27 94 1 150 9
310 43 308 65 530 77 587 29 51 -42 -50 -233 -218 -412 -206 -221 -622 -539
-954 -731 -119 -68 -395 -208 -395 -199 0 6 244 892 325 1179 18 66 38 139 45
163 6 23 13 42 16 42 3 0 16 -13 30 -29z" />
        <path d="M7679 4436 c-28 -14 -67 -81 -108 -186 -23 -59 -201 -627 -253 -808
-5 -18 -19 -39 -32 -47 -21 -14 -31 -14 -95 0 -96 20 -108 19 -136 -9 -33 -33
-42 -104 -20 -162 20 -52 58 -83 135 -112 47 -17 55 -24 53 -44 -2 -12 -18
-126 -37 -253 -73 -483 -98 -720 -93 -855 12 -260 106 -459 254 -531 39 -20
64 -24 133 -24 106 0 151 20 242 108 61 59 104 106 279 308 l77 88 49 -102
c60 -123 85 -154 153 -191 92 -50 217 -46 338 11 74 34 159 121 290 296 57 75
107 137 111 137 4 0 13 -24 20 -52 36 -159 152 -314 266 -357 118 -45 216 -19
384 100 225 158 401 388 601 784 127 250 180 386 180 457 0 62 -20 98 -54 98
-20 0 -30 -16 -69 -109 -211 -498 -349 -737 -529 -919 -75 -76 -126 -113 -214
-154 -60 -28 -69 -30 -105 -19 -79 24 -112 113 -113 301 0 134 17 236 60 362
13 39 24 82 24 94 0 63 -241 161 -308 125 -28 -15 -61 -82 -102 -206 -70 -217
-211 -500 -315 -635 -53 -69 -136 -147 -170 -160 -41 -16 -72 6 -97 69 -20 50
-23 73 -23 206 1 163 11 242 55 410 37 141 68 224 135 356 89 178 248 409 318
462 118 89 186 73 202 -48 6 -48 -6 -233 -21 -322 -5 -31 -3 -33 27 -33 97 0
243 65 313 140 93 100 85 220 -21 325 -77 75 -161 104 -304 105 -223 0 -453
-111 -659 -319 -205 -207 -301 -391 -391 -751 -37 -148 -59 -217 -94 -285
-132 -264 -398 -534 -503 -510 -70 15 -100 91 -108 280 -5 111 -1 148 50 486
97 632 113 720 134 741 10 11 108 49 218 85 215 71 254 91 254 129 0 13 -1 25
-2 26 -2 1 -93 4 -203 7 -190 6 -200 7 -203 26 -1 11 63 217 143 458 80 241
145 447 145 457 0 37 -24 71 -76 105 -85 57 -151 78 -185 61z" />
        <path d="M6293 3450 c-72 -36 -175 -127 -207 -183 -31 -54 -50 -147 -41 -206
3 -25 17 -89 31 -141 16 -61 22 -107 18 -130 -8 -44 -98 -233 -176 -370 -166
-290 -314 -453 -484 -532 -104 -48 -151 -32 -196 65 -21 48 -23 64 -22 222 0
164 1 175 38 310 20 76 35 149 32 161 -7 27 -109 78 -204 102 -110 27 -118 16
-232 -278 -130 -335 -228 -508 -370 -652 -84 -86 -110 -96 -149 -54 -50 53
-71 241 -47 421 38 289 147 577 315 831 60 92 189 233 248 273 47 32 91 25
120 -18 20 -29 23 -47 23 -120 0 -47 -5 -135 -12 -194 -8 -79 -8 -111 0 -119
13 -13 58 2 202 69 145 67 190 120 190 225 0 93 -75 200 -174 247 -149 70
-390 44 -593 -63 -270 -143 -511 -449 -626 -796 -109 -329 -109 -615 0 -797
46 -77 78 -109 138 -138 104 -50 228 -39 333 31 74 49 235 213 317 323 l69 92
68 -140 c103 -213 166 -271 308 -279 102 -6 145 9 274 95 234 156 425 401 636
815 30 59 57 108 60 108 11 0 90 -171 90 -194 0 -12 -46 -115 -103 -227 -129
-255 -177 -403 -177 -544 0 -176 78 -292 210 -310 62 -9 180 17 260 57 95 48
207 163 253 259 19 41 40 98 46 127 35 167 -16 457 -125 716 -34 81 -39 102
-28 130 3 9 88 87 187 173 100 87 192 169 204 182 28 29 30 76 5 90 -47 25
-157 -47 -466 -308 -11 -10 -20 -12 -23 -5 -2 5 -32 55 -68 110 -49 75 -65
108 -65 136 0 20 27 112 60 205 33 92 60 180 60 195 0 64 -105 79 -207 28z
m82 -1292 c44 -192 43 -338 -4 -489 -43 -137 -137 -218 -195 -167 -40 35 -54
119 -33 203 14 57 164 461 189 508 16 31 26 18 43 -55z" />
        <path d="M10495 1971 c-157 -71 -217 -265 -118 -381 47 -55 102 -80 177 -80
76 0 132 26 185 86 115 131 85 318 -61 378 -50 21 -134 20 -183 -3z" />
        <path d="M4261 1161 c-23 -23 -50 -135 -58 -242 -5 -67 -4 -79 11 -85 9 -3 16
-17 16 -30 0 -45 71 -59 128 -24 34 21 71 87 72 127 0 55 -66 91 -129 69 -23
-8 -23 -7 -16 35 4 24 13 64 21 87 7 24 10 50 8 57 -9 23 -34 25 -53 6z m92
-268 c-9 -26 -44 -63 -59 -63 -25 0 -24 19 2 49 28 34 68 43 57 14z" />
        <path d="M7380 1132 c-33 -33 -50 -102 -50 -203 0 -81 17 -130 54 -155 55 -35
170 10 164 64 -4 35 -30 39 -67 13 -37 -27 -57 -26 -72 1 -10 18 -9 23 2 27
28 9 68 63 84 112 21 61 15 112 -16 145 -30 32 -64 30 -99 -4z m53 -95 c-7
-38 -23 -71 -30 -63 -3 3 0 28 7 55 13 55 33 61 23 8z" />
        <path d="M6506 1128 c-3 -7 -6 -40 -9 -72 -2 -33 -9 -62 -14 -63 -6 -2 -18
-10 -28 -17 -22 -16 -13 -52 15 -59 15 -4 20 -14 20 -36 0 -44 24 -97 51 -111
24 -13 83 -7 105 11 19 15 18 58 -2 66 -8 3 -26 1 -39 -5 -21 -10 -26 -8 -35
8 -5 10 -10 30 -10 43 0 20 6 26 36 31 58 11 58 71 -1 71 -27 1 -28 1 -29 70
-1 69 -2 70 -29 73 -16 2 -29 -2 -31 -10z" />
        <path d="M3417 1104 c-4 -4 -7 -44 -7 -89 0 -85 -12 -137 -38 -167 -21 -25
-49 -22 -63 5 -13 23 -16 129 -5 164 6 19 -14 53 -32 53 -49 -1 -66 -172 -25
-252 50 -99 190 -61 223 61 6 23 9 83 8 133 -3 91 -3 93 -28 96 -14 2 -29 0
-33 -4z" />
        <path d="M6136 1082 c-8 -14 -9 -252 -1 -284 4 -15 16 -30 27 -34 39 -12 45
11 39 171 l-6 150 -27 3 c-14 2 -29 -1 -32 -6z" />
        <path d="M7807 1077 c-6 -17 13 -59 29 -64 21 -7 44 26 35 50 -9 26 -55 36
-64 14z" />
        <path d="M3760 977 c-41 -14 -66 -53 -57 -90 12 -46 77 -44 77 3 0 18 25 30
48 23 6 -3 12 -16 12 -29 0 -33 26 -94 48 -110 35 -27 102 -10 102 26 0 22
-17 35 -45 35 -14 0 -22 10 -28 35 -18 68 -30 91 -58 105 -33 18 -52 18 -99 2z" />
        <path d="M4745 983 c-32 -9 -74 -42 -90 -73 -50 -97 27 -183 119 -135 26 14
31 14 48 -2 15 -13 23 -15 36 -6 17 10 19 35 8 83 -3 14 -9 42 -12 62 -9 55
-55 85 -109 71z m44 -86 c8 -11 7 -18 -7 -29 -18 -16 -57 -38 -66 -38 -13 0
-5 29 15 54 23 29 41 33 58 13z" />
        <path d="M5128 979 c-24 -14 -39 -44 -32 -64 5 -13 14 -15 39 -11 39 8 45 -3
45 -73 0 -26 5 -52 12 -59 25 -25 46 -11 89 56 l43 67 6 -48 c7 -58 37 -93 70
-82 18 6 21 12 15 33 -3 15 -9 43 -11 62 -9 62 -14 78 -30 94 -24 24 -60 19
-98 -14 -33 -29 -35 -30 -41 -11 -8 25 -52 61 -74 61 -9 0 -24 -5 -33 -11z" />
        <path d="M6965 976 c-68 -29 -110 -117 -83 -173 19 -40 59 -51 114 -31 37 13
45 13 55 2 14 -17 43 -18 57 -1 10 12 -5 98 -21 113 -3 4 -4 16 -2 28 6 24
-10 47 -42 64 -27 15 -40 15 -78 -2z m61 -78 c7 -11 -47 -68 -66 -68 -15 0
-12 33 6 58 16 24 48 29 60 10z" />
        <path d="M7792 981 c-18 -11 -31 -117 -20 -158 15 -55 77 -80 129 -53 41 23
12 76 -35 64 -21 -5 -26 -2 -27 12 -2 30 2 78 7 95 3 9 -3 24 -11 33 -19 18
-25 19 -43 7z" />
        <path d="M8225 976 c-69 -30 -110 -116 -83 -172 19 -41 59 -52 114 -32 38 13
45 13 55 1 7 -8 22 -13 33 -11 19 3 21 9 19 57 -2 29 -8 59 -14 67 -6 7 -8 17
-5 23 10 16 -14 58 -41 70 -30 14 -41 13 -78 -3z m61 -78 c9 -14 -52 -71 -69
-65 -15 5 -10 37 10 60 18 20 48 23 59 5z" />
        <path d="M8617 974 c-22 -12 -28 -21 -25 -42 3 -24 7 -27 38 -27 34 0 35 -1
43 -50 16 -93 17 -95 38 -95 14 0 32 20 62 67 l42 67 7 -42 c9 -54 23 -79 50
-88 34 -11 50 19 32 61 -8 19 -14 50 -14 70 0 41 -29 75 -64 75 -14 0 -39 -12
-57 -27 -21 -18 -34 -23 -37 -15 -16 48 -71 70 -115 46z" />
    </g>
</svg>