<svg width="284" height="226" viewBox="0 0 284 226" xmlns="http://www.w3.org/2000/svg">
<g id="logo"  fill="currentColor">
    <path d="M114.07 101.39L104.79 115.47L104.3 115.25C98.7557 112.745 94.3149 108.305 91.8101 102.76L91.5801 102.27L105.67 92.9903L103.67 90.9903L108.52 87.7803L147.8 127.05L143.8 131.05L114.07 101.39Z" />
    <path fill-rule="evenodd" clip-rule="evenodd" d="M188.089 31.49V36.97H193.829V21.77H178.63V27.46H184.069L178.219 33.31C175.297 31.355 171.754 30.5543 168.275 31.0631C164.796 31.572 161.63 33.3542 159.39 36.0643C157.151 38.7744 155.997 42.2194 156.153 45.7318C156.308 49.2441 157.762 52.5736 160.233 55.0751C162.703 57.5765 166.014 59.0717 169.525 59.2709C173.035 59.4702 176.494 58.3592 179.232 56.1534C181.969 53.9476 183.791 50.804 184.343 47.3318C184.895 43.8596 184.138 40.3062 182.219 37.36L188.089 31.49ZM177.437 40.4177C178.371 41.8155 178.87 43.4589 178.87 45.14C178.867 47.3936 177.97 49.554 176.377 51.1475C174.784 52.741 172.623 53.6374 170.37 53.64C168.688 53.64 167.045 53.1415 165.647 52.2075C164.249 51.2735 163.16 49.946 162.517 48.3928C161.873 46.8397 161.705 45.1306 162.033 43.4818C162.361 41.8329 163.17 40.3184 164.359 39.1296C165.548 37.9409 167.062 37.1313 168.711 36.8033C170.36 36.4753 172.069 36.6437 173.622 37.287C175.175 37.9304 176.503 39.0198 177.437 40.4177Z" />
    <path fill-rule="evenodd" clip-rule="evenodd" d="M74.4102 21.9C74.4102 18.14 77.6501 0 141.73 0C205.81 0 209.06 18.14 209.06 21.82L206.57 100.04C206.57 137.46 145.65 156.97 143.06 157.78L141.73 158.19L140.41 157.78C137.81 156.97 76.8901 137.46 76.8901 99.9L74.4102 21.9ZM81.8502 99.91C81.8502 133 138.43 151.93 141.73 153V152.95C143.66 152.33 162.46 146.04 178.45 134.71L177.74 134.45C173.772 133.148 170.166 130.931 167.213 127.978C164.259 125.024 162.042 121.418 160.74 117.45C159.82 114.669 158.262 112.141 156.19 110.07C154.119 107.998 151.591 106.44 148.81 105.52C144.842 104.218 141.236 102.001 138.283 99.0476C135.329 96.0945 133.112 92.4882 131.81 88.52C130.896 85.7368 129.339 83.2078 127.267 81.1371C125.194 79.0664 122.664 77.5122 119.88 76.6C115.917 75.2894 112.315 73.0694 109.363 70.1174C106.411 67.1655 104.191 63.5636 102.88 59.6C101.969 56.8218 100.418 54.2971 98.3505 52.2297C96.2831 50.1624 93.7583 48.6107 90.9802 47.7C86.9819 46.4529 83.3612 44.2212 80.4501 41.21C80.3476 41.1132 80.2613 41.0195 80.1746 40.9255C80.1091 40.8545 80.0433 40.7832 79.9702 40.71L81.8502 99.91ZM179.73 129.12C181.104 129.585 182.442 130.153 183.73 130.82L183.72 130.77C189.109 126.56 193.693 121.411 197.25 115.57C196.52 115.27 195.8 115.01 195.07 114.75C191.688 113.653 188.614 111.771 186.099 109.258C183.583 106.745 181.699 103.671 180.6 100.29C179.473 96.9197 177.578 93.8575 175.066 91.3446C172.553 88.8318 169.49 86.9371 166.12 85.81C162.74 84.7111 159.668 82.8282 157.155 80.3151C154.642 77.8019 152.759 74.7299 151.66 71.35C150.539 67.9793 148.647 64.9164 146.136 62.4046C143.624 59.8928 140.561 58.0012 137.19 56.88C133.768 55.8541 130.668 53.9632 128.19 51.39C125.619 48.9084 123.726 45.8101 122.69 42.39C121.669 38.9813 119.769 35.9014 117.18 33.46C114.739 30.8713 111.659 28.971 108.25 27.95C104.828 26.9188 101.729 25.0247 99.2501 22.45C96.6745 19.9755 94.7861 16.8741 93.7701 13.45C93.4802 12.63 93.1901 11.83 92.8301 11.01C90.6419 11.7837 88.5214 12.7369 86.4902 13.86C79.5701 17.76 79.3702 21.5 79.3702 21.76L79.6102 29.41C80.5734 32.3578 82.2578 35.0183 84.5101 37.15C86.8151 39.5652 89.7105 41.3369 92.9102 42.29C96.5333 43.3928 99.8071 45.4191 102.41 48.17C105.164 50.7767 107.193 54.0536 108.3 57.68C109.322 60.8417 111.079 63.7158 113.428 66.0661C115.776 68.4164 118.649 70.1759 121.81 71.2C125.414 72.3965 128.688 74.4183 131.372 77.1041C134.056 79.79 136.076 83.0656 137.27 86.67C138.289 89.8336 140.047 92.709 142.398 95.0584C144.749 97.4077 147.626 99.1633 150.79 100.18C154.378 101.385 157.638 103.406 160.313 106.083C162.989 108.76 165.007 112.021 166.21 115.61C167.229 118.774 168.987 121.649 171.338 123.998C173.689 126.348 176.566 128.103 179.73 129.12ZM199.62 110.37C200.917 107.027 201.595 103.476 201.62 99.89L204.09 21.78C204.09 21.61 203.37 4.96002 141.72 4.96002C121.17 4.96002 107.46 6.87 98.3301 9.29999C98.6502 10.09 98.9202 10.83 99.1702 11.53C99.9064 14.1343 101.333 16.4908 103.3 18.35C105.137 20.3046 107.459 21.7368 110.03 22.5C114.239 23.8177 118.047 26.1774 121.1 29.36C124.288 32.4105 126.652 36.2189 127.97 40.43C128.779 43.0157 130.202 45.3669 132.118 47.2827C134.033 49.1983 136.384 50.6213 138.97 51.43C143.158 52.834 146.963 55.1904 150.086 58.3137C153.21 61.437 155.566 65.2421 156.97 69.43C157.706 72.0343 159.133 74.3909 161.1 76.25C162.967 78.2213 165.329 79.6545 167.94 80.4C172.124 81.8116 175.925 84.1705 179.047 87.2927C182.17 90.415 184.529 94.2162 185.94 98.4C186.676 101.004 188.103 103.361 190.07 105.22C191.937 107.191 194.299 108.625 196.91 109.37C197.75 109.63 198.62 109.96 199.62 110.37Z" />
    <path fill-rule="evenodd" clip-rule="evenodd" d="M154.84 184.908C154.7 185.016 154.601 185.168 154.56 185.34L140.68 224.53C140.56 224.89 140.68 225.13 141.1 225.13H146.86C147.041 225.147 147.221 225.095 147.364 224.983C147.508 224.872 147.603 224.709 147.63 224.53L150.3 216.69H165.54L168.22 224.53C168.247 224.709 168.342 224.872 168.485 224.983C168.629 225.095 168.809 225.147 168.99 225.13H174.81C175.22 225.13 175.34 224.89 175.22 224.53L161.57 185.34C161.528 185.166 161.428 185.013 161.286 184.905C161.143 184.798 160.968 184.743 160.79 184.75H155.33C155.153 184.745 154.98 184.801 154.84 184.908ZM158.06 194.78L163.41 210.46H152.48L157.88 194.78H158.06Z" />
    <path d="M149.576 179.427C149.651 179.455 149.73 179.466 149.81 179.46L154.14 179.49C154.219 179.496 154.299 179.484 154.374 179.457C154.449 179.43 154.517 179.387 154.573 179.331C154.598 179.307 154.62 179.28 154.64 179.252C154.656 179.229 154.671 179.204 154.683 179.178C154.691 179.164 154.697 179.148 154.703 179.133C154.732 179.059 154.744 178.979 154.74 178.9V173.7C154.744 173.62 154.732 173.541 154.703 173.467C154.674 173.392 154.63 173.325 154.573 173.269C154.517 173.213 154.449 173.17 154.374 173.143C154.299 173.115 154.219 173.104 154.14 173.11H149.81C149.73 173.104 149.651 173.115 149.576 173.143C149.501 173.17 149.433 173.213 149.376 173.269C149.363 173.282 149.351 173.295 149.339 173.309L149.33 173.321C149.325 173.327 149.321 173.333 149.316 173.339C149.3 173.361 149.285 173.385 149.273 173.409C149.268 173.417 149.265 173.425 149.261 173.433C149.256 173.444 149.251 173.455 149.247 173.467C149.218 173.541 149.205 173.62 149.21 173.7V178.87C149.205 178.949 149.218 179.029 149.247 179.103C149.275 179.178 149.32 179.245 149.376 179.301C149.396 179.32 149.416 179.337 149.438 179.353C149.456 179.366 149.475 179.379 149.495 179.39C149.521 179.404 149.548 179.417 149.576 179.427Z" />
    <path d="M161.456 179.427C161.531 179.455 161.61 179.466 161.69 179.46L166.02 179.49C166.098 179.494 166.177 179.482 166.251 179.454C166.324 179.426 166.391 179.382 166.447 179.327C166.502 179.271 166.546 179.204 166.574 179.131C166.602 179.057 166.614 178.979 166.61 178.9V173.7C166.614 173.621 166.602 173.543 166.574 173.469C166.565 173.446 166.554 173.423 166.542 173.401C166.517 173.354 166.485 173.311 166.447 173.273C166.391 173.217 166.324 173.174 166.251 173.146C166.22 173.134 166.189 173.126 166.158 173.119C166.113 173.111 166.066 173.107 166.02 173.11H161.69C161.658 173.108 161.627 173.108 161.595 173.111C161.574 173.113 161.553 173.116 161.532 173.121C161.506 173.126 161.481 173.134 161.456 173.143C161.381 173.17 161.313 173.213 161.256 173.269C161.2 173.325 161.155 173.392 161.127 173.467C161.098 173.541 161.085 173.62 161.09 173.7V178.87C161.089 178.877 161.089 178.885 161.089 178.893L161.089 178.907L161.089 178.922C161.091 178.961 161.096 179 161.106 179.037C161.108 179.047 161.111 179.057 161.114 179.067C161.118 179.079 161.122 179.091 161.127 179.103C161.155 179.178 161.2 179.245 161.256 179.301C161.278 179.322 161.302 179.342 161.327 179.36C161.345 179.372 161.364 179.384 161.384 179.395C161.407 179.407 161.431 179.418 161.456 179.427Z" />
    <path fill-rule="evenodd" clip-rule="evenodd" d="M35.9204 216.04C35.0904 213.55 34.8604 211.29 34.8604 204.94C34.8604 198.59 35.0904 196.33 35.9204 193.83C38.0003 187.42 43.2304 184.09 50.1804 184.09C57.1304 184.09 62.4103 187.42 64.4904 193.83C65.3204 196.33 65.5604 198.58 65.5604 204.94C65.5604 211.3 65.3204 213.55 64.4904 216.04C62.4103 222.45 57.1804 225.78 50.1804 225.78C43.1804 225.78 38.0003 222.45 35.9204 216.04ZM57.7203 214.2C58.1904 212.72 58.4304 210.64 58.4304 204.94C58.4304 199.24 58.1904 197.16 57.7203 195.67C57.2575 194.06 56.2564 192.657 54.8842 191.696C53.5119 190.735 51.8516 190.274 50.1804 190.39C48.5167 190.282 46.8663 190.748 45.5036 191.708C44.141 192.669 43.1482 194.067 42.6903 195.67C42.2203 197.16 41.9804 199.18 41.9804 204.94C41.9804 210.7 42.2203 212.72 42.6903 214.2C43.1463 215.805 44.1383 217.205 45.5011 218.168C46.8639 219.13 48.5153 219.597 50.1804 219.49C51.8529 219.605 53.5142 219.142 54.8867 218.179C56.2591 217.216 57.2593 215.812 57.7203 214.2Z" />
    <path fill-rule="evenodd" clip-rule="evenodd" d="M-8.59143e-05 185.34C-0.00408372 185.269 0.00540725 185.199 0.0277766 185.131L0.031927 185.12L0.0366878 185.107C0.0653743 185.032 0.109594 184.965 0.166387 184.909C0.223181 184.853 0.291204 184.81 0.365972 184.783C0.44074 184.755 0.520483 184.744 0.59992 184.75H15.5999C24.1499 184.75 28.1899 189.02 28.1899 195.5C28.1899 200.07 26.0499 202.68 23.4999 204.05V204.17C25.9899 205.12 28.8999 208.32 28.8999 213.25C28.8999 221.25 23.8999 225.13 15.0099 225.13H0.59992C0.519995 225.134 0.440039 225.122 0.365271 225.093C0.290533 225.065 0.222631 225.021 0.166021 224.964C0.109411 224.907 0.0653743 224.839 0.0367488 224.765C0.00815383 224.69 -0.00441941 224.61 -8.59143e-05 224.53V185.34ZM15.4399 201.55C18.9999 201.55 21.1999 199.41 21.1999 196.27C21.1999 193.13 18.9999 190.9 15.4399 190.9H7.36991C7.36222 190.899 7.35453 190.898 7.34681 190.898C7.33918 190.897 7.33152 190.897 7.32389 190.897C7.30472 190.897 7.28562 190.899 7.26679 190.903L7.25956 190.904L7.25175 190.906C7.24265 190.908 7.23362 190.911 7.22471 190.914C7.17801 190.93 7.1356 190.956 7.10074 190.991C7.06592 191.026 7.03959 191.068 7.02384 191.115C7.00806 191.161 7.0033 191.211 7.00992 191.26V201.18C7.00498 201.228 7.01099 201.277 7.02747 201.322C7.04398 201.367 7.07053 201.409 7.10517 201.442C7.13981 201.476 7.18162 201.501 7.22748 201.516C7.24903 201.524 7.27122 201.528 7.29362 201.531C7.31891 201.534 7.34452 201.533 7.36991 201.53L15.4399 201.55ZM7.36991 218.95H15.7999C19.7199 218.95 21.9099 216.69 21.9099 213.31C21.9099 209.93 19.7199 207.73 15.7999 207.73H7.36991C7.32203 207.724 7.27332 207.728 7.22748 207.744C7.2223 207.745 7.21717 207.747 7.2121 207.749L7.19791 207.755C7.16361 207.77 7.13221 207.792 7.10517 207.818C7.07053 207.852 7.04398 207.893 7.02747 207.938C7.01099 207.983 7.00498 208.032 7.00992 208.08V218.59C7.00675 218.613 7.0062 218.637 7.00821 218.66C7.01041 218.686 7.01563 218.711 7.02384 218.735C7.03959 218.782 7.06592 218.824 7.10074 218.859C7.1356 218.894 7.17801 218.92 7.22471 218.936C7.23893 218.941 7.25345 218.945 7.26813 218.947C7.28196 218.95 7.29593 218.952 7.30997 218.952C7.31992 218.953 7.3299 218.953 7.33988 218.953L7.35328 218.952C7.35883 218.951 7.36439 218.951 7.36991 218.95Z" />
    <path fill-rule="evenodd" clip-rule="evenodd" d="M95.6387 224.988C95.8008 225.098 95.9957 225.148 96.1904 225.13L102.79 225.12C102.884 225.127 102.977 225.107 103.059 225.061C103.141 225.016 103.208 224.948 103.252 224.865C103.257 224.854 103.262 224.844 103.267 224.833C103.273 224.82 103.278 224.806 103.282 224.792C103.29 224.769 103.296 224.746 103.3 224.721C103.307 224.68 103.309 224.637 103.305 224.595C103.3 224.549 103.289 224.505 103.272 224.463C103.255 224.419 103.231 224.377 103.2 224.34L94.7105 207.9C96.9934 207.092 98.9629 205.584 100.338 203.591C101.714 201.598 102.425 199.221 102.37 196.8C102.37 189.68 96.9104 184.75 89.4804 184.75H73.8704C73.791 184.744 73.7113 184.755 73.6365 184.783C73.5617 184.81 73.4937 184.853 73.4369 184.909L73.4244 184.922L73.4113 184.936C73.4068 184.941 73.4024 184.946 73.3981 184.952C73.3901 184.961 73.3825 184.971 73.3751 184.981C73.3616 185 73.3493 185.02 73.3382 185.04C73.3316 185.052 73.3253 185.065 73.3196 185.077C73.3152 185.087 73.311 185.097 73.3072 185.107C73.2785 185.181 73.2659 185.26 73.2705 185.34V224.53C73.2661 224.61 73.2786 224.69 73.3073 224.765C73.3359 224.839 73.38 224.907 73.4365 224.964C73.4932 225.021 73.561 225.065 73.6358 225.093C73.6948 225.116 73.757 225.128 73.82 225.131C73.8289 225.131 73.8378 225.131 73.8467 225.131L73.8598 225.13L73.8704 225.13H79.6904C79.77 225.135 79.8495 225.122 79.9238 225.093C79.9981 225.065 80.0654 225.02 80.1212 224.964C80.1771 224.907 80.2202 224.839 80.2476 224.764C80.275 224.689 80.2863 224.609 80.2804 224.53V209.15C80.2782 209.129 80.2782 209.107 80.2803 209.086C80.2813 209.076 80.2827 209.067 80.2844 209.058L80.2868 209.046L80.2889 209.038L80.2918 209.027C80.2936 209.021 80.2957 209.014 80.298 209.008C80.3145 208.963 80.3411 208.922 80.3757 208.888C80.3879 208.876 80.4009 208.865 80.4148 208.856C80.4403 208.838 80.4683 208.823 80.498 208.814C80.5438 208.798 80.5925 208.794 80.6404 208.8H87.5805L95.3004 224.53C95.3571 224.717 95.4766 224.879 95.6387 224.988ZM89.2504 191.04C92.9304 191.04 95.4204 193.3 95.4204 196.8C95.4204 200.25 92.9304 202.5 89.3004 202.5H80.6404C80.6111 202.504 80.5814 202.504 80.5523 202.499C80.5451 202.498 80.538 202.497 80.5309 202.495C80.5198 202.493 80.5088 202.49 80.498 202.486C80.4697 202.477 80.4429 202.464 80.4184 202.447C80.4032 202.437 80.3889 202.425 80.3757 202.412C80.3718 202.408 80.3679 202.404 80.3642 202.401C80.3606 202.397 80.3571 202.393 80.3537 202.389L80.3489 202.383L80.3453 202.378C80.3406 202.372 80.3362 202.366 80.3319 202.359C80.3256 202.35 80.3198 202.34 80.3146 202.33C80.312 202.325 80.3095 202.32 80.3071 202.315C80.3038 202.307 80.3007 202.3 80.298 202.292C80.2815 202.247 80.2755 202.198 80.2804 202.15V191.4C80.2738 191.351 80.2786 191.302 80.2943 191.255C80.3101 191.208 80.3364 191.166 80.3713 191.131C80.4061 191.096 80.4485 191.07 80.4952 191.054C80.5224 191.045 80.5507 191.039 80.5792 191.038C80.5996 191.036 80.6201 191.037 80.6404 191.04H89.2504Z" />
    <path d="M111.21 185.34C111.205 185.26 111.218 185.181 111.247 185.107C111.275 185.032 111.32 184.965 111.376 184.909C111.433 184.853 111.501 184.81 111.576 184.783L111.587 184.779L111.597 184.776L111.61 184.772C111.635 184.764 111.661 184.758 111.687 184.755C111.701 184.752 111.715 184.751 111.73 184.75C111.756 184.748 111.783 184.748 111.81 184.75H117.63C117.709 184.746 117.787 184.758 117.861 184.786C117.934 184.814 118.001 184.858 118.057 184.913C118.112 184.969 118.156 185.036 118.184 185.109C118.199 185.149 118.21 185.19 118.215 185.233C118.22 185.268 118.222 185.304 118.22 185.34V218.48C118.215 218.528 118.221 218.577 118.237 218.622C118.243 218.637 118.249 218.651 118.257 218.665C118.272 218.693 118.292 218.719 118.315 218.742C118.35 218.776 118.392 218.801 118.437 218.816C118.483 218.832 118.532 218.836 118.58 218.83H137.1C137.18 218.826 137.26 218.838 137.335 218.867C137.364 218.878 137.393 218.892 137.42 218.908C137.461 218.932 137.5 218.962 137.534 218.996C137.59 219.053 137.634 219.121 137.663 219.195C137.692 219.27 137.704 219.35 137.7 219.43V224.53C137.703 224.581 137.698 224.633 137.688 224.683C137.681 224.71 137.673 224.738 137.663 224.765C137.634 224.839 137.59 224.907 137.534 224.964C137.477 225.021 137.409 225.065 137.335 225.093C137.296 225.108 137.256 225.119 137.215 225.125C137.177 225.13 137.138 225.132 137.1 225.13H111.81C111.73 225.134 111.65 225.122 111.575 225.093C111.5 225.065 111.433 225.021 111.376 224.964C111.319 224.907 111.275 224.839 111.247 224.765C111.242 224.752 111.238 224.74 111.234 224.727C111.231 224.719 111.229 224.711 111.227 224.703C111.225 224.696 111.224 224.689 111.222 224.682L111.22 224.672C111.211 224.625 111.207 224.578 111.21 224.53V185.34Z" />
    <path d="M180.74 185.34C180.736 185.26 180.748 185.181 180.777 185.106C180.806 185.032 180.85 184.965 180.907 184.909C180.963 184.853 181.031 184.81 181.106 184.783C181.114 184.78 181.122 184.777 181.13 184.774C181.138 184.772 181.146 184.77 181.155 184.767C181.171 184.763 181.187 184.759 181.204 184.757C181.248 184.749 181.294 184.746 181.34 184.75H186.8C187.007 184.732 187.215 184.779 187.394 184.885C187.574 184.991 187.716 185.15 187.8 185.34L204.3 213.19H204.54V185.34C204.539 185.325 204.538 185.309 204.539 185.294L204.539 185.277C204.539 185.262 204.541 185.247 204.542 185.232C204.548 185.189 204.558 185.147 204.573 185.107C204.6 185.033 204.644 184.965 204.7 184.909C204.71 184.899 204.72 184.889 204.731 184.88C204.737 184.876 204.742 184.871 204.747 184.867C204.792 184.831 204.843 184.803 204.897 184.783C204.947 184.764 204.999 184.753 205.052 184.749C205.06 184.749 205.067 184.749 205.074 184.748C205.081 184.748 205.087 184.748 205.094 184.748C205.106 184.748 205.118 184.749 205.13 184.75H210.3C210.379 184.745 210.457 184.758 210.531 184.786C210.604 184.814 210.671 184.857 210.727 184.913C210.783 184.969 210.826 185.035 210.854 185.109C210.865 185.138 210.874 185.168 210.88 185.198C210.889 185.244 210.893 185.292 210.89 185.34V224.53C210.896 224.609 210.885 224.689 210.857 224.764C210.83 224.839 210.787 224.907 210.731 224.963C210.675 225.02 210.608 225.064 210.533 225.093C210.459 225.122 210.38 225.134 210.3 225.13H204.89C204.683 225.14 204.477 225.088 204.299 224.981C204.121 224.875 203.979 224.717 203.89 224.53L187.3 196.74H187.06V224.53C187.062 224.563 187.061 224.596 187.057 224.629C187.051 224.675 187.04 224.721 187.023 224.764C186.995 224.839 186.951 224.907 186.894 224.964C186.837 225.02 186.769 225.064 186.695 225.093C186.671 225.102 186.647 225.109 186.622 225.115C186.612 225.118 186.603 225.12 186.593 225.121C186.583 225.123 186.574 225.125 186.564 225.126C186.53 225.13 186.495 225.132 186.46 225.13H181.3C181.275 225.131 181.25 225.131 181.225 225.129C181.215 225.128 181.206 225.127 181.197 225.126C181.152 225.12 181.108 225.109 181.065 225.093C181.024 225.077 180.985 225.057 180.948 225.032C180.919 225.012 180.891 224.989 180.866 224.964C180.81 224.907 180.766 224.839 180.737 224.764C180.719 224.717 180.707 224.667 180.702 224.617C180.701 224.604 180.7 224.591 180.7 224.578C180.699 224.562 180.699 224.546 180.7 224.53L180.74 185.34Z" />
    <path d="M219.63 193.79C218.8 196.29 218.57 198.54 218.57 204.9C218.57 211.29 218.8 213.55 219.57 216.02C221.65 222.43 226.88 225.76 234 225.76C240.95 225.76 246.26 222.14 248.26 215.84C248.987 212.951 249.323 209.978 249.26 207V203.49C249.265 203.41 249.252 203.331 249.224 203.256C249.205 203.209 249.181 203.165 249.151 203.124C249.133 203.101 249.114 203.079 249.094 203.059C249.037 203.003 248.969 202.96 248.894 202.933C248.839 202.912 248.782 202.901 248.723 202.899C248.702 202.898 248.681 202.898 248.66 202.9H235.3C235.224 202.896 235.148 202.907 235.077 202.933C235.005 202.96 234.94 203 234.885 203.053C234.83 203.105 234.786 203.168 234.756 203.238C234.726 203.308 234.71 203.384 234.71 203.46V208.21C234.707 208.26 234.71 208.31 234.719 208.359C234.725 208.388 234.733 208.416 234.743 208.444C234.771 208.518 234.814 208.587 234.87 208.643C234.925 208.7 234.993 208.744 235.067 208.773C235.076 208.777 235.085 208.78 235.094 208.783L235.102 208.785C235.119 208.79 235.135 208.795 235.152 208.798C235.201 208.809 235.251 208.813 235.3 208.81H241.95C242.19 208.81 242.31 208.92 242.31 209.16C242.368 210.926 242.149 212.691 241.66 214.39C240.59 217.65 237.56 219.44 233.99 219.44C229.9 219.44 227.52 217.42 226.39 214.15C225.92 212.67 225.68 210.65 225.68 204.89C225.68 199.13 225.92 197.11 226.39 195.62C227.52 192.34 229.9 190.34 233.99 190.34C237.91 190.34 240.35 192.13 242.13 195.34C242.203 195.472 242.32 195.575 242.461 195.628C242.603 195.681 242.759 195.682 242.9 195.63L247.9 193.44C248.035 193.355 248.134 193.223 248.178 193.07C248.222 192.917 248.209 192.754 248.14 192.61C246.48 188.05 241.61 184.05 234.06 184.05C226.94 184.05 221.71 187.38 219.63 193.79Z" />
    <path d="M256.98 185.34C256.976 185.26 256.988 185.181 257.017 185.107C257.046 185.032 257.09 184.965 257.147 184.909C257.171 184.885 257.198 184.864 257.226 184.844C257.263 184.819 257.304 184.798 257.346 184.783C257.356 184.779 257.366 184.776 257.377 184.773L257.392 184.768C257.404 184.765 257.415 184.762 257.427 184.76L257.444 184.757C257.465 184.753 257.487 184.751 257.509 184.749C257.533 184.748 257.557 184.748 257.58 184.75H282.87C282.95 184.744 283.03 184.755 283.104 184.783C283.179 184.81 283.247 184.853 283.304 184.909C283.361 184.965 283.405 185.032 283.434 185.107C283.462 185.181 283.475 185.26 283.47 185.34V190.45C283.475 190.53 283.462 190.609 283.434 190.683C283.405 190.758 283.361 190.825 283.304 190.881C283.247 190.937 283.179 190.98 283.104 191.007C283.065 191.022 283.025 191.031 282.984 191.037C282.946 191.042 282.908 191.043 282.87 191.04H264.35C264.34 191.039 264.329 191.038 264.318 191.037C264.3 191.037 264.283 191.038 264.265 191.04C264.245 191.043 264.225 191.047 264.205 191.054C264.159 191.07 264.116 191.096 264.081 191.131C264.072 191.14 264.063 191.15 264.055 191.161L264.049 191.168L264.042 191.178C264.026 191.202 264.014 191.228 264.004 191.255C263.989 191.302 263.984 191.351 263.99 191.4V201.26C263.985 201.308 263.991 201.357 264.008 201.402C264.024 201.447 264.051 201.489 264.086 201.522C264.12 201.556 264.162 201.581 264.208 201.596C264.239 201.607 264.271 201.612 264.303 201.613C264.308 201.613 264.314 201.613 264.319 201.613C264.33 201.612 264.34 201.611 264.35 201.61H279.96C280.04 201.606 280.12 201.618 280.195 201.647C280.27 201.675 280.338 201.72 280.394 201.776C280.451 201.833 280.495 201.901 280.524 201.975C280.536 202.007 280.545 202.04 280.551 202.074C280.556 202.098 280.559 202.122 280.56 202.146C280.562 202.167 280.562 202.189 280.56 202.21V207.31C280.562 207.341 280.561 207.372 280.558 207.402C280.553 207.451 280.541 207.499 280.524 207.545C280.495 207.619 280.451 207.687 280.394 207.744C280.338 207.801 280.27 207.845 280.195 207.873C280.12 207.902 280.04 207.914 279.96 207.91H264.35C264.11 207.91 263.99 208.02 263.99 208.26V218.48C263.985 218.528 263.991 218.577 264.008 218.622C264.024 218.667 264.051 218.708 264.086 218.742C264.12 218.776 264.162 218.801 264.208 218.816C264.254 218.832 264.302 218.836 264.35 218.83H282.87L282.888 218.829L282.896 218.829C282.905 218.829 282.914 218.829 282.923 218.83C282.937 218.83 282.951 218.831 282.965 218.833C283.013 218.838 283.06 218.85 283.105 218.867C283.18 218.896 283.248 218.94 283.304 218.996C283.361 219.053 283.405 219.121 283.434 219.195C283.446 219.228 283.456 219.262 283.462 219.296C283.47 219.34 283.473 219.385 283.47 219.43V224.53C283.475 224.61 283.462 224.69 283.434 224.765C283.405 224.839 283.361 224.907 283.304 224.964C283.248 225.021 283.18 225.065 283.105 225.093C283.03 225.122 282.95 225.134 282.87 225.13H257.58C257.5 225.134 257.421 225.122 257.346 225.093C257.326 225.086 257.307 225.077 257.289 225.068C257.27 225.058 257.252 225.048 257.235 225.036C257.227 225.031 257.218 225.025 257.21 225.019C257.188 225.002 257.166 224.984 257.146 224.964C257.09 224.907 257.046 224.839 257.017 224.765C257.004 224.731 256.995 224.696 256.988 224.661C256.981 224.618 256.978 224.574 256.98 224.53V185.34Z" />
</g>
</svg>
