<svg width="852" height="679" viewBox="0 0 852 679" fill="none" xmlns="http://www.w3.org/2000/svg">
<g id="logo" fill="currentColor">
    <path d="M0.0026621 556.665C-0.0107894 556.426 0.0268473 556.187 0.113063 555.964C0.199279 555.741 0.33209 555.539 0.502631 555.371C0.673172 555.204 0.877519 555.074 1.10204 554.992C1.32655 554.909 1.56607 554.876 1.80461 554.893H46.8535C72.5314 554.893 84.6646 567.717 84.6646 587.178C84.6646 600.903 78.2376 608.742 70.5793 612.856V613.216C78.0574 616.07 86.7969 625.68 86.7969 640.486C86.7969 664.512 71.7806 676.165 45.0816 676.165H1.80461C1.56456 676.178 1.32446 676.14 1.09995 676.054C0.875431 675.968 0.671536 675.836 0.501543 675.666C0.331549 675.496 0.199271 675.292 0.113315 675.068C0.0273588 674.843 -0.0103429 674.603 0.0026621 674.363V556.665ZM46.373 605.348C57.0646 605.348 63.6718 598.921 63.6718 589.491C63.6718 580.06 57.0646 573.363 46.373 573.363H22.1367C21.99 573.343 21.8408 573.358 21.7006 573.405C21.5604 573.452 21.433 573.531 21.3283 573.636C21.2237 573.741 21.1446 573.868 21.0973 574.008C21.05 574.148 21.0357 574.298 21.0555 574.444V604.237C21.0407 604.381 21.0587 604.527 21.1083 604.663C21.1578 604.8 21.2376 604.923 21.3416 605.024C21.4456 605.125 21.5712 605.201 21.7089 605.247C21.8466 605.293 21.9929 605.307 22.1367 605.288L46.373 605.348ZM22.1367 657.605H47.4542C59.227 657.605 65.8041 650.817 65.8041 640.666C65.8041 630.515 59.227 623.908 47.4542 623.908H22.1367C21.9929 623.889 21.8466 623.903 21.7089 623.949C21.5712 623.994 21.4456 624.071 21.3416 624.172C21.2376 624.273 21.1578 624.396 21.1083 624.533C21.0587 624.669 21.0407 624.815 21.0555 624.959V656.524C21.0357 656.67 21.05 656.819 21.0973 656.96C21.1446 657.1 21.2237 657.227 21.3283 657.332C21.433 657.437 21.5604 657.516 21.7006 657.563C21.8408 657.61 21.99 657.625 22.1367 657.605Z" />
    <path d="M107.881 648.866C105.388 641.388 104.698 634.601 104.698 615.53C104.698 596.459 105.388 589.672 107.881 582.164C114.128 562.913 129.835 552.912 150.708 552.912C171.58 552.912 187.438 562.913 193.684 582.164C196.177 589.672 196.898 596.429 196.898 615.53C196.898 634.631 196.177 641.388 193.684 648.866C187.438 668.117 171.73 678.118 150.708 678.118C129.685 678.118 114.128 668.117 107.881 648.866ZM173.352 643.34C174.764 638.895 175.485 632.648 175.485 615.53C175.485 598.411 174.764 592.165 173.352 587.69C171.962 582.854 168.955 578.642 164.834 575.756C160.713 572.87 155.727 571.485 150.708 571.832C145.711 571.51 140.755 572.907 136.662 575.792C132.57 578.677 129.588 582.875 128.213 587.69C126.802 592.165 126.081 598.231 126.081 615.53C126.081 632.829 126.802 638.895 128.213 643.34C129.583 648.16 132.562 652.366 136.655 655.256C140.748 658.147 145.707 659.548 150.708 659.227C155.731 659.573 160.72 658.183 164.842 655.292C168.964 652.4 171.968 648.181 173.352 643.34Z" />
    <path d="M288.888 676.165C288.303 676.218 287.718 676.067 287.231 675.739C286.744 675.411 286.385 674.925 286.215 674.363L263.03 627.122H242.187C242.043 627.103 241.897 627.117 241.759 627.162C241.622 627.208 241.496 627.284 241.392 627.385C241.288 627.486 241.208 627.61 241.159 627.746C241.109 627.883 241.091 628.028 241.106 628.173V674.363C241.123 674.601 241.09 674.841 241.007 675.065C240.925 675.29 240.796 675.494 240.628 675.665C240.46 675.835 240.258 675.968 240.035 676.054C239.812 676.141 239.573 676.178 239.334 676.165H221.855C221.615 676.178 221.375 676.14 221.15 676.054C220.926 675.968 220.722 675.836 220.552 675.666C220.382 675.496 220.25 675.292 220.164 675.068C220.078 674.843 220.04 674.603 220.053 674.363V556.665C220.04 556.426 220.077 556.187 220.164 555.964C220.25 555.741 220.383 555.539 220.553 555.371C220.724 555.204 220.928 555.074 221.153 554.992C221.377 554.909 221.617 554.876 221.855 554.893H268.736C291.05 554.893 307.448 569.699 307.448 591.082C307.612 598.354 305.476 605.491 301.345 611.477C297.214 617.463 291.299 621.992 284.443 624.419L309.941 673.792C310.117 674.011 310.226 674.277 310.253 674.557C310.281 674.837 310.226 675.119 310.095 675.368C309.964 675.617 309.763 675.822 309.517 675.959C309.271 676.095 308.99 676.156 308.709 676.135L288.888 676.165ZM286.575 591.082C286.575 580.571 279.097 573.784 268.045 573.784H242.187C242.041 573.764 241.891 573.778 241.751 573.825C241.611 573.873 241.483 573.952 241.379 574.056C241.274 574.161 241.195 574.288 241.148 574.429C241.1 574.569 241.086 574.718 241.106 574.865V607.15C241.091 607.294 241.109 607.44 241.159 607.576C241.208 607.713 241.288 607.836 241.392 607.937C241.496 608.038 241.622 608.115 241.759 608.16C241.897 608.206 242.043 608.22 242.187 608.201H268.195C279.097 608.201 286.575 601.444 286.575 591.082Z" />
    <path d="M333.995 556.665C333.982 556.426 334.019 556.187 334.106 555.964C334.192 555.741 334.325 555.539 334.495 555.371C334.666 555.204 334.87 555.074 335.095 554.992C335.319 554.909 335.559 554.876 335.797 554.893H353.276C353.512 554.88 353.748 554.917 353.969 555.001C354.19 555.086 354.391 555.216 354.558 555.383C354.725 555.55 354.855 555.751 354.94 555.972C355.024 556.193 355.061 556.429 355.048 556.665V656.193C355.033 656.337 355.051 656.483 355.101 656.62C355.15 656.756 355.23 656.879 355.334 656.98C355.438 657.082 355.564 657.158 355.701 657.204C355.839 657.249 355.985 657.263 356.129 657.244H411.75C411.99 657.231 412.23 657.269 412.454 657.355C412.679 657.441 412.883 657.573 413.053 657.743C413.223 657.913 413.355 658.117 413.441 658.342C413.527 658.566 413.565 658.806 413.552 659.046V674.363C413.565 674.603 413.527 674.843 413.441 675.068C413.355 675.292 413.223 675.496 413.053 675.666C412.883 675.836 412.679 675.968 412.454 676.054C412.23 676.14 411.99 676.178 411.75 676.165H335.797C335.557 676.178 335.317 676.14 335.092 676.054C334.868 675.968 334.664 675.836 334.494 675.666C334.324 675.496 334.192 675.292 334.106 675.068C334.02 674.843 333.982 674.603 333.995 674.363V556.665Z" />
    <path d="M464.186 556.666C464.31 556.15 464.608 555.693 465.029 555.37C465.45 555.048 465.969 554.88 466.499 554.894H482.897C483.432 554.873 483.958 555.037 484.386 555.36C484.813 555.684 485.115 556.145 485.239 556.666L526.234 674.364C526.594 675.445 526.234 676.166 525.003 676.166H507.524C506.981 676.218 506.439 676.06 506.009 675.725C505.578 675.39 505.293 674.903 505.211 674.364L497.162 650.818H451.393L443.374 674.364C443.292 674.903 443.007 675.39 442.576 675.725C442.146 676.06 441.604 676.218 441.061 676.166H423.763C422.501 676.166 422.141 675.445 422.501 674.364L464.186 556.666ZM449.921 539.007C449.682 539.024 449.443 538.991 449.218 538.908C448.994 538.826 448.79 538.696 448.619 538.529C448.448 538.361 448.316 538.159 448.229 537.936C448.143 537.713 448.106 537.474 448.119 537.235V521.708C448.106 521.469 448.143 521.23 448.229 521.007C448.316 520.784 448.448 520.582 448.619 520.414C448.79 520.247 448.994 520.117 449.218 520.035C449.443 519.952 449.682 519.919 449.921 519.936H462.925C463.164 519.919 463.403 519.952 463.628 520.035C463.852 520.117 464.057 520.247 464.227 520.414C464.398 520.582 464.53 520.784 464.617 521.007C464.703 521.23 464.741 521.469 464.727 521.708V537.325C464.741 537.564 464.703 537.803 464.617 538.026C464.53 538.249 464.398 538.451 464.227 538.619C464.057 538.787 463.852 538.916 463.628 538.998C463.403 539.081 463.164 539.114 462.925 539.097L449.921 539.007ZM490.765 632.108L474.698 585.017H474.157L457.94 632.108H490.765ZM485.6 539.007C485.361 539.024 485.122 538.991 484.897 538.908C484.673 538.826 484.468 538.696 484.298 538.529C484.127 538.361 483.994 538.159 483.908 537.936C483.822 537.713 483.784 537.474 483.798 537.235V521.708C483.784 521.469 483.822 521.23 483.908 521.007C483.994 520.784 484.127 520.582 484.298 520.414C484.468 520.247 484.673 520.117 484.897 520.035C485.122 519.952 485.361 519.919 485.6 519.936H498.604C498.84 519.923 499.076 519.96 499.297 520.045C499.518 520.129 499.719 520.259 499.886 520.426C500.053 520.593 500.183 520.794 500.267 521.015C500.352 521.236 500.389 521.472 500.376 521.708V537.325C500.389 537.561 500.352 537.797 500.267 538.018C500.183 538.239 500.053 538.44 499.886 538.607C499.719 538.774 499.518 538.904 499.297 538.989C499.076 539.073 498.84 539.11 498.604 539.097L485.6 539.007Z" />
    <path d="M542.813 556.666C542.799 556.427 542.837 556.188 542.923 555.965C543.009 555.742 543.142 555.54 543.313 555.372C543.483 555.204 543.687 555.075 543.912 554.993C544.136 554.91 544.376 554.877 544.615 554.894H561.012C561.635 554.84 562.259 554.982 562.797 555.299C563.336 555.617 563.762 556.095 564.016 556.666L613.569 640.307H614.29V556.666C614.272 556.429 614.306 556.19 614.388 555.967C614.471 555.744 614.601 555.541 614.769 555.373C614.938 555.205 615.14 555.075 615.363 554.992C615.586 554.909 615.825 554.876 616.062 554.894H631.589C631.825 554.881 632.061 554.918 632.282 555.002C632.503 555.087 632.704 555.217 632.871 555.384C633.038 555.551 633.168 555.752 633.253 555.973C633.337 556.194 633.374 556.43 633.361 556.666V674.364C633.378 674.602 633.345 674.842 633.262 675.066C633.18 675.291 633.05 675.495 632.883 675.666C632.715 675.836 632.513 675.969 632.29 676.055C632.067 676.141 631.828 676.179 631.589 676.166H615.341C614.719 676.196 614.101 676.041 613.567 675.72C613.032 675.399 612.604 674.927 612.338 674.364L562.514 590.903H561.793V674.364C561.806 674.604 561.769 674.844 561.683 675.068C561.597 675.293 561.464 675.497 561.294 675.667C561.124 675.837 560.92 675.969 560.696 676.055C560.471 676.141 560.231 676.179 559.991 676.166H544.494C544.254 676.179 544.014 676.141 543.79 676.055C543.565 675.969 543.361 675.837 543.191 675.667C543.021 675.497 542.889 675.293 542.803 675.068C542.717 674.844 542.679 674.604 542.692 674.364L542.813 556.666Z" />
    <path d="M656.427 615.41C656.427 596.309 657.117 589.552 659.61 582.043C665.857 562.793 681.564 552.792 702.947 552.792C725.622 552.792 740.248 564.805 745.233 578.5C745.439 578.931 745.48 579.424 745.347 579.883C745.214 580.343 744.917 580.737 744.512 580.992L729.496 587.569C729.07 587.726 728.602 587.723 728.178 587.564C727.754 587.404 727.401 587.097 727.183 586.698C721.838 577.058 714.51 571.682 702.737 571.682C690.454 571.682 683.306 577.689 679.912 587.539C678.501 592.014 677.78 598.081 677.78 615.38C677.78 632.678 678.501 638.745 679.912 643.19C683.306 653.011 690.454 659.077 702.737 659.077C713.459 659.077 722.558 653.701 725.772 643.911C727.239 638.809 727.897 633.509 727.724 628.204C727.724 627.483 727.364 627.152 726.643 627.152H706.671C706.432 627.166 706.194 627.128 705.97 627.042C705.747 626.956 705.545 626.823 705.377 626.652C705.21 626.482 705.08 626.278 704.998 626.053C704.915 625.829 704.882 625.589 704.899 625.35V611.085C704.899 610.856 704.945 610.63 705.035 610.42C705.125 610.21 705.258 610.02 705.423 609.863C705.589 609.705 705.785 609.583 706 609.504C706.215 609.425 706.443 609.391 706.671 609.403H746.795C747.033 609.386 747.273 609.419 747.497 609.502C747.722 609.584 747.926 609.714 748.097 609.881C748.267 610.049 748.4 610.251 748.486 610.474C748.573 610.697 748.61 610.936 748.597 611.175V621.717C748.786 630.661 747.776 639.59 745.593 648.265C739.587 667.186 723.64 678.058 702.767 678.058C681.384 678.058 665.677 668.057 659.43 648.806C657.117 641.388 656.427 634.601 656.427 615.41Z" />
    <path d="M771.782 556.665C771.769 556.426 771.806 556.187 771.893 555.964C771.979 555.741 772.112 555.539 772.282 555.371C772.453 555.204 772.657 555.074 772.882 554.992C773.106 554.909 773.346 554.876 773.584 554.893H849.537C849.775 554.876 850.015 554.909 850.239 554.992C850.464 555.074 850.668 555.204 850.839 555.371C851.009 555.539 851.142 555.741 851.228 555.964C851.314 556.187 851.352 556.426 851.339 556.665V572.012C851.352 572.251 851.314 572.489 851.228 572.713C851.142 572.936 851.009 573.138 850.839 573.305C850.668 573.473 850.464 573.603 850.239 573.685C850.015 573.767 849.775 573.801 849.537 573.784H793.916C793.77 573.764 793.62 573.778 793.48 573.825C793.34 573.873 793.213 573.952 793.108 574.056C793.003 574.161 792.924 574.288 792.877 574.429C792.83 574.569 792.815 574.718 792.835 574.865V604.477C792.82 604.621 792.838 604.767 792.888 604.903C792.937 605.04 793.017 605.163 793.121 605.264C793.225 605.365 793.351 605.442 793.488 605.487C793.626 605.533 793.772 605.547 793.916 605.528H840.797C841.037 605.515 841.277 605.553 841.502 605.639C841.726 605.725 841.93 605.857 842.1 606.027C842.27 606.197 842.402 606.401 842.488 606.625C842.574 606.85 842.612 607.09 842.599 607.33V622.647C842.612 622.887 842.574 623.127 842.488 623.351C842.402 623.576 842.27 623.78 842.1 623.95C841.93 624.12 841.726 624.252 841.502 624.338C841.277 624.424 841.037 624.462 840.797 624.449H793.916C793.195 624.449 792.835 624.779 792.835 625.5V656.193C792.82 656.337 792.838 656.483 792.888 656.62C792.937 656.756 793.017 656.879 793.121 656.98C793.225 657.082 793.351 657.158 793.488 657.204C793.626 657.249 793.772 657.263 793.916 657.244H849.537C849.777 657.231 850.017 657.269 850.241 657.355C850.466 657.441 850.67 657.573 850.84 657.743C851.01 657.913 851.142 658.117 851.228 658.342C851.314 658.566 851.352 658.806 851.339 659.046V674.363C851.352 674.603 851.314 674.843 851.228 675.068C851.142 675.292 851.01 675.496 850.84 675.666C850.67 675.836 850.466 675.968 850.241 676.054C850.017 676.14 849.777 676.178 849.537 676.165H773.584C773.344 676.178 773.104 676.14 772.88 676.054C772.655 675.968 772.451 675.836 772.281 675.666C772.111 675.496 771.979 675.292 771.893 675.068C771.807 674.843 771.769 674.603 771.782 674.363V556.665Z" />
    <path d="M425.656 0.0419922C233.207 0.0419922 223.476 54.5212 223.476 65.8134L230.924 300.068C230.924 412.87 413.883 471.464 421.691 473.897L425.656 475.128L429.65 473.897C437.428 471.464 620.387 412.87 620.387 300.488L627.865 65.5731C627.865 54.5211 618.105 0.0419922 425.656 0.0419922ZM425.656 459.541C415.745 456.327 245.82 399.476 245.82 300.098L240.174 122.305C240.685 122.815 241.075 123.296 241.616 123.806C250.358 132.85 261.232 139.552 273.24 143.298C281.584 146.033 289.166 150.693 295.375 156.902C301.584 163.11 306.244 170.693 308.979 179.036C312.915 190.94 319.582 201.758 328.448 210.623C337.313 219.488 348.131 226.156 360.034 230.092C368.395 232.831 375.995 237.499 382.219 243.718C388.443 249.937 393.117 257.532 395.863 265.891C399.774 277.808 406.432 288.639 415.302 297.508C424.171 306.377 435.001 313.036 446.919 316.946C455.271 319.71 462.862 324.389 469.083 330.611C475.304 336.832 479.984 344.422 482.748 352.775C486.658 364.693 493.317 375.523 502.186 384.392C511.055 393.261 521.886 399.92 533.803 403.83L535.935 404.611C487.913 438.638 431.452 457.529 425.656 459.391V459.541ZM551.793 392.929C547.923 390.926 543.907 389.219 539.78 387.823C530.276 384.77 521.636 379.497 514.576 372.442C507.515 365.386 502.236 356.75 499.175 347.249C495.562 336.472 489.5 326.678 481.465 318.638C473.43 310.597 463.64 304.529 452.865 300.909C443.362 297.855 434.722 292.583 427.661 285.527C420.6 278.472 415.321 269.836 412.261 260.335C408.674 249.51 402.609 239.672 394.548 231.606C386.487 223.54 376.653 217.468 365.831 213.874C356.338 210.799 347.71 205.514 340.656 198.456C333.603 191.397 328.325 182.765 325.257 173.27C321.932 162.379 315.837 152.538 307.567 144.709C299.75 136.447 289.918 130.362 279.036 127.05C269.427 124.188 260.731 118.867 253.809 111.613C247.044 105.211 241.986 97.2209 239.093 88.3679L238.372 65.393C238.372 64.6121 238.973 53.3799 259.755 41.6672C265.856 38.2944 272.224 35.4315 278.796 33.1079C279.877 35.5706 280.748 37.9732 281.619 40.4359C284.67 50.7195 290.342 60.0337 298.077 67.4652C305.521 75.1978 314.829 80.886 325.106 83.9831C335.344 87.0495 344.593 92.7567 351.926 100.531C359.7 107.863 365.407 117.113 368.474 127.35C371.583 137.622 377.269 146.927 384.991 154.38C392.434 162.108 401.744 167.786 412.021 170.868C422.144 174.235 431.342 179.916 438.886 187.459C446.43 195.003 452.111 204.202 455.478 214.325C458.778 224.476 464.433 233.702 471.981 241.249C479.528 248.797 488.754 254.452 498.905 257.752C509.027 261.137 518.224 266.827 525.77 274.374C533.317 281.921 539.007 291.117 542.392 301.239C545.693 311.394 551.352 320.624 558.905 328.172C566.459 335.72 575.692 341.372 585.85 344.666C588.042 345.447 590.204 346.228 592.397 347.129C581.714 364.67 567.948 380.135 551.763 392.778L551.793 392.929ZM605.521 300.038C605.445 310.807 603.41 321.472 599.514 331.512C596.511 330.281 593.898 329.29 591.376 328.509C583.535 326.27 576.44 321.965 570.833 316.045C564.927 310.462 560.641 303.384 558.43 295.563C554.19 282.998 547.106 271.582 537.729 262.205C528.352 252.828 516.936 245.744 504.371 241.504C496.531 239.265 489.436 234.961 483.829 229.041C477.922 223.457 473.636 216.38 471.425 208.558C467.209 195.981 460.132 184.553 450.752 175.173C441.372 165.793 429.944 158.717 417.367 154.5C409.601 152.071 402.54 147.797 396.786 142.044C391.033 136.291 386.759 129.229 384.331 121.464C380.372 108.817 373.274 97.3791 363.698 88.2177C354.529 78.6595 343.093 71.5728 330.452 67.6154C322.73 65.3232 315.756 61.0222 310.24 55.1518C304.334 49.5684 300.048 42.4909 297.837 34.6696C297.086 32.5673 296.275 30.3449 295.314 27.9723C322.734 20.6744 363.909 14.9382 425.626 14.9382C610.777 14.9382 612.939 64.9425 612.939 65.453L605.521 300.038Z" />
    <path d="M342.585 304.543L314.715 346.829L313.243 346.169C296.592 338.646 283.255 325.309 275.733 308.658L275.042 307.186L317.358 279.316L311.351 273.31L325.917 263.669L443.885 381.607L431.872 393.62L342.585 304.543Z" />
    <path d="M564.888 111.071V94.6133L547.259 112.242C553.021 121.09 555.293 131.762 553.635 142.19C551.977 152.618 546.507 162.059 538.285 168.684C530.063 175.308 519.674 178.645 509.132 178.047C498.591 177.448 488.646 172.958 481.227 165.445C473.807 157.933 469.44 147.933 468.973 137.385C468.506 126.837 471.971 116.49 478.697 108.351C485.423 100.212 494.932 94.8595 505.379 93.3312C515.827 91.803 526.47 94.2077 535.246 100.079L552.815 82.5101H536.477V65.4216H582.126V111.071H564.888ZM537.198 135.608C537.198 130.559 535.701 125.623 532.895 121.425C530.09 117.227 526.104 113.955 521.439 112.023C516.774 110.091 511.642 109.586 506.69 110.571C501.738 111.556 497.189 113.987 493.619 117.557C490.049 121.127 487.618 125.676 486.633 130.628C485.648 135.579 486.153 140.712 488.085 145.377C490.018 150.041 493.29 154.028 497.488 156.833C501.686 159.638 506.621 161.136 511.67 161.136C518.438 161.128 524.926 158.435 529.712 153.65C534.498 148.864 537.19 142.376 537.198 135.608Z" />
</g>
</svg>
