<svg width="1736" height="87" viewBox="0 0 1736 87" fill="none" xmlns="http://www.w3.org/2000/svg">
<g id="logo" fill="currentColor">
    <path d="M1248.07 0.00021415C1246.25 0.00522821 1244.43 0.11812 1242.63 0.338297C1242.49 0.363533 1242.37 0.432893 1242.29 0.535152C1242.2 0.637412 1242.15 0.766586 1242.14 0.901769V46.2049C1242.14 46.3543 1242.2 46.4976 1242.3 46.6033C1242.41 46.709 1242.55 46.7683 1242.7 46.7683H1252.99C1253.13 46.7588 1253.27 46.6953 1253.36 46.5906C1253.46 46.4859 1253.52 46.348 1253.51 46.2049V13.4484C1260 14.6146 1265.94 17.85 1270.44 22.6715C1274.95 27.493 1277.77 33.642 1278.49 40.2002C1279.21 46.7585 1277.79 53.3743 1274.45 59.0597C1271.1 64.7452 1266.01 69.1953 1259.93 71.7457C1253.84 74.296 1247.1 74.8097 1240.7 73.2102C1234.31 71.6106 1228.6 67.9835 1224.43 62.8705C1220.26 57.7575 1217.86 51.4328 1217.58 44.8409C1217.3 38.249 1219.16 31.7434 1222.88 26.2956C1222.96 26.2008 1223 26.0811 1223 25.9575C1223 25.8338 1222.96 25.7141 1222.88 25.6194L1214.92 16.5663C1214.79 16.5174 1214.64 16.5174 1214.51 16.5663C1214.35 16.6035 1214.21 16.6813 1214.1 16.7917C1208.06 24.5585 1204.84 34.1431 1204.96 43.9789C1205.08 53.8147 1208.53 63.3199 1214.74 70.9408C1220.96 78.5617 1229.57 83.8476 1239.18 85.9345C1248.78 88.0214 1258.81 86.7858 1267.63 82.4297C1276.44 78.0736 1283.52 70.8547 1287.7 61.9529C1291.88 53.0511 1292.92 42.9929 1290.65 33.4224C1288.38 23.8519 1282.94 15.3352 1275.2 9.2643C1267.47 3.1934 1257.9 -0.0725703 1248.07 0.00021415Z" />
    <path d="M38.4051 2.02832H0.563124C0.420057 2.028 0.282232 2.08219 0.177642 2.17986C0.0730512 2.27754 0.0095375 2.41139 0 2.55423V84.4079C0 84.5573 0.059329 84.7006 0.164935 84.8063C0.270542 84.912 0.413775 84.9713 0.563124 84.9713H38.4051C64.6842 84.9713 80.1138 69.4195 80.1138 43.3871C80.1138 17.3547 64.5341 2.02832 38.4051 2.02832ZM13.2522 14.1242H38.2925C56.7254 14.1242 66.4862 24.3042 66.4862 43.6125C66.4862 62.9208 56.7254 72.8755 38.2925 72.8755H13.2522V14.1242Z" />
    <path d="M179.75 2.02846H158.614C158.502 2.02113 158.39 2.05001 158.295 2.11087C158.201 2.17172 158.128 2.26134 158.088 2.36654L125.127 84.2202C125.084 84.3012 125.062 84.3915 125.062 84.4831C125.062 84.5748 125.084 84.665 125.127 84.7461C125.174 84.8211 125.241 84.8817 125.321 84.9214C125.4 84.9611 125.489 84.9784 125.577 84.9715H138.154C138.259 84.9709 138.363 84.9383 138.45 84.878C138.537 84.8176 138.604 84.7324 138.642 84.6334L147.389 62.8834H190.599L199.346 84.6334C199.384 84.7324 199.451 84.8176 199.538 84.878C199.625 84.9383 199.729 84.9709 199.834 84.9715H212.599C212.688 84.9737 212.777 84.9529 212.857 84.9111C212.936 84.8692 213.004 84.8077 213.053 84.7323C213.101 84.657 213.13 84.5704 213.136 84.4807C213.142 84.391 213.125 84.3013 213.087 84.2202L180.2 2.36654C180.161 2.27558 180.099 2.19646 180.02 2.13711C179.941 2.07776 179.848 2.04029 179.75 2.02846ZM152.157 50.8627L166.798 14.4248H171.303L185.831 50.8627H152.157Z" />
    <path d="M330.366 72.6501H280.511V2.55423C280.501 2.41139 280.438 2.27754 280.333 2.17986C280.229 2.08219 280.091 2.028 279.948 2.02832H267.822C267.679 2.028 267.541 2.08219 267.436 2.17986C267.332 2.27754 267.268 2.41139 267.259 2.55423V84.4079C267.259 84.5573 267.318 84.7006 267.424 84.8063C267.529 84.912 267.673 84.9713 267.822 84.9713H329.841C329.984 84.9717 330.122 84.9175 330.226 84.8198C330.331 84.7221 330.394 84.5883 330.404 84.4454L330.892 73.176C330.929 73.0407 330.929 72.8981 330.892 72.7628C330.821 72.7017 330.735 72.6593 330.643 72.6396C330.552 72.62 330.456 72.6236 330.366 72.6501Z" />
    <path d="M429.814 2.02889H408.641C408.534 2.02372 408.428 2.05404 408.34 2.11515C408.251 2.17627 408.186 2.26477 408.153 2.36697L375.191 84.2206C375.154 84.3032 375.135 84.3929 375.135 84.4836C375.135 84.5742 375.154 84.6639 375.191 84.7465C375.25 84.8194 375.324 84.8777 375.409 84.9169C375.494 84.956 375.586 84.9748 375.679 84.9719H388.181C388.287 84.9713 388.39 84.9387 388.477 84.8784C388.564 84.8181 388.631 84.7328 388.669 84.6338L397.416 62.8838H440.626L449.374 84.6338C449.411 84.7328 449.478 84.8181 449.565 84.8784C449.652 84.9387 449.756 84.9713 449.862 84.9719H462.626C462.713 84.9692 462.798 84.9476 462.876 84.9087C462.954 84.8698 463.022 84.8145 463.076 84.7465C463.114 84.6639 463.133 84.5742 463.133 84.4836C463.133 84.3929 463.114 84.3032 463.076 84.2206L430.303 2.36697C430.27 2.26477 430.204 2.17627 430.116 2.11515C430.028 2.05404 429.922 2.02372 429.814 2.02889ZM402.221 50.8631L416.863 14.4253H421.368L435.896 50.8631H402.221Z" />
    <path d="M570.82 55.4079C583.547 52.1773 590.304 43.1993 590.304 29.4506C590.304 11.4946 579.717 2.02832 559.708 2.02832H517.849C517.709 2.02832 517.576 2.08373 517.477 2.18235C517.379 2.28098 517.323 2.41475 517.323 2.55423V84.4079C517.323 84.551 517.377 84.6889 517.475 84.7936C517.572 84.8982 517.706 84.9618 517.849 84.9713H530.012C530.162 84.9713 530.305 84.912 530.411 84.8063C530.516 84.7006 530.575 84.5573 530.575 84.4079V57.7369H557.455L577.615 84.7459C577.665 84.8182 577.733 84.8768 577.812 84.9161C577.89 84.9555 577.978 84.9745 578.066 84.9713H592.557C592.658 84.9647 592.756 84.9308 592.839 84.8731C592.923 84.8155 592.99 84.7362 593.032 84.6438C593.074 84.5514 593.091 84.4493 593.08 84.3482C593.069 84.2471 593.031 84.1509 592.97 84.0698L570.82 55.4079ZM530.575 14.0866H559.37C573.673 14.0866 576.677 22.6889 576.677 29.9014C576.677 40.1566 570.52 45.8288 559.37 45.8288H530.463L530.575 14.0866Z" />
    <path d="M724.253 2.02832H712.315C712.176 2.02832 712.042 2.08373 711.943 2.18236C711.845 2.28098 711.79 2.41475 711.79 2.55423V65.8509H711.564L663.924 2.21615C663.779 2.16135 663.619 2.16135 663.473 2.21615H648.87C648.727 2.21583 648.589 2.27001 648.484 2.36769C648.38 2.46536 648.316 2.59921 648.307 2.74205V84.4079C648.307 84.5573 648.366 84.7006 648.472 84.8063C648.577 84.912 648.72 84.9713 648.87 84.9713H660.733C660.876 84.9618 661.009 84.8982 661.107 84.7936C661.205 84.6889 661.259 84.551 661.258 84.4079V19.9467L709.912 84.7459C709.957 84.8153 710.018 84.8723 710.09 84.9117C710.162 84.9511 710.243 84.9716 710.325 84.9713H724.253C724.403 84.9713 724.546 84.912 724.651 84.8063C724.757 84.7006 724.816 84.5573 724.816 84.4079V2.55423C724.807 2.41139 724.743 2.27754 724.639 2.17986C724.534 2.08219 724.396 2.028 724.253 2.02832Z" />
    <path d="M833.424 2.02834H812.288C812.177 2.02647 812.068 2.05759 811.974 2.11775C811.881 2.17792 811.807 2.26444 811.763 2.36642L778.801 84.22C778.766 84.3033 778.748 84.3927 778.748 84.483C778.748 84.5733 778.766 84.6627 778.801 84.7459C778.851 84.8183 778.919 84.8768 778.998 84.9162C779.076 84.9555 779.164 84.9745 779.252 84.9713H791.753C791.863 84.9687 791.971 84.9357 792.063 84.8761C792.156 84.8164 792.23 84.7324 792.279 84.6333L801.026 62.8833H844.199L852.946 84.6333C852.994 84.7324 853.069 84.8164 853.161 84.8761C853.254 84.9357 853.361 84.9687 853.471 84.9713H866.198C866.287 84.9783 866.375 84.961 866.455 84.9213C866.534 84.8816 866.601 84.821 866.649 84.7459C866.691 84.6649 866.714 84.5746 866.714 84.483C866.714 84.3914 866.691 84.3011 866.649 84.22L834.025 2.36642C833.982 2.24712 833.898 2.14723 833.788 2.08512C833.677 2.023 833.548 2.00284 833.424 2.02834ZM805.869 50.8625L820.472 14.4247H825.015L839.506 50.8625H805.869Z" />
    <path d="M1033.71 2.02832H995.867C995.724 2.028 995.586 2.08219 995.481 2.17986C995.377 2.27754 995.313 2.41139 995.304 2.55423V84.4079C995.304 84.5573 995.363 84.7006 995.469 84.8063C995.574 84.912 995.717 84.9713 995.867 84.9713H1033.71C1059.99 84.9713 1075.42 69.4195 1075.42 43.3871C1075.42 17.3547 1059.84 2.02832 1033.71 2.02832ZM1008.56 14.1242H1033.6C1052.07 14.1242 1061.79 24.3042 1061.79 43.6125C1061.79 62.9208 1052.07 72.8755 1033.6 72.8755H1008.56V14.1242Z" />
    <path d="M1146.18 2.02832H1134.06C1133.75 2.02832 1133.49 2.2806 1133.49 2.59179V84.4079C1133.49 84.719 1133.75 84.9713 1134.06 84.9713H1146.18C1146.49 84.9713 1146.75 84.719 1146.75 84.4079V2.59179C1146.75 2.2806 1146.49 2.02832 1146.18 2.02832Z" />
    <path d="M1361.67 2.02832H1349.55C1349.24 2.02832 1348.98 2.2806 1348.98 2.59179V84.4079C1348.98 84.719 1349.24 84.9713 1349.55 84.9713H1361.67C1361.98 84.9713 1362.24 84.719 1362.24 84.4079V2.59179C1362.24 2.2806 1361.98 2.02832 1361.67 2.02832Z" />
    <path d="M1493.63 2.02832H1417.12C1416.98 2.028 1416.84 2.08219 1416.74 2.17986C1416.63 2.27754 1416.57 2.41139 1416.56 2.55423L1416.07 13.8237C1416.07 13.8958 1416.09 13.9664 1416.13 14.031C1416.16 14.0957 1416.2 14.153 1416.26 14.1993C1416.32 14.2263 1416.38 14.2403 1416.45 14.2403C1416.51 14.2403 1416.57 14.2263 1416.63 14.1993H1448.69V84.4079C1448.69 84.5573 1448.75 84.7006 1448.86 84.8063C1448.96 84.912 1449.11 84.9713 1449.26 84.9713H1461.5C1461.64 84.9713 1461.79 84.912 1461.89 84.8063C1462 84.7006 1462.06 84.5573 1462.06 84.4079V14.3496H1494.16C1494.29 14.3984 1494.44 14.3984 1494.57 14.3496C1494.61 14.2269 1494.61 14.0966 1494.57 13.9739L1494.08 2.70449C1494.1 2.63038 1494.1 2.55373 1494.09 2.47914C1494.07 2.40454 1494.04 2.33354 1494 2.27039C1493.96 2.20725 1493.9 2.15325 1493.84 2.11166C1493.78 2.07006 1493.71 2.04171 1493.63 2.02832Z" />
    <path d="M1584.89 2.02889H1563.72C1563.61 2.02372 1563.51 2.05404 1563.42 2.11515C1563.33 2.17627 1563.27 2.26477 1563.23 2.36697L1530.27 84.2206C1530.23 84.3032 1530.21 84.3929 1530.21 84.4836C1530.21 84.5742 1530.23 84.6639 1530.27 84.7465C1530.33 84.8145 1530.39 84.8698 1530.47 84.9087C1530.55 84.9476 1530.64 84.9692 1530.72 84.9719H1543.26C1543.37 84.9713 1543.47 84.9387 1543.56 84.8784C1543.64 84.8181 1543.71 84.7328 1543.75 84.6338L1552.5 62.8838H1595.71L1604.42 84.6338C1604.47 84.7305 1604.54 84.8124 1604.63 84.8716C1604.73 84.9308 1604.83 84.9654 1604.94 84.9719H1617.67C1617.76 84.9748 1617.85 84.956 1617.94 84.9169C1618.02 84.8777 1618.1 84.8194 1618.16 84.7465C1618.19 84.6639 1618.21 84.5742 1618.21 84.4836C1618.21 84.3929 1618.19 84.3032 1618.16 84.2206L1585.38 2.36697C1585.35 2.26477 1585.28 2.17627 1585.2 2.11515C1585.11 2.05404 1585 2.02372 1584.89 2.02889ZM1557.3 50.8631L1571.94 14.4253H1576.45L1590.98 50.8631H1557.3Z" />
    <path d="M1735.85 72.8003C1735.79 72.7733 1735.73 72.7594 1735.66 72.7594C1735.6 72.7594 1735.53 72.7733 1735.47 72.8003H1685.62V2.55423C1685.61 2.41139 1685.55 2.27754 1685.44 2.17986C1685.34 2.08219 1685.2 2.028 1685.06 2.02832H1672.89C1672.75 2.02832 1672.62 2.08373 1672.52 2.18236C1672.42 2.28098 1672.37 2.41475 1672.37 2.55423V84.4079C1672.37 84.551 1672.42 84.6889 1672.52 84.7936C1672.62 84.8982 1672.75 84.9618 1672.89 84.9713H1734.95C1735.09 84.9717 1735.23 84.9175 1735.33 84.8198C1735.44 84.7221 1735.5 84.5883 1735.51 84.4454L1735.96 73.176C1735.97 73.1089 1735.97 73.0403 1735.95 72.9753C1735.93 72.9102 1735.9 72.8504 1735.85 72.8003Z" />
</g>
</svg>
