<svg width="463" height="24" viewBox="0 0 463 24"  xmlns="http://www.w3.org/2000/svg">
<g id="logo" fill="currentColor">
    <path d="M330.999 0.0898547C331.48 0.0311999 331.965 0.00117059 332.449 -0.000172184C335.068 -0.0195203 337.615 0.849864 339.676 2.46601C341.736 4.0821 343.187 6.34931 343.792 8.89704C344.397 11.4448 344.12 14.1223 343.005 16.4921C341.891 18.8618 340.006 20.7836 337.659 21.9431C335.311 23.1028 332.639 23.4317 330.08 22.8761C327.521 22.3206 325.226 20.9135 323.571 18.8848C321.915 16.856 320.997 14.3256 320.966 11.7073C320.934 9.08894 321.792 6.53743 323.399 4.46986C323.43 4.44044 323.468 4.41975 323.509 4.40986C323.53 4.40217 323.552 4.39906 323.575 4.40046C323.59 4.40144 323.605 4.40455 323.619 4.40986L325.739 6.81984C325.76 6.84504 325.772 6.8769 325.772 6.90986C325.772 6.94276 325.76 6.97462 325.739 6.99983C324.748 8.45008 324.253 10.182 324.328 11.9367C324.402 13.6915 325.042 15.3752 326.152 16.7363C327.262 18.0974 328.783 19.063 330.487 19.4888C332.191 19.9147 333.987 19.7778 335.607 19.099C337.227 18.4201 338.584 17.2354 339.475 15.7219C340.366 14.2084 340.744 12.4472 340.552 10.7014C340.359 8.95552 339.608 7.31861 338.409 6.03511C337.21 4.7516 335.628 3.89027 333.899 3.57984V12.2998C333.899 12.338 333.885 12.3746 333.859 12.4025C333.854 12.4083 333.848 12.4136 333.842 12.4183C333.837 12.4219 333.832 12.4252 333.827 12.4282C333.807 12.4407 333.784 12.4482 333.759 12.4498H331.019C330.979 12.4498 330.941 12.434 330.913 12.4059C330.885 12.3778 330.869 12.3396 330.869 12.2998V0.239818C330.871 0.203868 330.885 0.169445 330.908 0.142223C330.919 0.129589 330.932 0.118846 330.946 0.110301C330.962 0.100414 330.98 0.0934557 330.999 0.0898547Z" />
    <path fill-rule="evenodd" clip-rule="evenodd" d="M0.150024 0.54005H10.23C17.1899 0.54005 21.34 4.62007 21.34 11.5501C21.34 18.48 17.23 22.62 10.23 22.62H0.150024C0.110229 22.62 0.0720215 22.6043 0.0439453 22.5761C0.0157471 22.548 0 22.5098 0 22.4701V0.680065C0.00256348 0.64204 0.0194092 0.606395 0.0473633 0.580394C0.0751953 0.554393 0.111938 0.539989 0.150024 0.54005ZM10.2 3.76002H3.53003V19.4H10.2C15.11 19.4 17.71 16.7501 17.71 11.6101C17.71 6.47004 15.11 3.76002 10.2 3.76002Z" />
    <path fill-rule="evenodd" clip-rule="evenodd" d="M47.8799 0.539867H42.2499C42.2343 0.538829 42.2186 0.540477 42.2036 0.544567C42.1901 0.54829 42.177 0.554088 42.165 0.561778C42.1586 0.565929 42.1526 0.570568 42.147 0.575633C42.1305 0.590404 42.1178 0.608959 42.1099 0.629833L33.3298 22.4198C33.3253 22.4285 33.3217 22.4375 33.3188 22.4468C33.3146 22.4607 33.3125 22.4752 33.3125 22.4899L33.3127 22.4972L33.3131 22.5034C33.3138 22.5117 33.3153 22.52 33.3175 22.5281C33.3203 22.5391 33.3245 22.5497 33.3298 22.5598C33.3425 22.5798 33.3604 22.596 33.3815 22.6066C33.4026 22.6171 33.4263 22.6217 33.4498 22.6199H36.7998C36.828 22.6198 36.8556 22.611 36.8788 22.595C36.8865 22.5897 36.8936 22.5836 36.8999 22.577L36.9049 22.5715C36.9155 22.5592 36.924 22.5452 36.9298 22.5299L39.2599 16.7399H50.7698L53.0999 22.5299C53.103 22.5382 53.1069 22.546 53.1116 22.5535C53.1166 22.5617 53.1224 22.5692 53.129 22.5762C53.1356 22.5831 53.1429 22.5895 53.1509 22.595C53.1741 22.611 53.2017 22.6198 53.2299 22.6199H56.6299C56.6405 22.6201 56.651 22.6192 56.6613 22.6171C56.6686 22.6156 56.6758 22.6135 56.6827 22.611C56.6881 22.6089 56.6935 22.6065 56.6986 22.6038C56.7197 22.5927 56.7377 22.5763 56.7507 22.5562C56.7638 22.5361 56.7715 22.5131 56.7731 22.4893C56.774 22.4749 56.7728 22.4605 56.7694 22.4465C56.7671 22.4374 56.7639 22.4284 56.7599 22.4198L47.9999 0.629833C47.9895 0.605663 47.9729 0.584606 47.9519 0.568798C47.9395 0.55952 47.9258 0.552257 47.9114 0.547191C47.9061 0.545299 47.9006 0.543712 47.895 0.542491C47.89 0.541332 47.885 0.540477 47.8799 0.539867ZM40.5298 13.5399L44.4298 3.83985H45.6299L49.4999 13.5399H40.5298Z" />
    <path d="M74.7195 19.3401H87.9995C88.0073 19.3378 88.0151 19.3361 88.0231 19.3351L88.033 19.3341L88.0417 19.334C88.0522 19.334 88.0629 19.3351 88.0732 19.3373C88.0859 19.34 88.0981 19.3444 88.1096 19.3502C88.1166 19.3538 88.1233 19.3578 88.1296 19.3623C88.1329 19.3648 88.1362 19.3673 88.1394 19.37C88.1451 19.391 88.1475 19.4126 88.1465 19.4341C88.1461 19.4425 88.1453 19.4508 88.1439 19.4591C88.1427 19.4662 88.1412 19.4732 88.1394 19.48L88.0094 22.48C88.0078 22.5049 88 22.5288 87.9869 22.5497C87.9801 22.5607 87.9718 22.5708 87.9622 22.5797C87.9343 22.6057 87.8976 22.6201 87.8595 22.62H71.3395C71.33 22.62 71.3206 22.619 71.3113 22.6173C71.306 22.6163 71.3008 22.615 71.2957 22.6134L71.2849 22.6098C71.2769 22.6066 71.2692 22.6028 71.2617 22.5984L71.2549 22.5939C71.2472 22.5886 71.24 22.5827 71.2334 22.5761C71.2052 22.548 71.1895 22.5098 71.1895 22.4701V0.680065C71.192 0.64204 71.2089 0.606395 71.2368 0.580394C71.2527 0.565563 71.2715 0.554515 71.2917 0.54774L71.2974 0.546031C71.3011 0.544933 71.3049 0.543956 71.3088 0.543163C71.3188 0.541088 71.3291 0.54005 71.3395 0.54005H74.5695C74.6075 0.539989 74.6443 0.554393 74.6721 0.580394C74.7 0.606395 74.7169 0.64204 74.7195 0.680065V19.3401Z" />
    <path fill-rule="evenodd" clip-rule="evenodd" d="M114.491 0.540172H108.851C108.822 0.538829 108.794 0.546886 108.771 0.563182C108.747 0.579418 108.73 0.602977 108.721 0.630199L99.9409 22.4202C99.9309 22.4422 99.9258 22.4661 99.9258 22.4902C99.9258 22.4962 99.926 22.5022 99.9266 22.5082L99.9285 22.5202C99.9301 22.5289 99.9323 22.5375 99.9352 22.5459L99.938 22.5534L99.9409 22.5602C99.9564 22.5796 99.9762 22.5951 99.9988 22.6056C100.021 22.616 100.046 22.621 100.071 22.6203H103.401C103.429 22.62 103.457 22.6113 103.48 22.5953C103.503 22.5792 103.521 22.5565 103.531 22.5302L105.861 16.7402H117.371L119.701 22.5302C119.711 22.5565 119.729 22.5792 119.752 22.5953C119.756 22.5983 119.761 22.6011 119.765 22.6035L119.771 22.6066C119.79 22.6154 119.81 22.6201 119.831 22.6203H123.231C123.254 22.6195 123.277 22.6138 123.297 22.6034C123.318 22.593 123.336 22.5783 123.351 22.5602C123.361 22.5382 123.366 22.5143 123.366 22.4902C123.366 22.4661 123.361 22.4422 123.351 22.4202L114.621 0.630199C114.612 0.602977 114.595 0.579418 114.571 0.563182C114.548 0.546886 114.519 0.538829 114.491 0.540172ZM107.141 13.5402L111.041 3.84022H112.241L116.111 13.5402H107.141Z" />
    <path fill-rule="evenodd" clip-rule="evenodd" d="M157.241 7.84004C157.241 11.5001 155.441 13.89 152.051 14.7501L157.951 22.38C157.967 22.4016 157.977 22.4273 157.98 22.4541C157.983 22.4811 157.979 22.5083 157.967 22.5328C157.962 22.5455 157.954 22.5573 157.945 22.5678C157.941 22.5726 157.936 22.5773 157.932 22.5817L157.924 22.5878L157.916 22.5939C157.894 22.6093 157.868 22.6183 157.841 22.62H153.981C153.957 22.6209 153.934 22.6159 153.913 22.6054C153.903 22.6002 153.893 22.5939 153.885 22.5866C153.88 22.5825 153.875 22.5781 153.871 22.5735L153.866 22.5673L148.491 15.3701H141.331V22.4701C141.331 22.4799 141.33 22.4895 141.328 22.4989C141.326 22.5092 141.323 22.5193 141.319 22.5289C141.311 22.5464 141.301 22.5624 141.287 22.5761C141.259 22.6043 141.221 22.62 141.181 22.62H137.941C137.92 22.6187 137.899 22.6127 137.88 22.6029C137.866 22.5952 137.853 22.5851 137.841 22.5728C137.826 22.5564 137.815 22.537 137.808 22.5161C137.803 22.5014 137.801 22.4859 137.801 22.4701V0.680065C137.801 0.642894 137.816 0.607311 137.842 0.581066C137.868 0.55482 137.904 0.54005 137.941 0.54005H149.091C154.421 0.54005 157.241 3.06007 157.241 7.84004ZM149.001 3.75007H141.331L141.301 12.2H149.001C151.971 12.2 153.611 10.6901 153.611 7.96003C153.611 6.04005 152.811 3.75007 149.001 3.75007Z" />
    <path d="M192.919 0.54005H189.74C189.702 0.54005 189.667 0.55482 189.641 0.581066C189.614 0.607311 189.599 0.642894 189.599 0.680065V17.53H189.539L176.849 0.590038C176.811 0.57545 176.768 0.57545 176.729 0.590038H172.839C172.801 0.589977 172.765 0.604381 172.737 0.630382C172.709 0.656383 172.692 0.692028 172.689 0.730052V22.4701C172.689 22.5098 172.705 22.548 172.733 22.5761C172.761 22.6043 172.8 22.62 172.839 22.62H176C176.037 22.6176 176.073 22.6006 176.099 22.5728C176.125 22.5449 176.14 22.5082 176.139 22.4701V5.31007L189.099 22.5601C189.111 22.5785 189.128 22.5936 189.147 22.6041C189.166 22.6146 189.188 22.6201 189.209 22.62H192.919C192.939 22.62 192.958 22.6163 192.975 22.6093C192.994 22.6018 193.011 22.5906 193.026 22.5761C193.054 22.548 193.069 22.5098 193.069 22.4701V0.680065C193.067 0.64204 193.05 0.606395 193.022 0.580394C192.994 0.554393 192.958 0.539989 192.919 0.54005Z" />
    <path fill-rule="evenodd" clip-rule="evenodd" d="M216.37 0.539989H222C222.006 0.538707 222.012 0.537853 222.019 0.537486L222.029 0.53712C222.034 0.537181 222.039 0.537486 222.044 0.538036C222.051 0.538829 222.058 0.540172 222.064 0.541942C222.069 0.543163 222.073 0.544567 222.078 0.546215C222.084 0.548717 222.09 0.551647 222.097 0.555126C222.126 0.571605 222.148 0.598216 222.16 0.629955L230.85 22.4199C230.861 22.4415 230.867 22.4656 230.867 22.49C230.867 22.5144 230.861 22.5385 230.85 22.5599C230.837 22.58 230.819 22.5961 230.798 22.6067C230.787 22.6119 230.776 22.6157 230.765 22.6179C230.753 22.6203 230.742 22.621 230.73 22.62H227.34C227.31 22.6193 227.282 22.6105 227.257 22.5946C227.232 22.5787 227.213 22.5564 227.2 22.53L224.87 16.74H213.37L211.04 22.53C211.027 22.5564 211.007 22.5787 210.982 22.5946C210.97 22.6027 210.956 22.6088 210.942 22.613C210.929 22.6173 210.914 22.6196 210.9 22.62H207.57C207.546 22.6209 207.523 22.6157 207.502 22.6052C207.481 22.5949 207.463 22.5792 207.45 22.5599C207.44 22.5379 207.436 22.514 207.436 22.49C207.436 22.4779 207.437 22.466 207.439 22.4542C207.442 22.4425 207.445 22.431 207.45 22.4199L216.23 0.629955C216.236 0.616405 216.243 0.603893 216.253 0.592723C216.262 0.581554 216.274 0.571788 216.286 0.563793C216.311 0.54774 216.34 0.539501 216.37 0.539989ZM218.55 3.83998L214.66 13.54H223.62L219.76 3.83998H218.55Z" />
    <path fill-rule="evenodd" clip-rule="evenodd" d="M275.349 0.54005H265.269C265.231 0.539989 265.194 0.554393 265.167 0.580394C265.139 0.606395 265.122 0.64204 265.119 0.680065V22.4701C265.119 22.5098 265.135 22.548 265.163 22.5761C265.178 22.5913 265.196 22.6029 265.216 22.6104C265.233 22.6167 265.251 22.62 265.269 22.62H275.349C282.349 22.62 286.459 18.48 286.459 11.5501C286.459 4.62007 282.309 0.54005 275.349 0.54005ZM268.649 3.76002H275.319C280.239 3.76002 282.829 6.47004 282.829 11.6101C282.829 16.7501 280.239 19.4 275.319 19.4H268.649V3.76002Z" />
    <path d="M302.08 0.54005H305.31C305.393 0.54005 305.46 0.607189 305.46 0.690074V22.4701C305.46 22.5148 305.44 22.5549 305.409 22.5824C305.383 22.6058 305.348 22.62 305.31 22.62H302.08C302.044 22.62 302.011 22.6077 301.986 22.5869C301.969 22.5736 301.955 22.5569 301.946 22.5379C301.936 22.5175 301.93 22.4945 301.93 22.4701V0.690074C301.93 0.607189 301.997 0.54005 302.08 0.54005Z" />
    <path d="M362.71 0.54005H359.48C359.397 0.54005 359.33 0.607189 359.33 0.690074V22.4701C359.33 22.5529 359.397 22.62 359.48 22.62H362.71C362.793 22.62 362.86 22.5529 362.86 22.4701V0.690074C362.86 0.648448 362.843 0.61079 362.816 0.583568C362.801 0.568614 362.782 0.556835 362.762 0.549327C362.746 0.543346 362.728 0.54005 362.71 0.54005Z" />
    <path d="M377.479 0.54005H397.859C397.879 0.54359 397.898 0.551158 397.915 0.562206C397.924 0.567943 397.932 0.574474 397.939 0.581798C397.946 0.588756 397.952 0.596324 397.958 0.604503C397.969 0.621288 397.976 0.640209 397.98 0.660045C397.984 0.679943 397.984 0.700328 397.979 0.720043L398.109 3.72004C398.119 3.7527 398.119 3.78736 398.109 3.82008C398.074 3.83308 398.035 3.83308 397.999 3.82008H389.449V22.4701C389.449 22.5098 389.433 22.548 389.405 22.5761C389.377 22.6043 389.339 22.62 389.299 22.62H386.039C386.022 22.62 386.005 22.6171 385.99 22.6116C385.969 22.6043 385.949 22.5922 385.933 22.5761C385.905 22.548 385.889 22.5098 385.889 22.4701V3.78004H377.349C377.333 3.78724 377.316 3.79097 377.299 3.79097C377.282 3.79097 377.265 3.78724 377.249 3.78004C377.234 3.76771 377.222 3.75245 377.214 3.73524C377.205 3.71803 377.2 3.69923 377.199 3.68006L377.329 0.680065C377.332 0.64204 377.349 0.606395 377.376 0.580394C377.404 0.554393 377.441 0.539989 377.479 0.54005Z" />
    <path fill-rule="evenodd" clip-rule="evenodd" d="M422.171 0.540172H416.531C416.502 0.538829 416.474 0.546886 416.45 0.563182C416.436 0.572948 416.424 0.585338 416.415 0.599559C416.409 0.60902 416.404 0.619335 416.401 0.630199L407.621 22.4202C407.611 22.4422 407.605 22.4661 407.605 22.4902C407.605 22.5143 407.611 22.5382 407.621 22.5602C407.635 22.5783 407.653 22.593 407.674 22.6034C407.682 22.6073 407.69 22.6105 407.698 22.613C407.705 22.6152 407.712 22.617 407.72 22.6182C407.727 22.6193 407.734 22.62 407.74 22.6203H411.081C411.109 22.62 411.136 22.6113 411.159 22.5953C411.183 22.5792 411.2 22.5565 411.211 22.5302L413.541 16.7402H425.051L427.371 22.5302C427.384 22.5559 427.404 22.5778 427.429 22.5935C427.436 22.5979 427.443 22.6018 427.45 22.6052C427.469 22.6138 427.49 22.6189 427.51 22.6203H430.901C430.925 22.621 430.95 22.616 430.973 22.6056C430.995 22.5951 431.015 22.5796 431.031 22.5602C431.041 22.5382 431.046 22.5143 431.046 22.4902C431.046 22.4661 431.041 22.4422 431.031 22.4202L422.301 0.630199C422.292 0.602977 422.274 0.579418 422.251 0.563182C422.227 0.546886 422.199 0.538829 422.171 0.540172ZM414.821 13.5402L418.721 3.84022H419.921L423.791 13.5402H414.821Z" />
    <path d="M462.331 19.3692C462.348 19.3692 462.365 19.3728 462.381 19.38C462.393 19.3933 462.402 19.4093 462.407 19.4266C462.409 19.4325 462.41 19.4384 462.411 19.4443C462.413 19.4562 462.413 19.4682 462.411 19.48L462.291 22.48C462.289 22.5079 462.279 22.5347 462.263 22.5573C462.257 22.5653 462.251 22.5729 462.243 22.5797C462.216 22.6057 462.179 22.6201 462.141 22.62H445.611C445.573 22.6176 445.537 22.6006 445.511 22.5728C445.485 22.5449 445.471 22.5082 445.471 22.4701V0.680065C445.471 0.642894 445.485 0.607311 445.512 0.581066C445.538 0.55482 445.574 0.54005 445.611 0.54005H448.851C448.889 0.539989 448.926 0.554393 448.953 0.580394C448.973 0.598705 448.987 0.621776 448.995 0.647167C448.998 0.657787 449 0.668834 449.001 0.680065V19.38H462.281C462.296 19.3728 462.313 19.3692 462.331 19.3692Z" />
</g>
</svg>
