<svg width="1929" height="187" viewBox="0 0 1929 187" fill="none" xmlns="http://www.w3.org/2000/svg">
<g id="logo">
    <path d="M0.0332031 175.999H9.57535C18.3964 175.999 20.3585 171.829 20.3585 158.144V35.2053C20.3585 11.2539 20.1069 8.80855 6.15426 8.80855H0.0332031V1.72363H133.405V41.5532H124.802C124.567 13.9338 109.625 8.80855 83.8833 8.80855H42.5788V89.3052H74.8946C97.8863 89.3052 104.745 84.1632 106.758 62.406H115.31V122.536H106.758C104.745 97.8138 96.9137 96.3399 76.8399 96.3399H42.5788V146.42C42.5788 172.08 45.0272 175.999 57.5041 175.999H63.8767V183.101H0.0332031V175.999Z" fill="#778390"/>
    <path d="M163.944 8.55664C167.536 8.72126 170.936 10.2248 173.473 12.7706C176.009 15.3163 177.498 18.7193 177.645 22.3077C177.532 25.9011 176.052 29.3163 173.507 31.8584C170.961 34.4005 167.542 35.8786 163.944 35.9918C160.335 35.9149 156.894 34.4485 154.341 31.8987C151.788 29.349 150.32 25.9129 150.243 22.3077C150.239 20.5087 150.59 18.7265 151.277 17.0633C151.964 15.4001 152.972 13.8888 154.245 12.6159C155.518 11.343 157.03 10.3336 158.695 9.64563C160.359 8.95767 162.143 8.60468 163.944 8.60689V8.55664ZM154.888 81.4659C154.888 70.4617 151.954 69.239 141.187 69.239H135.083V62.1038H143.87C156.347 62.1038 164.196 60.6299 176.17 58.1845C175.448 66.2576 174.962 74.314 174.962 82.3871V160.355C174.962 172.33 177.645 175.998 188.16 175.998H196.009V183.1H135.083V176.015H143.468C153.53 176.015 154.972 171.124 154.972 161.829L154.888 81.4659Z" fill="#778390"/>
    <path d="M213.013 146.671H220.106C222.79 166.217 236.256 179.901 256.564 179.901C269.041 179.901 281.72 168.412 281.72 155.95C281.72 138.112 267.767 133.221 248.934 130.826C230.101 128.431 213.013 120.023 213.013 94.1121C213.013 73.5775 232.835 58.185 256.078 58.185C260.876 58.1648 265.653 58.8246 270.266 60.1447C274.239 61.3457 278.357 62.0049 282.508 62.1043C285.674 62.0285 288.775 61.1896 291.547 59.659H295.471V95.586H288.377C284.453 74.5657 271.976 65.2867 257.286 65.2867C244.322 65.2867 231.594 72.6061 231.594 87.5129C231.594 105.837 241.874 108.047 265.62 111.715C282.994 114.395 301.827 125.4 301.827 147.157C301.827 170.857 283.229 186.986 258.225 186.986C252.699 186.989 247.193 186.332 241.824 185.027C237.106 183.804 232.258 183.152 227.385 183.084C223.593 183.42 219.961 184.768 216.87 186.986H213.013V146.671Z" fill="#778390"/>
    <path d="M383.648 183.1V176.016H386.096C390.758 176.016 394.901 175.764 394.901 171.359C394.901 169.165 389.769 162.985 387.086 159.384L356.732 118.8H353.881V156.938C353.881 175.999 356.078 175.999 365.385 175.999H373.77V183.1H313.901V176.016H322.286C331.594 176.016 333.807 176.016 333.807 156.955V27.3328C333.807 14.6202 333.556 8.03774 321.079 8.03774H313.968V0.986328H353.881V111.715H356.816L392.788 80.679C395.722 77.9824 398.422 74.8168 398.422 72.8572C398.422 69.9261 395.236 69.1891 392.05 69.1891H388.696V62.1042H433.237V69.2058H428.575C417.574 69.2058 408.032 77.9992 401.173 84.2801L374.508 108.734L417.607 164.509C423.963 172.883 428.122 175.999 436.692 175.999H439.861V183.1H383.648Z" fill="#778390"/>
    <path d="M495.739 178.444C512.391 178.444 520.223 163.37 520.223 148.295V117.778C492.318 117.778 472.747 124.88 472.747 153.722C472.747 168.126 480.813 178.41 495.739 178.41V178.444ZM565.183 164.257C565.183 177.456 555.876 186.986 542.661 186.986C532.147 186.986 522.353 182.346 521.129 170.856H520.642C513.783 181.861 502.296 186.986 489.081 186.986C467.28 186.986 448.934 176.936 448.934 154.476C448.934 116.84 486.633 110.744 520.156 110.744V87.5124C520.156 75.3023 512.09 65.2862 500.82 65.2862C492.435 65.2862 483.195 66.4922 481.233 75.7712C484.184 79.6905 485.392 82.4709 485.392 86.2897C485.392 93.1402 479.036 98.2822 472.428 98.2822C463.138 98.2822 457.989 90.946 457.989 82.1359C457.989 63.5611 484.419 58.1846 500.569 58.1846C525.288 58.1846 540.213 68.9376 540.213 89.4721V160.103C540.213 166.954 540.464 176.97 547.81 176.97C555.155 176.97 558.09 169.148 558.09 160.103V151.059H565.183V164.257Z" fill="#778390"/>
    <path d="M575.245 175.998H581.115C592.619 175.998 595.067 172.079 595.067 160.924V87.5124C595.067 76.5082 593.39 69.1888 581.115 69.1888H575.245V62.1039H580.394C587.001 62.1039 605.096 60.8812 613.665 58.1846V89.7066H614.152C622.302 75.051 631.844 59.156 650.71 59.156C661.242 59.156 673.467 64.03 673.467 76.257C673.467 85.0503 668.336 90.4435 659.531 90.4435C652.438 90.4435 646.115 85.5528 646.115 77.9654C646.204 76.1963 646.619 74.4588 647.339 72.8401H642.694C626.545 72.8401 615.292 99.9571 615.292 119.034V160.338C615.292 175.982 622.134 175.982 636.087 175.982H641.47V183.1H575.245V175.998Z" fill="#778390"/>
    <path d="M670.147 175.999H678.532C687.84 175.999 690.037 175.999 690.037 156.938V27.3328C690.037 14.6202 689.802 8.03774 677.308 8.03774H670.215V0.986328H710.11V78.9539H710.597C719.149 65.7555 732.851 58.1849 746.803 58.1849C781.551 58.1849 786.699 75.537 786.699 95.0331V156.871C786.699 175.932 788.896 175.932 798.203 175.932H806.588V183.1H746.736V176.016H755.121C764.429 176.016 766.625 176.016 766.625 156.955V101.934C766.625 81.8347 761.729 68.2176 743.147 68.2176C721.128 68.2176 710.127 86.7758 710.127 107.31V156.938C710.127 175.999 712.324 175.999 721.615 175.999H730V183.1H670.147V175.999Z" fill="#778390"/>
    <path d="M893.557 115.869C893.557 98.0309 892.082 65.2862 867.128 65.2862C842.174 65.2862 839.222 97.294 839.222 115.869H893.557ZM839.222 122.954C839.222 144.208 840.212 179.901 869.559 179.901C890.857 179.901 904.307 162.314 905.548 141.277H915.61C913.933 169.885 896.023 186.986 867.396 186.986C830.938 186.986 815.526 159.367 815.526 125.399C815.526 91.4317 828.942 58.1846 867.396 58.1846C902.127 58.1846 917.354 92.6544 917.354 122.954H839.222Z" fill="#778390"/>
    <path d="M990.22 68.2176C962.801 68.2176 962.315 97.043 962.315 122.468C962.315 144.962 962.801 176.97 988.258 176.97C1015.91 176.97 1022.99 147.157 1022.99 122.72C1022.99 98.2824 1018.11 68.2176 990.22 68.2176ZM1024.46 160.104H1023.98C1016.65 179.416 1001.71 186.902 985.306 186.902C951.766 186.902 938.585 150.238 938.585 122.15C938.585 94.7651 951.548 58.1011 984.334 58.1011C1002.21 58.1011 1012.96 64.9515 1022.52 81.3323H1023.01V22.0066C1023.01 10.7679 1019.1 8.08799 1008.08 8.08799H1002.46V0.986328H1043.13V154.979C1043.13 170.622 1043.38 175.999 1057.33 175.999H1062.97V183.1H1024.46V160.104Z" fill="#778390"/>
    <path d="M1150.32 115.869C1150.32 98.0309 1148.85 65.2862 1123.89 65.2862C1098.94 65.2862 1095.99 97.294 1095.99 115.869H1150.32ZM1095.99 122.954C1095.99 144.208 1096.98 179.901 1126.33 179.901C1147.61 179.901 1161.09 162.314 1162.31 141.277H1172.38C1170.7 169.885 1152.81 186.986 1124.16 186.986C1087.7 186.986 1072.29 159.367 1072.29 125.399C1072.29 91.4317 1085.71 58.1846 1124.16 58.1846C1158.91 58.1846 1174.09 92.6377 1174.09 122.954H1095.99Z" fill="#778390"/>
    <path d="M1188.04 62.1039H1194.75C1205.5 62.3738 1216.24 61.053 1226.61 58.1846V80.93H1227.1C1237.16 65.7552 1250.57 58.1846 1264.78 58.1846C1299.53 58.1846 1304.67 75.5367 1304.67 95.0328V156.871C1304.67 175.931 1306.87 175.931 1316.18 175.931H1324.48V183.1H1264.78V176.015H1273.16C1282.47 176.015 1284.68 176.015 1284.68 156.955V101.933C1284.68 81.8344 1279.79 68.2174 1261.21 68.2174C1239.17 68.2174 1228.17 86.7755 1228.17 107.31V156.938C1228.17 175.998 1230.37 175.998 1239.66 175.998H1248.04V183.1H1188.04V176.015H1196.42C1205.73 176.015 1207.93 176.015 1207.93 156.955V83.1241C1207.93 71.6342 1204.57 69.1888 1193.74 69.1888H1188.11L1188.04 62.1039Z" fill="#778390"/>
    <path d="M1436.67 62.1045V69.2062H1433.99C1427.87 69.2062 1424.93 76.2911 1422.74 81.6676L1382.35 185.513H1373.5L1332.92 83.6105C1329.01 73.5609 1327.05 69.1894 1320.67 69.1894H1316.03V62.1045H1371.1V69.2062H1365.47C1360.33 69.2062 1353.24 70.6801 1353.24 75.7886C1353.24 78.9709 1354.21 82.4883 1357.89 91.6836L1383.81 157.19H1384.3L1410.49 89.3052C1412.16 85.354 1413.07 81.1287 1413.19 76.8438C1413.19 69.5244 1408.53 69.2731 1400.95 69.2731H1397.6V62.1045H1436.67Z" fill="#778390"/>
    <path d="M1474.4 8.55664C1478 8.72126 1481.4 10.2248 1483.93 12.7706C1486.47 15.3163 1487.96 18.7193 1488.11 22.3077C1487.99 25.9011 1486.51 29.3163 1483.97 31.8584C1481.42 34.4005 1478 35.8786 1474.4 35.9918C1470.79 35.9149 1467.35 34.4485 1464.8 31.8987C1462.25 29.349 1460.78 25.9129 1460.7 22.3077C1460.7 20.5073 1461.05 18.7237 1461.74 17.0594C1462.43 15.3952 1463.44 13.883 1464.71 12.6099C1465.99 11.3368 1467.5 10.3278 1469.17 9.64081C1470.83 8.95384 1472.62 8.60247 1474.42 8.60689L1474.4 8.55664ZM1465.37 81.4659C1465.37 70.4617 1462.43 69.239 1451.65 69.239H1436.69V62.1038H1454.33C1466.81 62.1038 1474.64 60.6299 1486.63 58.1845C1485.89 66.2576 1485.41 74.314 1485.41 82.3871V160.355C1485.41 172.33 1488.11 175.998 1498.62 175.998H1513.43V183.1H1445.61V176.015H1454C1464.06 176.015 1465.5 171.124 1465.5 161.829L1465.37 81.4659Z" fill="#778390"/>
    <path d="M1553.31 156.938C1553.31 175.999 1555.52 175.999 1564.83 175.999H1585.54V183.1L1513.43 183.1L1513.43 176.016H1521.81C1531.12 176.016 1533.32 176.016 1533.32 156.955V27.3328C1533.32 14.6202 1533.08 8.03774 1520.59 8.03774H1513.49V0.986328H1553.37L1553.31 156.938Z" fill="#778390"/>
    <path d="M1625.43 156.938C1625.43 175.999 1627.62 175.999 1636.92 175.999H1645.49V183.1H1585.54L1585.54 176.016H1593.92C1603.21 176.016 1605.41 176.016 1605.41 156.955V27.3328C1605.41 14.6202 1605.18 8.03774 1592.7 8.03774H1585.61V0.986328H1625.5L1625.43 156.938Z" fill="#778390"/>
    <path d="M1703.23 178.444C1719.88 178.444 1727.72 163.37 1727.72 148.295V117.778C1699.81 117.778 1680.24 124.88 1680.24 153.722C1680.24 168.126 1688.31 178.41 1703.23 178.41V178.444ZM1772.74 164.224C1772.74 177.422 1763.44 186.952 1750.24 186.952C1739.69 186.952 1729.91 182.313 1728.69 170.823H1728.2C1721.34 181.827 1709.75 186.952 1696.62 186.952C1674.82 186.952 1656.49 176.903 1656.49 154.442C1656.49 116.807 1694.18 110.71 1727.72 110.71V87.5124C1727.72 75.3023 1719.63 65.2862 1708.38 65.2862C1699.99 65.2862 1690.75 66.4922 1688.81 75.7712C1691.74 79.6905 1692.95 82.4709 1692.95 86.2897C1692.95 93.1402 1686.6 98.2822 1679.99 98.2822C1670.7 98.2822 1665.55 90.946 1665.55 82.1359C1665.55 63.5611 1692 58.1846 1708.13 58.1846C1732.85 58.1846 1747.79 68.9376 1747.79 89.4721V160.103C1747.79 166.954 1748.01 176.97 1755.37 176.97C1762.46 176.97 1765.65 169.148 1765.65 160.103V151.059H1772.74V164.224Z" fill="#778390"/>
    <path d="M1782.03 62.1039H1788.64C1799.4 62.3753 1810.13 61.0545 1820.5 58.1846V80.93H1820.99C1831.05 65.7552 1844.47 58.1846 1858.67 58.1846C1893.42 58.1846 1898.57 75.5367 1898.57 95.0328V156.871C1898.57 175.931 1900.76 175.931 1910.07 175.931H1918.46V183.1H1858.74V176.015H1867.12C1876.41 176.015 1878.61 176.015 1878.61 156.955V101.933C1878.61 81.8344 1873.73 68.2174 1855.13 68.2174C1833.11 68.2174 1822.1 86.7755 1822.1 107.31V156.938C1822.1 175.998 1824.31 175.998 1833.6 175.998H1841.99V183.1H1782.27V176.015H1790.65C1799.96 176.015 1802.16 176.015 1802.16 156.955V83.1241C1802.16 71.6342 1798.8 69.1888 1787.95 69.1888H1782.34L1782.03 62.1039Z" fill="#778390"/>
    <path d="M1904.15 58.4693C1904.15 56.3511 1904.78 54.2795 1905.95 52.5169C1907.13 50.7542 1908.8 49.3798 1910.76 48.5677C1912.72 47.7556 1914.88 47.5422 1916.96 47.9546C1919.04 48.3671 1920.95 49.3868 1922.45 50.8846C1923.95 52.3824 1924.97 54.291 1925.38 56.3686C1925.79 58.4463 1925.58 60.5997 1924.77 62.556C1923.95 64.5124 1922.58 66.1838 1920.81 67.3585C1919.05 68.5333 1916.97 69.1586 1914.85 69.1553C1912.02 69.1464 1909.3 68.0178 1907.3 66.0157C1905.29 64.0136 1904.16 61.3007 1904.15 58.4693ZM1901.72 58.4693C1901.72 61.0671 1902.49 63.6066 1903.94 65.7664C1905.38 67.9262 1907.44 69.6093 1909.84 70.6027C1912.25 71.5961 1914.89 71.8551 1917.44 71.3471C1919.99 70.8391 1922.33 69.5868 1924.17 67.7486C1926.01 65.9105 1927.26 63.5691 1927.77 61.0208C1928.27 58.4725 1928.01 55.8317 1927.01 53.4325C1926.01 51.0333 1924.33 48.9837 1922.16 47.5428C1920 46.1019 1917.45 45.3346 1914.85 45.3379C1911.37 45.3423 1908.03 46.7278 1905.57 49.1899C1903.1 51.652 1901.72 54.9895 1901.72 58.4693Z" fill="#778390"/>
    <path d="M1917.92 66.2584L1914.57 59.5587H1912.64V66.2584H1910.14V50.1289H1914.8C1918.76 50.1289 1920.52 51.5191 1920.52 54.7517C1920.63 55.803 1920.33 56.8559 1919.69 57.6961C1919.05 58.5363 1918.11 59.1005 1917.07 59.274L1920.74 66.2584H1917.92ZM1914.4 52.3063H1912.62V57.3311H1914.67C1916.96 57.3311 1918.02 56.5773 1918.02 54.8187C1918.02 53.06 1916.93 52.3063 1914.4 52.3063Z" fill="#778390"/>
</g>
</svg>
