<svg width="1150" height="112" viewBox="0 0 1150 112" xmlns="http://www.w3.org/2000/svg">
<g id="logo" fill="currentColor">
    <path d="M228.77 109.406V105.176H230.23C233.01 105.176 235.48 105.026 235.48 102.396C235.48 101.327 233.441 98.6721 231.822 96.5633L231.82 96.5612C231.456 96.0872 231.113 95.6408 230.82 95.2463L212.72 71.0163H211.02V93.7863C211.02 105.166 212.33 105.166 217.88 105.166H222.88V109.406H187.18V105.176H192.18C197.73 105.176 199.05 105.176 199.05 93.7963V16.4063C199.05 8.81628 198.9 4.88626 191.46 4.88626H187.22V0.67627H211.02V66.7863H212.77L234.22 48.2563C235.97 46.6463 237.58 44.7563 237.58 43.5863C237.58 41.8363 235.68 41.3963 233.78 41.3963H231.78V37.1663H258.34V41.4063H255.56C249.035 41.4063 243.371 46.5996 239.286 50.3453L223.32 65.0063L249.02 98.3063C252.81 103.306 255.29 105.166 260.4 105.166H262.29V109.406H228.77Z" />
    <path d="M0.0195312 105.166H5.70953C10.9695 105.166 12.1395 102.676 12.1395 94.5062V21.1062C12.1395 6.80621 11.9895 5.34622 3.66956 5.34622H0.0195312V1.11621H79.5496V24.8962H74.4196C74.2795 8.40622 65.3695 5.34622 50.0195 5.34622H25.3895V53.4062H44.6595C58.3695 53.4062 62.4595 50.3362 63.6595 37.3462H68.7595V73.2462H63.6595C62.4595 58.4862 57.7896 57.6062 45.8195 57.6062H25.3895V87.5062C25.3895 102.826 26.8495 105.166 34.2896 105.166H38.0895V109.406H0.0195312V105.166Z" />
    <path d="M97.7598 5.19629C99.9018 5.29459 101.929 6.19226 103.442 7.71219C104.954 9.23212 105.842 11.2638 105.93 13.4063C105.862 15.5517 104.98 17.5907 103.462 19.1085C101.944 20.6262 99.9052 21.5087 97.7598 21.5763C95.6074 21.5304 93.5559 20.6549 92.0336 19.1325C90.5112 17.6102 89.6357 15.5587 89.5898 13.4063C89.5872 12.3322 89.7966 11.2681 90.2062 10.2751C90.6157 9.28217 91.2172 8.37979 91.9763 7.61981C92.7353 6.85983 93.6369 6.2572 94.6294 5.84647C95.6219 5.43573 96.6857 5.22498 97.7598 5.22629V5.19629Z" />
    <path d="M92.3598 48.7263C92.3598 42.1563 90.6098 41.4263 84.1898 41.4263H80.5498V37.1663H85.7898C93.2298 37.1663 97.9098 36.2863 105.05 34.8263C104.62 39.6463 104.33 44.4563 104.33 49.2763V95.8263C104.33 102.976 105.93 105.166 112.2 105.166H116.88V109.406H80.5498V105.176H85.5498C91.5498 105.176 92.4098 102.256 92.4098 96.7063L92.3598 48.7263Z" />
    <path d="M131.25 87.6559H127.02V111.726H129.32C131.163 110.402 133.329 109.597 135.59 109.396C138.496 109.437 141.386 109.826 144.2 110.556C147.401 111.335 150.685 111.728 153.98 111.726C168.89 111.726 179.98 102.096 179.98 87.946C179.98 74.956 168.75 68.386 158.39 66.7859C144.23 64.5959 138.1 63.2759 138.1 52.336C138.1 43.4359 145.69 39.0659 153.42 39.0659C162.18 39.0659 169.62 44.606 171.96 57.1559H176.19V35.706H173.85C172.197 36.6198 170.348 37.1207 168.46 37.166C165.985 37.1066 163.529 36.713 161.16 35.9959C158.409 35.2078 155.561 34.8139 152.7 34.826C138.84 34.826 127.02 44.016 127.02 56.276C127.02 71.746 137.21 76.766 148.44 78.196C159.67 79.6259 167.99 82.546 167.99 93.196C167.99 100.636 160.43 107.496 152.99 107.496C140.88 107.496 132.85 99.326 131.25 87.6559Z" />
    <path fill-rule="evenodd" clip-rule="evenodd" d="M323.59 111.726C331.47 111.726 337.02 106.036 337.02 98.1562V90.2762H332.79V95.6762C332.79 101.076 331.04 105.746 326.66 105.746C322.28 105.746 322.13 99.7662 322.13 95.6762V53.5062C322.13 41.2462 313.23 34.8262 298.49 34.8262C288.86 34.8262 273.1 38.0362 273.1 49.1262C273.1 54.3862 276.17 58.7662 281.71 58.7662C285.65 58.7662 289.44 55.6962 289.44 51.6062C289.44 49.3262 288.72 47.6662 286.96 45.3262C288.13 39.7862 293.64 39.0662 298.64 39.0662C305.36 39.0662 310.17 45.0462 310.17 52.3362V66.2062C290.18 66.2062 267.7 69.8462 267.7 92.3162C267.7 105.726 278.64 111.726 291.64 111.726C299.52 111.726 306.37 108.666 310.46 102.096H310.75C311.48 108.956 317.32 111.726 323.59 111.726ZM310.21 88.6262C310.21 97.6262 305.54 106.626 295.61 106.626V106.606C286.71 106.606 281.9 100.466 281.9 91.8662C281.9 74.6462 293.57 70.4062 310.21 70.4062V88.6262Z" />
    <path d="M343.02 105.166H346.52C353.38 105.166 354.84 102.826 354.84 96.1662V52.3362C354.84 45.7662 353.84 41.3962 346.52 41.3962H343.02V37.1662H346.09C350.03 37.1662 360.82 36.4362 365.93 34.8262V53.6462H366.22C371.08 44.8962 376.77 35.4062 388.02 35.4062C394.3 35.4062 401.59 38.3162 401.59 45.6162C401.59 50.8662 398.53 54.0862 393.28 54.0862C389.05 54.0862 385.28 51.1662 385.28 46.6362C385.333 45.58 385.58 44.5426 386.01 43.5762H383.24C373.61 43.5762 366.9 59.7662 366.9 71.1562V95.8162C366.9 105.156 370.98 105.156 379.3 105.156H382.51V109.406H343.02V105.166Z" />
    <path d="M404.609 105.166H399.609V109.406H435.299V105.166H430.299C424.759 105.166 423.449 105.166 423.449 93.7863V64.1563C423.449 51.8963 430.009 40.8163 443.139 40.8163C454.219 40.8163 457.139 48.9463 457.139 60.9463V93.7963C457.139 105.176 455.829 105.176 450.279 105.176H445.279V109.406H480.969V105.126H475.969C470.419 105.126 469.109 105.126 469.109 93.7463V56.8263C469.109 45.1863 466.039 34.8263 445.319 34.8263C436.999 34.8263 428.829 39.3463 423.729 47.2263H423.439V0.67627H399.649V4.88626H403.879C411.329 4.88626 411.469 8.81628 411.469 16.4063V93.7863C411.469 105.166 410.159 105.166 404.609 105.166Z" />
    <path fill-rule="evenodd" clip-rule="evenodd" d="M500.431 73.4962C500.431 86.1862 501.021 107.496 518.521 107.496C531.221 107.496 539.241 96.9962 539.981 84.4362H545.981C544.981 101.516 534.301 111.726 517.231 111.726C495.491 111.726 486.301 95.2362 486.301 74.9562C486.301 54.6762 494.301 34.8262 517.231 34.8262C537.941 34.8262 547.021 55.4062 547.021 73.4962H500.431ZM532.831 69.2662C532.831 58.6162 531.951 39.0662 517.071 39.0662C502.191 39.0662 500.431 58.1762 500.431 69.2662H532.831Z" />
    <path fill-rule="evenodd" clip-rule="evenodd" d="M610.6 95.6763H610.89V109.406H633.85V105.166H630.49C622.17 105.166 622.02 101.956 622.02 92.6163V0.67627H597.77V4.91626H601.12C607.69 4.91626 610.02 6.51627 610.02 13.2263V48.6463H609.73C604.03 38.8663 597.62 34.7763 586.96 34.7763C567.41 34.7763 559.68 56.6663 559.68 73.0163C559.68 89.7863 567.54 111.676 587.54 111.676C597.32 111.676 606.23 107.206 610.6 95.6763ZM573.83 73.2063C573.83 58.0263 574.12 40.8163 590.47 40.8163C607.1 40.8163 610.01 58.7663 610.01 73.3563C610.01 87.9463 605.79 105.746 589.3 105.746C574.12 105.746 573.83 86.6363 573.83 73.2063Z" />
    <path fill-rule="evenodd" clip-rule="evenodd" d="M653.54 73.4962C653.54 86.1862 654.13 107.496 671.63 107.496C684.32 107.496 692.36 96.9962 693.09 84.4362H699.09C698.09 101.516 687.42 111.726 670.34 111.726C648.6 111.726 639.41 95.2362 639.41 74.9562C639.41 54.6762 647.41 34.8262 670.34 34.8262C691.06 34.8262 700.11 55.3962 700.11 73.4962H653.54ZM685.94 69.2662C685.94 58.6162 685.06 39.0662 670.18 39.0662C655.3 39.0662 653.54 58.1762 653.54 69.2662H685.94Z" />
    <path d="M712.43 37.1662H708.43L708.47 41.3962H711.83C718.29 41.3962 720.29 42.8562 720.29 49.7162V93.7962C720.29 105.176 718.98 105.176 713.43 105.176H708.43V109.406H744.21V105.166H739.21C733.67 105.166 732.36 105.166 732.36 93.7862V64.1562C732.36 51.8962 738.92 40.8162 752.06 40.8162C763.14 40.8162 766.06 48.9462 766.06 60.9462V93.7962C766.06 105.176 764.74 105.176 759.19 105.176H754.19V109.406H789.79V105.126H784.84C779.29 105.126 777.98 105.126 777.98 93.7462V56.8262C777.98 45.1862 774.91 34.8262 754.19 34.8262C745.72 34.8262 737.72 39.3462 731.72 48.4062H731.43V34.8262C725.246 36.5388 718.844 37.3273 712.43 37.1662Z" />
    <path d="M856.69 37.166V41.406H855.09C851.44 41.406 849.69 45.636 848.38 48.846L824.3 110.846H819.02L794.82 50.006C792.49 44.006 791.32 41.396 787.52 41.396H784.75V37.166H817.59V41.406H814.23C811.17 41.406 806.94 42.286 806.94 45.336C806.94 47.236 807.52 49.336 809.71 54.826L825.17 93.936H825.46L841.08 53.406C842.072 51.047 842.618 48.5243 842.69 45.966C842.69 41.596 839.91 41.446 835.39 41.446H833.39V37.166H856.69Z" />
    <path d="M884.871 7.71219C883.359 6.19226 881.331 5.29459 879.189 5.19629L879.199 5.22629C878.124 5.22366 877.059 5.43344 876.066 5.84357C875.072 6.25372 874.169 6.85617 873.409 7.61627C872.649 8.37637 872.047 9.27917 871.636 10.2728C871.226 11.2664 871.017 12.3313 871.019 13.4063C871.065 15.5587 871.941 17.6102 873.463 19.1325C874.985 20.6549 877.037 21.5304 879.189 21.5763C881.335 21.5087 883.374 20.6262 884.891 19.1085C886.409 17.5907 887.292 15.5517 887.359 13.4063C887.271 11.2638 886.384 9.23212 884.871 7.71219Z" />
    <path d="M865.619 41.4263C872.049 41.4263 873.799 42.1563 873.799 48.7263L873.879 96.7063C873.879 102.256 873.019 105.176 867.019 105.176H862.019V109.406H902.459V105.166H893.629C887.359 105.166 885.749 102.976 885.749 95.8263V49.2763C885.749 44.4563 886.039 39.6463 886.479 34.8263C879.329 36.2863 874.659 37.1663 867.219 37.1663H856.699V41.4263H865.619Z" />
    <path d="M926.241 93.7863C926.241 105.166 927.561 105.166 933.111 105.166H945.461V105.176H950.461C956.001 105.176 957.311 105.176 957.311 93.7963V16.4063C957.311 8.81628 957.171 4.88626 949.731 4.88626H945.501V0.67627H969.291L969.251 93.7863C969.251 105.166 970.551 105.166 976.101 105.166H981.211V109.406H902.461V105.176H907.461C913.011 105.176 914.321 105.176 914.321 93.7963V16.4063C914.321 8.81628 914.181 4.88626 906.731 4.88626H902.501V0.67627H926.281L926.241 93.7863Z" />
    <path fill-rule="evenodd" clip-rule="evenodd" d="M1057.09 98.1362C1057.09 106.016 1051.54 111.706 1043.67 111.706C1037.38 111.706 1031.55 108.936 1030.82 102.076H1030.53C1026.44 108.646 1019.53 111.706 1011.7 111.706C998.7 111.706 987.77 105.706 987.77 92.2962C987.77 69.8262 1010.24 66.1862 1030.24 66.1862V52.3362C1030.24 45.0462 1025.42 39.0662 1018.71 39.0662C1013.71 39.0662 1008.2 39.7862 1007.04 45.3262C1008.79 47.6662 1009.51 49.3262 1009.51 51.6062C1009.51 55.6962 1005.72 58.7662 1001.78 58.7662C996.24 58.7662 993.17 54.3862 993.17 49.1262C993.17 38.0362 1008.94 34.8262 1018.56 34.8262C1033.3 34.8262 1042.21 41.2462 1042.21 53.5062V95.6762C1042.21 99.7662 1042.34 105.746 1046.73 105.746C1050.96 105.746 1052.86 101.076 1052.86 95.6762V90.2762H1057.09V98.1362ZM1015.64 106.626C1025.57 106.626 1030.24 97.6262 1030.24 88.6262V70.4062C1013.6 70.4062 1001.93 74.6462 1001.93 91.8662C1001.93 100.466 1006.74 106.606 1015.64 106.606V106.626Z" />
    <path d="M1066.57 37.1662H1062.63L1062.81 41.3962H1066.16C1072.63 41.3962 1074.63 42.8562 1074.63 49.7162V93.7962C1074.63 105.176 1073.32 105.176 1067.77 105.176H1062.77V109.406H1098.38V105.166H1093.38C1087.84 105.166 1086.52 105.166 1086.52 93.7862V64.1562C1086.52 51.8962 1093.09 40.8162 1106.22 40.8162C1117.31 40.8162 1120.22 48.9462 1120.22 60.9462V93.7962C1120.22 105.176 1118.91 105.176 1113.37 105.176H1108.37V109.406H1143.98V105.126H1138.98C1133.43 105.126 1132.12 105.126 1132.12 93.7462V56.8262C1132.12 45.1862 1129.05 34.8262 1108.33 34.8262C1099.86 34.8262 1091.86 39.3462 1085.86 48.4062H1085.57V34.8262C1079.39 36.5396 1072.98 37.3282 1066.57 37.1662Z" />
    <path fill-rule="evenodd" clip-rule="evenodd" d="M1141.66 35.6461L1143.66 39.6461H1145.34L1143.15 35.4761C1143.77 35.3726 1144.33 35.0357 1144.71 34.5341C1145.1 34.0324 1145.27 33.4038 1145.21 32.7761C1145.21 30.8461 1144.16 30.0161 1141.8 30.0161H1139.02V39.6461H1140.51V35.6461H1141.66ZM1140.5 31.3161H1141.56C1143.07 31.3161 1143.72 31.7661 1143.72 32.8161C1143.72 33.8661 1143.09 34.3161 1141.72 34.3161H1140.5V31.3161Z" />
    <path fill-rule="evenodd" clip-rule="evenodd" d="M1134 34.9962C1134 36.5473 1134.46 38.0635 1135.32 39.353C1136.18 40.6425 1137.41 41.6473 1138.84 42.2404C1140.28 42.8335 1141.85 42.9882 1143.37 42.6849C1144.89 42.3816 1146.29 41.6339 1147.39 40.5364C1148.48 39.439 1149.23 38.0411 1149.53 36.5196C1149.83 34.9982 1149.68 33.4215 1149.08 31.9891C1148.49 30.5567 1147.48 29.3329 1146.19 28.4727C1144.9 27.6124 1143.38 27.1543 1141.83 27.1562C1139.75 27.1589 1137.76 27.9861 1136.29 29.4561C1134.82 30.9261 1134 32.9187 1134 34.9962ZM1135.45 34.9962C1135.45 33.7316 1135.82 32.4948 1136.52 31.4424C1137.22 30.39 1138.22 29.5695 1139.39 29.0846C1140.56 28.5997 1141.84 28.4723 1143.08 28.7186C1144.32 28.9648 1145.46 29.5736 1146.36 30.4679C1147.25 31.3621 1147.86 32.5016 1148.11 33.7421C1148.35 34.9825 1148.23 36.2682 1147.74 37.4362C1147.26 38.6042 1146.44 39.6021 1145.38 40.3035C1144.33 41.0049 1143.09 41.3782 1141.83 41.3763C1140.14 41.371 1138.52 40.6971 1137.32 39.5018C1136.13 38.3064 1135.46 36.6867 1135.45 34.9962Z" />
</g>
</svg>
