<svg width="568" height="83" viewBox="0 0 568 83"  xmlns="http://www.w3.org/2000/svg">
<g id="logo" fill="currentColor">
    <path d="M517.4 56.9V25.8C517.4 9 526.7 0 542.7 0C558.1 0 566.6 9 567.1 25.8H550.9C550.6 18.6 548.3 15.6 542.7 15.6C537.2 15.6 534.3 18.6 534.3 25.8V56.9C534.3 64.1 537.2 67.1 542.9 67.1C548.8 67.1 551.7 64.1 551.7 56.9V51.2H542V36.8H567.6V56.9C567.1 73.7 558.2 82.7 542.6 82.7C526.7 82.7 517.4 73.7 517.4 56.9Z" />
    <path d="M49.8002 1.3999V81.2999H33.4002V57.2999H17.0002V81.2999H0.700195V1.3999H17.0002V41.8999H33.4002V1.3999H49.8002Z" />
    <path d="M60.2998 55.5999V1.3999H77.1998V55.5999C77.1998 62.8999 80.0998 66.8999 85.7998 66.8999C91.4998 66.8999 94.3998 62.8999 94.3998 55.5999V1.3999H111.3V55.5999C111.3 72.4999 101.8 82.7 85.7998 82.7C69.7998 82.7 60.2998 72.4999 60.2998 55.5999Z" />
    <path d="M190.4 81.2999V1.3999H174.3L161.7 31.7C161.54 32.0999 161.368 32.5287 161.187 32.9797C159.559 37.0404 157.21 42.8998 156.4 45.5999H155.9C154.9 42.7 152.2 35.7 150.6 31.7L138 1.3999H121.6V81.3999H137.4V34.7999L144 53.3999L148 64.2H164L168 53.3999L174.5 34.7999V81.2999H190.4Z" />
    <path fill-rule="evenodd" clip-rule="evenodd" d="M251.1 57.4999C251.1 71.7999 241.3 81.3999 227.6 81.3999H202.4V1.3999H227.3C239.6 1.3999 248.4 10.4999 248.4 24.0999C248.4 30.2 245.9 36.4999 241.7 40.3999C247.5 43.8999 251.1 50.2999 251.1 57.4999ZM218.5 16.7V33.3999H224.9C229.5 33.3999 231.9 30.3999 231.9 24.7999C231.9 19.3999 229.6 16.7 224.4 16.7H218.5ZM234.4 57.2999C234.4 51.4999 231.1 48.4999 225 48.4999H218.5V65.9999H224.7C231.1 65.9999 234.4 62.9999 234.4 57.2999Z" />
    <path d="M302.001 81.2999V65.8999H277.001V1.3999H260.801V81.2999H302.001Z" />
    <path d="M329.201 54.5999H290.301V1.3999H329.201V14.3999H306.501V21.2H329.201V33.2999H306.501V41.4999H329.201V54.5999Z" />
    <path fill-rule="evenodd" clip-rule="evenodd" d="M366.7 81.3999C380.4 81.3999 390.2 71.7999 390.2 57.4999C390.2 50.2999 386.7 43.8999 380.8 40.3999C385 36.4999 387.5 30.2 387.5 24.0999C387.5 10.4999 378.7 1.3999 366.4 1.3999H341.5V81.3999H366.7ZM357.7 33.3999V16.7H363.6C368.8 16.7 371.1 19.3999 371.1 24.7999C371.1 30.3999 368.7 33.3999 364.1 33.3999H357.7ZM364.1 48.4999C370.2 48.4999 373.5 51.4999 373.5 57.2999C373.5 62.9999 370.2 65.9999 363.8 65.9999H357.6V48.4999H364.1Z" />
    <path fill-rule="evenodd" clip-rule="evenodd" d="M420.701 54.4999H415.001V81.2999H398.801V1.3999H422.001C437.901 1.3999 447.201 11.2 447.201 27.9999C447.201 38.7999 443.201 46.7999 436.101 51.0999L451.201 81.3999H433.501L420.701 54.4999ZM415.001 39.0999H421.701C427.401 39.0999 430.501 35.2 430.501 27.9999C430.501 20.7 427.401 16.7999 421.701 16.7999H415.001V39.0999Z" />
    <path fill-rule="evenodd" clip-rule="evenodd" d="M476.201 68.0999H493.101L495.801 81.2999H512.601L493.401 1.3999H476.001L456.801 81.2999H473.601L476.201 68.0999ZM488.101 43.5999L489.901 52.7H479.401L481.201 43.5999C482.301 37.8999 483.601 28.2 484.401 21.7H484.901C485.701 28.2 487.101 37.8999 488.101 43.5999Z" />
    <path d="M321.6 65.6001H321.3C317 65.6001 313.4 69.2001 313.4 73.6001C313.4 78.0001 316.9 81.6001 321.3 81.6001H321.6C326 81.6001 329.5 78.0001 329.5 73.6001C329.5 69.2001 326 65.6001 321.6 65.6001Z" />
</g>
</svg>
