<svg width="1316" height="193" viewBox="0 0 1316 193" fill="none" xmlns="http://www.w3.org/2000/svg">
<g id="logo">
    <path d="M114.169 3.5625V189.438H76.111V133.605H38.0532V189.438H0.227539V3.5625H38.0532V97.7797H76.111V3.5625H114.169Z" fill="#FFCD1E"/>
    <path d="M138.535 129.651V3.5625H177.753V129.651C177.753 146.633 184.483 155.938 197.71 155.938C210.938 155.938 217.667 146.633 217.667 129.651V3.5625H256.885V129.651C256.885 168.966 234.84 192.695 197.71 192.695C160.581 192.695 138.535 168.966 138.535 129.651Z" fill="#FFCD1E"/>
    <path d="M440.444 3.5625V189.438H403.547V81.2626L388.463 124.533L379.18 149.657H342.051L332.768 124.533L317.452 81.2626V189.671H280.787V3.5625H318.845L348.084 74.0509C351.797 83.3563 358.063 99.6408 360.383 106.387H361.544C363.632 99.4081 370.13 83.3563 373.843 74.0509L403.082 3.5625H440.444Z" fill="#FFCD1E"/>
    <path d="M581.305 134.071C581.305 167.338 558.563 189.671 526.771 189.671H468.292V3.5625H526.075C554.618 3.5625 575.039 24.7323 575.039 56.3707C575.039 70.5614 569.238 85.2174 559.491 94.2902C572.951 102.432 581.305 117.321 581.305 134.071ZM505.654 39.1557V78.0057H520.505C531.18 78.0057 536.75 71.0267 536.75 57.9991C536.75 45.4368 531.412 39.1557 519.345 39.1557H505.654ZM542.551 133.605C542.551 120.113 534.893 113.134 520.737 113.134H505.654V153.845H520.041C534.893 153.845 542.551 146.866 542.551 133.605Z" fill="#FFCD1E"/>
    <path d="M699.423 153.612V189.438H603.814V3.5625H641.408V153.612H699.423Z" fill="#FFCD1E"/>
    <path d="M762.543 127.324H672.271V3.5625H762.543V33.8051H709.865V49.6242H762.543V77.7731H709.865V96.8492H762.543V127.324Z" fill="#FFCD1E"/>
    <path d="M904.099 134.071C904.099 167.338 881.357 189.671 849.565 189.671H791.086V3.5625H848.869C877.412 3.5625 897.833 24.7323 897.833 56.3707C897.833 70.5614 892.032 85.2174 882.285 94.2902C895.977 102.432 904.099 117.321 904.099 134.071ZM828.68 39.1557V78.0057H843.531C854.206 78.0057 859.776 71.0267 859.776 57.9991C859.776 45.4368 854.438 39.1557 842.371 39.1557H828.68ZM865.345 133.605C865.345 120.113 857.687 113.134 843.531 113.134H828.448V153.845H842.835C857.687 153.845 865.345 146.866 865.345 133.605Z" fill="#FFCD1E"/>
    <path d="M974.878 127.092H961.65V189.438H924.057V3.5625H977.894C1014.79 3.5625 1036.37 26.3607 1036.37 65.4434C1036.37 90.568 1027.09 109.179 1010.61 119.182L1045.66 189.671H1004.58L974.878 127.092ZM961.65 91.2659H977.198C990.426 91.2659 997.62 82.1932 997.62 65.4434C997.62 48.4611 990.426 39.3883 977.198 39.3883H961.65V91.2659Z" fill="#FFCD1E"/>
    <path d="M1142.89 158.73H1103.67L1097.64 189.438H1058.65L1103.21 3.5625H1143.58L1188.14 189.438H1149.15L1142.89 158.73ZM1135.46 122.904L1131.29 101.734C1128.96 88.4743 1125.72 65.9087 1123.86 50.7874H1122.7C1120.84 65.9087 1117.83 88.4743 1115.27 101.734L1111.1 122.904H1135.46Z" fill="#FFCD1E"/>
    <path d="M1199.28 132.675V60.3255C1199.28 21.2428 1220.86 0.305664 1257.99 0.305664C1293.73 0.305664 1313.45 21.2428 1314.61 60.3255H1277.02C1276.32 43.5758 1270.99 36.5967 1257.99 36.5967C1245.23 36.5967 1238.5 43.5758 1238.5 60.3255V132.675C1238.5 149.425 1245.23 156.404 1258.45 156.404C1272.15 156.404 1278.88 149.425 1278.88 132.675V119.415H1256.37V85.9154H1315.77V132.675C1314.61 171.758 1293.96 192.695 1257.76 192.695C1220.86 192.695 1199.28 171.758 1199.28 132.675Z" fill="#FFCD1E"/>
    <path d="M744.21 152.914H744.906C755.116 152.914 763.239 161.289 763.239 171.525C763.239 181.761 755.116 190.136 744.906 190.136H744.21C733.999 190.136 725.877 181.761 725.877 171.525C725.877 161.289 734.231 152.914 744.21 152.914Z" fill="#FFCD1E"/>
</g>
</svg>
