<svg width="825" height="400" viewBox="0 0 825 400" xmlns="http://www.w3.org/2000/svg">
    <g id="logo" fill="currentColor">
        <path fill-rule="evenodd" clip-rule="evenodd"
            d="M261.124 268.504L225.911 64.3499C224.405 55.6228 219.439 47.7115 212.631 41.979C205.823 36.2466 197.182 32.6988 188.317 32.6988H186.104V16.1581C186.104 14.8566 185.721 13.5839 185.003 12.4982C184.285 11.4125 183.263 10.5617 182.065 10.0513C181.616 9.86136 176.018 7.52042 166.924 5.22403C143.234 -0.832489 118.399 -0.832489 94.7092 5.22403C85.6152 7.52042 80.0175 9.86136 79.5675 10.0513C78.3702 10.5623 77.3493 11.4132 76.6314 12.4988C75.9135 13.5844 75.5303 14.8567 75.5292 16.1581V32.6988H73.3214C64.465 32.6988 55.821 36.2494 49.0076 41.979C42.1942 47.7086 37.2336 55.6228 35.7272 64.3499L0.51416 268.504C-0.255097 272.769 -0.11319 277.148 0.930542 281.354C1.96094 285.406 3.89566 289.172 6.58966 292.369C9.28363 295.567 12.6669 298.113 16.4858 299.817C20.4547 301.559 24.7471 302.442 29.0815 302.41H64.4706C65.3535 302.428 66.2312 302.269 67.0522 301.944C67.8731 301.619 68.6209 301.133 69.2517 300.516C69.8826 299.898 70.3837 299.16 70.7258 298.347C71.068 297.533 71.2442 296.659 71.2442 295.776C71.2442 294.893 71.068 294.02 70.7258 293.206C70.3837 292.392 69.8826 291.655 69.2517 291.037C68.6209 290.419 67.8731 289.933 67.0522 289.608C66.2312 289.283 65.3535 289.125 64.4706 289.143H29.087C26.689 289.166 24.3115 288.699 22.1003 287.771C20.0293 286.896 18.1946 285.543 16.7459 283.824C15.2971 282.105 14.2753 280.068 13.7638 277.879C13.2229 275.542 13.1659 273.119 13.5961 270.758L48.8092 66.6044C49.7733 61.0172 53.0627 55.8492 57.5314 52.0778C62.0001 48.3064 67.6426 45.9655 73.3214 45.9655H75.532V59.2293H73.3214C71.5618 59.2293 69.8742 59.928 68.63 61.1718C67.3858 62.4156 66.6868 64.1023 66.6868 65.8612C66.6868 67.6201 67.3858 69.307 68.63 70.5507C69.8742 71.7945 71.5618 72.4932 73.3214 72.4932H84.38V103.904H73.3214C71.561 103.904 69.8728 104.603 68.6281 105.847C67.3833 107.092 66.684 108.779 66.684 110.539C66.684 112.298 67.3833 113.986 68.6281 115.23C69.8728 116.475 71.561 117.174 73.3214 117.174H188.323C190.082 117.174 191.77 116.475 193.014 115.231C194.258 113.987 194.957 112.301 194.957 110.542C194.957 108.783 194.258 107.096 193.014 105.852C191.77 104.608 190.082 103.91 188.323 103.91H177.264V72.4932H188.323C190.082 72.4932 191.77 71.7945 193.014 70.5507C194.258 69.307 194.957 67.6201 194.957 65.8612C194.957 64.1023 194.258 62.4156 193.014 61.1718C191.77 59.928 190.082 59.2293 188.323 59.2293H186.109V45.9655H188.323C193.999 45.9655 199.644 48.3261 204.113 52.089C208.582 55.852 211.871 61.0088 212.835 66.6155L248.048 270.77C248.478 273.13 248.421 275.553 247.88 277.89C247.369 280.079 246.347 282.116 244.898 283.835C243.45 285.554 241.615 286.907 239.544 287.782C237.333 288.71 234.955 289.177 232.557 289.154H197.168C195.432 289.19 193.778 289.904 192.563 291.144C191.348 292.384 190.667 294.051 190.667 295.787C190.667 297.523 191.348 299.19 192.563 300.43C193.778 301.671 195.432 302.385 197.168 302.421H232.554C236.889 302.453 241.181 301.57 245.15 299.828C248.97 298.125 252.354 295.579 255.048 292.381C257.743 289.184 259.678 285.418 260.708 281.366C261.753 277.156 261.895 272.773 261.124 268.504ZM163.984 103.904H97.6352V72.4932H163.984V103.904ZM172.832 59.2293H88.7984V20.7954C94.2007 18.9997 99.7142 17.557 105.304 16.4766C122.151 13.1131 139.496 13.1131 156.343 16.4766C161.928 17.5561 167.435 18.9988 172.832 20.7954V59.2293Z" />
        <path
            d="M74.6599 139.55C73.0941 138.746 71.2731 138.595 69.5965 139.132C67.9198 139.668 66.5245 140.847 65.7169 142.411C57.5087 158.399 53.2275 176.111 53.2275 194.082C53.2275 212.053 57.5087 229.765 65.7169 245.753C66.2752 246.838 67.1218 247.747 68.1636 248.382C69.2054 249.017 70.402 249.352 71.622 249.351C72.1398 249.352 72.6558 249.291 73.1591 249.17C74.1394 248.937 75.0538 248.484 75.8329 247.845C76.612 247.206 77.2353 246.399 77.6555 245.483C78.0757 244.568 78.2818 243.569 78.2581 242.562C78.2344 241.555 77.9816 240.566 77.5188 239.672C70.2713 225.563 66.491 209.931 66.491 194.071C66.491 178.211 70.2713 162.579 77.5188 148.47C77.9187 147.695 78.1618 146.849 78.2342 145.98C78.3066 145.111 78.2069 144.237 77.9409 143.407C77.6748 142.576 77.2476 141.807 76.6836 141.142C76.1197 140.476 75.4301 139.929 74.6543 139.531L74.6599 139.55Z" />
        <path
            d="M188.479 249.175C187.96 249.05 187.458 248.862 186.984 248.617V248.628C186.208 248.229 185.518 247.682 184.954 247.017C184.39 246.352 183.963 245.582 183.697 244.752C183.431 243.922 183.331 243.047 183.404 242.178C183.476 241.309 183.719 240.463 184.119 239.688C191.367 225.579 195.147 209.948 195.147 194.088C195.147 178.227 191.367 162.595 184.119 148.487C183.35 146.926 183.225 145.126 183.77 143.474C184.316 141.822 185.489 140.451 187.036 139.655C188.584 138.859 190.382 138.702 192.044 139.219C193.706 139.735 195.098 140.883 195.921 142.416C204.129 158.405 208.41 176.117 208.41 194.088C208.41 212.058 204.129 229.771 195.921 245.759C195.363 246.843 194.516 247.753 193.474 248.387C192.433 249.022 191.236 249.358 190.016 249.357C189.498 249.358 188.982 249.297 188.479 249.175Z" />
        <path fill-rule="evenodd" clip-rule="evenodd"
            d="M203.028 386.415L194.907 321.481C194.707 319.877 193.928 318.402 192.716 317.332C191.504 316.262 189.942 315.672 188.325 315.673H177.267V282.586H188.325C190.085 282.586 191.773 281.887 193.017 280.644C194.261 279.4 194.96 277.713 194.96 275.954C194.96 274.195 194.261 272.508 193.017 271.265C191.773 270.021 190.085 269.322 188.325 269.322H73.3211C71.5615 269.322 69.874 270.021 68.6298 271.265C67.3855 272.508 66.6866 274.195 66.6866 275.954C66.6866 277.713 67.3855 279.4 68.6298 280.644C69.874 281.887 71.5615 282.586 73.3211 282.586H84.3797V315.673H73.3211C71.7041 315.673 70.1427 316.263 68.9302 317.332C67.7178 318.402 66.9378 319.877 66.7368 321.481L58.6155 386.415H37.9348C36.1984 386.45 34.5451 387.165 33.3297 388.405C32.1143 389.645 31.4336 391.312 31.4336 393.048C31.4336 394.784 32.1143 396.451 33.3297 397.691C34.5451 398.931 36.1984 399.646 37.9348 399.681H223.712C225.448 399.646 227.101 398.931 228.317 397.691C229.532 396.451 230.213 394.784 230.213 393.048C230.213 391.312 229.532 389.645 228.317 388.405C227.101 387.165 225.448 386.45 223.712 386.415H203.028ZM97.6349 282.586H163.984V315.673H97.6349V282.586ZM71.9797 386.415L79.19 328.926H182.479L189.667 386.404H72.0104L71.9797 386.415Z" />
        <path
            d="M110.516 254.852C110.516 254.852 85.5283 244.971 130.827 157.122C176.127 244.977 151.145 254.852 151.145 254.852L140.804 254.829C141.601 254.447 152.156 248.449 130.83 207.104C109.504 248.463 120.06 254.447 120.856 254.829L110.516 254.852Z" />
        <path d="M292.146 96.543H319.844V250.301H374.972V275.848H292.146V96.543Z" />
        <path
            d="M370.656 96.543L410.995 205.95V275.848H438.693V205.95L480.105 96.543H449.986L425.245 172.352L401.314 96.543H370.656Z" />
        <path
            d="M498.114 96.543H525.812V170.737L565.883 96.543H595.73L557.823 161.591L601.121 275.848H570.731L540.616 191.164L525.824 216.166V275.848H498.114V96.543Z" />
        <path d="M612.416 122.082H647.106V275.848H674.805V122.082H709.763V96.543H612.416V122.082Z" />
        <path fill-rule="evenodd" clip-rule="evenodd"
            d="M746.072 96.543H783.988L820.294 275.848H791.788L784.259 236.875H746.072L738.806 275.848H711.645L746.072 96.543ZM750.376 211.328H779.69L764.895 130.951L750.376 211.328Z" />
        <path fill-rule="evenodd" clip-rule="evenodd"
            d="M367.473 314.629H352.139L352.153 374.397H361.375V350.197H367.473C373.479 350.197 377.232 349.035 380.027 346.342C383.255 343.308 384.778 338.83 384.778 332.374C384.778 326.01 383.255 321.529 380.027 318.484C377.255 315.791 373.479 314.629 367.473 314.629ZM375.192 332.374C375.192 339.458 372.853 341.693 365.411 341.693L361.375 341.704V323.155H365.411C372.861 323.155 375.192 325.39 375.192 332.374Z" />
        <path fill-rule="evenodd" clip-rule="evenodd"
            d="M395.619 314.629H410.054C415.523 314.629 419.019 315.704 421.889 318.213C425.475 321.261 427.269 325.828 427.269 331.745C427.269 339.288 424.578 344.473 419.201 347.252L427.987 374.408H418.301L410.411 349.85H404.853V374.408H395.63L395.619 314.629ZM408.262 341.335C412.206 341.335 414 340.888 415.436 339.455C416.959 337.933 417.672 335.511 417.672 332.192C417.672 328.963 416.957 326.543 415.436 325.021C414 323.585 412.206 323.141 408.262 323.141H404.853V341.333L408.262 341.335Z" />
        <path fill-rule="evenodd" clip-rule="evenodd"
            d="M442.5 319.467C440.079 322.873 439.096 326.906 439.096 333.631V355.42C439.096 362.145 440.079 366.176 442.5 369.584C445.191 373.347 449.676 375.319 455.414 375.319C461.151 375.319 465.634 373.347 468.323 369.584C470.746 366.176 471.729 362.145 471.729 355.42V333.631C471.729 326.906 470.746 322.873 468.323 319.467C465.634 315.704 461.154 313.732 455.414 313.732C449.674 313.732 445.191 315.704 442.5 319.467ZM461.33 325.655C462.317 327.535 462.496 328.965 462.496 333.809V355.228C462.496 360.072 462.317 361.502 461.33 363.382C460.254 365.357 458.016 366.611 455.414 366.611C452.812 366.611 450.571 365.357 449.495 363.382C448.609 361.502 448.329 359.977 448.329 355.228V333.809C448.329 329.058 448.598 327.443 449.495 325.655C450.571 323.68 452.815 322.426 455.414 322.426C458.013 322.426 460.254 323.68 461.33 325.655Z" />
        <path fill-rule="evenodd" clip-rule="evenodd"
            d="M484.719 314.629H499.335C511.073 314.629 516.64 320.632 516.64 333.346V355.664C516.64 368.391 511.081 374.381 499.335 374.381H484.719V314.629ZM498.53 365.894C505.072 365.894 507.406 362.491 507.406 353.166V335.871C507.406 326.46 505.072 323.144 498.53 323.144H493.955V365.885L498.53 365.894Z" />
        <path
            d="M561.182 314.629H551.959L551.948 356.661C551.948 363.743 550.062 366.612 545.4 366.612C540.649 366.612 538.766 363.743 538.766 356.661V314.629H529.529V355.136C529.529 362.662 530.424 366.517 532.939 369.925C535.538 373.422 539.931 375.303 545.4 375.303C550.789 375.303 555.176 373.422 557.775 369.925C560.282 366.517 561.182 362.678 561.182 355.136V314.629Z" />
        <path
            d="M574.722 314.629H583.944V339.366L597.303 314.629H607.257L594.611 336.318L609.063 374.408H598.929L588.888 346.174L583.958 354.51V374.408H574.736L574.722 314.629Z" />
        <path d="M617.209 323.144H628.776V374.408H638.013V323.144H649.669V314.629H617.209V323.144Z" />
        <path d="M659.256 314.629H668.492V374.411H659.256V314.629Z" />
        <path fill-rule="evenodd" clip-rule="evenodd"
            d="M684.892 319.467C682.472 322.873 681.482 326.906 681.482 333.631V355.42C681.482 362.145 682.472 366.176 684.892 369.584C687.58 373.347 692.063 375.319 697.801 375.319C703.538 375.319 708.026 373.347 710.712 369.584C713.135 366.176 714.122 362.145 714.122 355.42V333.631C714.122 326.906 713.135 322.873 710.712 319.467C708.026 315.704 703.538 313.732 697.801 313.732C692.063 313.732 687.58 315.704 684.892 319.467ZM703.72 325.655C704.709 327.535 704.888 328.965 704.888 333.809V355.228C704.888 360.072 704.709 361.502 703.72 363.382C702.647 365.357 700.4 366.611 697.801 366.611C695.202 366.611 692.96 365.357 691.884 363.382C690.998 361.502 690.719 359.977 690.719 355.228V333.809C690.719 329.058 690.99 327.443 691.884 325.655C692.96 323.68 695.196 322.426 697.801 322.426C700.405 322.426 702.647 323.68 703.72 325.655Z" />
        <path
            d="M727.113 314.629H736.436L751.497 351.834V314.629H760.286V374.411H752.036L735.897 334.617V374.411H727.113V314.629Z" />
        <path fill-rule="evenodd" clip-rule="evenodd"
            d="M805.864 118.19H807.765V111.352H810.953L815.291 118.19H817.526L812.94 111.352C815.02 110.994 816.808 109.804 816.808 107.05C816.808 104.295 815.255 102.789 811.778 102.789H805.864V118.19ZM814.9 107.05C814.9 109.667 812.608 109.737 810.28 109.737H807.765V104.398H811.247C813.111 104.398 814.9 104.901 814.9 107.05Z" />
        <path fill-rule="evenodd" clip-rule="evenodd"
            d="M810.705 123.817C818.228 123.817 824.038 117.975 824.038 110.488C824.038 103.004 818.228 97.1631 810.705 97.1631C803.181 97.1631 797.371 103.002 797.371 110.488C797.371 117.975 803.181 123.817 810.705 123.817ZM810.699 121.917C804.246 121.917 799.445 116.863 799.445 110.488H799.45C799.45 104.116 804.246 99.0628 810.699 99.0628C817.152 99.0628 821.953 104.114 821.953 110.488C821.953 116.863 817.152 121.917 810.699 121.917Z" />
    </g>
</svg>