<svg width="1344" height="650" viewBox="0 0 1344 650" fill="none" xmlns="http://www.w3.org/2000/svg">
<g id="logo" fill="currentColor">
    <path d="M426.219 436.302L368.87 103.72C366.417 89.5031 358.329 76.6149 347.241 67.2764C336.153 57.9379 322.08 52.1582 307.643 52.1582H304.038V25.2122C304.037 23.092 303.413 21.0187 302.244 19.25C301.075 17.4813 299.411 16.0952 297.461 15.2639C296.728 14.9544 287.611 11.1407 272.801 7.39987C234.217 -2.46662 193.772 -2.46662 155.189 7.39987C140.378 11.1407 131.261 14.9544 130.528 15.2639C128.578 16.0962 126.916 17.4825 125.746 19.251C124.577 21.0195 123.953 23.0923 123.951 25.2122V52.1582H120.356C105.932 52.1582 91.8539 57.9425 80.7572 67.2764C69.6605 76.6104 61.5815 89.5031 59.1282 103.72L1.7788 436.302C0.525975 443.25 0.757089 450.384 2.45697 457.236C4.13509 463.837 7.28608 469.971 11.6736 475.18C16.0611 480.389 21.5713 484.537 27.7909 487.313C34.2548 490.151 41.2455 491.59 48.3047 491.537H105.941C107.379 491.566 108.808 491.309 110.145 490.779C111.482 490.249 112.7 489.458 113.728 488.451C114.755 487.445 115.571 486.244 116.128 484.918C116.686 483.592 116.973 482.169 116.973 480.73C116.973 479.292 116.686 477.869 116.128 476.543C115.571 475.217 114.755 474.016 113.728 473.01C112.7 472.003 111.482 471.212 110.145 470.682C108.808 470.153 107.379 469.895 105.941 469.924H48.3138C44.4082 469.962 40.5361 469.202 36.9349 467.69C33.562 466.263 30.574 464.06 28.2145 461.26C25.855 458.459 24.1908 455.141 23.3577 451.575C22.4768 447.767 22.3839 443.82 23.0846 439.975L80.434 107.393C82.0043 98.291 87.3615 89.8718 94.6394 83.728C101.917 77.5843 111.107 73.7706 120.356 73.7706H123.956V95.3784H120.356C117.49 95.3784 114.741 96.5167 112.715 98.5428C110.689 100.569 109.55 103.317 109.55 106.182C109.55 109.048 110.689 111.796 112.715 113.822C114.741 115.848 117.49 116.986 120.356 116.986H138.366V168.157H120.356C117.489 168.157 114.739 169.296 112.712 171.323C110.685 173.35 109.546 176.099 109.546 178.965C109.546 181.832 110.685 184.581 112.712 186.608C114.739 188.635 117.489 189.774 120.356 189.774H307.652C310.517 189.774 313.266 188.635 315.292 186.609C317.319 184.583 318.457 181.835 318.457 178.97C318.457 176.104 317.319 173.356 315.292 171.33C313.266 169.304 310.517 168.166 307.652 168.166H289.641V116.986H307.652C310.517 116.986 313.266 115.848 315.292 113.822C317.319 111.796 318.457 109.048 318.457 106.182C318.457 103.317 317.319 100.569 315.292 98.5428C313.266 96.5167 310.517 95.3784 307.652 95.3784H304.047V73.7706H307.652C316.896 73.7706 326.09 77.6161 333.368 83.7462C340.646 89.8763 346.003 98.2774 347.573 107.411L404.923 439.993C405.623 443.838 405.53 447.785 404.65 451.593C403.816 455.159 402.152 458.477 399.793 461.278C397.433 464.078 394.445 466.282 391.072 467.708C387.471 469.219 383.599 469.979 379.694 469.943H322.057C319.229 470.001 316.537 471.165 314.557 473.185C312.578 475.205 311.469 477.921 311.469 480.749C311.469 483.577 312.578 486.292 314.557 488.313C316.537 490.333 319.229 491.497 322.057 491.555H379.689C386.748 491.608 393.739 490.168 400.203 487.332C406.424 484.557 411.935 480.409 416.323 475.2C420.712 469.991 423.863 463.856 425.541 457.255C427.243 450.396 427.474 443.256 426.219 436.302ZM268.03 168.157H159.954V116.986H268.012V168.157H268.03ZM282.436 95.3784H145.562V32.7667C154.361 29.8414 163.34 27.4912 172.443 25.731C199.881 20.2517 228.131 20.2517 255.568 25.731C264.663 27.4896 273.634 29.8399 282.422 32.7667V95.3784H282.436Z" />
    <path d="M122.535 226.226C119.985 224.916 117.02 224.67 114.289 225.544C111.558 226.418 109.286 228.339 107.97 230.886C94.6024 256.932 87.6299 285.787 87.6299 315.063C87.6299 344.338 94.6024 373.193 107.97 399.239C108.88 401.005 110.259 402.487 111.955 403.521C113.652 404.555 115.601 405.102 117.588 405.1C118.431 405.101 119.271 405.002 120.091 404.805C121.688 404.425 123.177 403.687 124.446 402.647C125.715 401.606 126.73 400.29 127.414 398.799C128.099 397.308 128.434 395.68 128.396 394.039C128.357 392.399 127.945 390.789 127.192 389.331C115.388 366.347 109.231 340.882 109.231 315.044C109.231 289.207 115.388 263.742 127.192 240.757C127.843 239.495 128.239 238.117 128.357 236.701C128.475 235.286 128.312 233.861 127.879 232.509C127.446 231.156 126.75 229.902 125.831 228.819C124.913 227.735 123.79 226.843 122.526 226.194L122.535 226.226Z" />
    <path d="M305.471 403.904C306.243 404.304 307.061 404.61 307.906 404.814C308.726 405.012 309.566 405.111 310.41 405.11C312.397 405.111 314.346 404.564 316.042 403.53C317.739 402.496 319.118 401.015 320.027 399.248C333.395 373.202 340.368 344.348 340.368 315.072C340.368 285.796 333.395 256.942 320.027 230.896C318.687 228.399 316.419 226.528 313.712 225.687C311.006 224.845 308.077 225.1 305.557 226.397C303.036 227.694 301.126 229.928 300.238 232.619C299.349 235.31 299.553 238.243 300.806 240.785C312.609 263.769 318.766 289.235 318.766 315.072C318.766 340.909 312.609 366.375 300.806 389.359C300.155 390.621 299.759 392 299.641 393.415C299.523 394.83 299.685 396.255 300.118 397.608C300.552 398.96 301.248 400.214 302.166 401.298C303.085 402.381 304.208 403.273 305.471 403.922V403.904Z" />
    <path d="M331.602 628.388L318.375 522.606C318.05 519.993 316.781 517.589 314.806 515.847C312.832 514.104 310.289 513.143 307.656 513.145H289.646V459.244H307.656C310.522 459.244 313.27 458.105 315.297 456.079C317.323 454.053 318.461 451.305 318.461 448.44C318.461 445.574 317.323 442.826 315.297 440.8C313.27 438.774 310.522 437.636 307.656 437.636H120.356C117.49 437.636 114.741 438.774 112.715 440.8C110.689 442.826 109.55 445.574 109.55 448.44C109.55 451.305 110.689 454.053 112.715 456.079C114.741 458.105 117.49 459.244 120.356 459.244H138.366V513.145H120.356C117.722 513.144 115.179 514.106 113.204 515.848C111.23 517.59 109.959 519.993 109.632 522.606L96.4053 628.388H62.7239C59.8959 628.446 57.2033 629.61 55.2239 631.63C53.2444 633.65 52.1357 636.366 52.1357 639.194C52.1357 642.022 53.2444 644.738 55.2239 646.758C57.2033 648.778 59.8959 649.942 62.7239 650H365.288C368.116 649.942 370.808 648.778 372.788 646.758C374.767 644.738 375.876 642.022 375.876 639.194C375.876 636.366 374.767 633.65 372.788 631.63C370.808 629.61 368.116 628.446 365.288 628.388H331.602ZM159.954 459.244H268.012V513.145H159.954V459.244ZM118.171 628.388L129.914 534.734H298.134L309.841 628.37H118.221L118.171 628.388Z" />
    <path d="M214.012 254.852V254.874C214.013 254.867 214.013 254.859 214.012 254.852C140.236 397.965 180.931 414.061 180.931 414.061L197.772 414.025C196.475 413.401 179.284 403.653 214.016 336.277C248.749 403.631 231.558 413.401 230.261 414.025L247.102 414.061C247.102 414.061 287.788 397.974 214.012 254.852Z" />
    <path d="M476.741 156.165H521.852V406.648H611.635V448.266H476.741V156.165Z" />
    <path d="M670.304 334.398L604.607 156.165H654.538L693.513 279.664L733.808 156.165H782.86L715.415 334.398V448.266H670.304V334.398Z" />
    <path d="M812.189 156.165H857.3V277.033L922.56 156.165H971.17L909.433 262.133L979.95 448.266H930.457L881.409 310.309L857.318 351.04V448.266H812.189V156.165Z" />
    <path d="M1054.85 197.77H998.348V156.165H1156.89V197.77H1099.96V448.266H1054.85V197.77Z" />
    <path d="M1216.03 156.165H1277.78L1336.91 448.266H1290.48L1278.22 384.776H1216.03L1204.19 448.266H1159.96L1216.03 156.165ZM1223.03 343.158H1270.78L1246.68 212.219L1223.03 343.158Z" />
    <path d="M574.449 511.442H599.424C609.205 511.442 615.354 513.336 619.869 517.723C625.126 522.683 627.607 529.983 627.607 540.35C627.607 550.867 625.126 558.162 619.869 563.105C615.318 567.492 609.205 569.385 599.424 569.385H589.492V608.81H574.472L574.449 511.442ZM596.065 555.532C608.185 555.532 611.995 551.891 611.995 540.35C611.995 528.973 608.199 525.332 596.065 525.332H589.492V555.55L596.065 555.532Z" />
    <path d="M645.262 511.442H668.77C677.678 511.442 683.372 513.195 688.046 517.281C693.886 522.246 696.808 529.687 696.808 539.326C696.808 551.613 692.425 560.06 683.668 564.588L697.978 608.828H682.202L669.353 568.82H660.3V608.828H645.28L645.262 511.442ZM665.853 554.949C672.275 554.949 675.197 554.221 677.537 551.886C680.017 549.406 681.178 545.461 681.178 540.054C681.178 534.793 680.013 530.852 677.537 528.372C675.197 526.033 672.275 525.309 665.853 525.309H660.3V554.945L665.853 554.949Z" />
    <path d="M716.07 542.398C716.07 531.444 717.672 524.872 721.614 519.325C725.997 513.194 733.298 509.981 742.647 509.981C751.996 509.981 759.292 513.194 763.67 519.325C767.617 524.872 769.219 531.444 769.219 542.398V577.895C769.219 588.849 767.617 595.416 763.67 600.968C759.292 607.098 751.991 610.311 742.647 610.311C733.303 610.311 725.997 607.098 721.614 600.968C717.672 595.416 716.07 588.849 716.07 577.895V542.398ZM754.181 542.689C754.181 534.798 753.889 532.468 752.282 529.405C750.53 526.187 746.88 524.144 742.647 524.144C738.414 524.144 734.759 526.187 733.007 529.405C731.546 532.317 731.109 534.948 731.109 542.689V577.581C731.109 585.318 731.564 587.802 733.007 590.865C734.759 594.083 738.409 596.126 742.647 596.126C746.884 596.126 750.53 594.083 752.282 590.865C753.889 587.802 754.181 585.472 754.181 577.581V542.689Z" />
    <path d="M790.374 511.442H814.179C833.295 511.442 842.362 521.222 842.362 541.934V578.291C842.362 599.025 833.309 608.782 814.179 608.782H790.374V511.442ZM812.868 594.956C823.523 594.956 827.323 589.413 827.323 574.222V546.048C827.323 530.716 823.523 525.314 812.868 525.314H805.417V594.943L812.868 594.956Z" />
    <path d="M899.884 511.442H914.904V577.431C914.904 589.718 913.439 595.971 909.356 601.523C905.123 607.221 897.977 610.284 889.202 610.284C880.294 610.284 873.139 607.221 868.906 601.523C864.81 595.971 863.354 589.691 863.354 577.431V511.442H878.396V579.916C878.396 591.452 881.464 596.126 889.202 596.126C896.794 596.126 899.866 591.452 899.866 579.916L899.884 511.442Z" />
    <path d="M936.957 511.442H951.977V551.741L973.733 511.442H989.946L969.35 546.776L992.886 608.828H976.382L960.029 562.831L952 576.411V608.828H936.98L936.957 511.442Z" />
    <path d="M1024.99 525.314H1006.15V511.442H1059.02V525.314H1040.04V608.828H1024.99V525.314Z" />
    <path d="M1074.63 511.442H1089.67V608.832H1074.63V511.442Z" />
    <path d="M1110.83 542.398C1110.83 531.444 1112.44 524.872 1116.38 519.325C1120.76 513.194 1128.06 509.981 1137.41 509.981C1146.75 509.981 1154.06 513.194 1158.43 519.325C1162.38 524.872 1163.99 531.444 1163.99 542.398V577.895C1163.99 588.849 1162.38 595.416 1158.43 600.968C1154.06 607.098 1146.75 610.311 1137.41 610.311C1128.06 610.311 1120.76 607.098 1116.38 600.968C1112.44 595.416 1110.83 588.849 1110.83 577.895V542.398ZM1148.95 542.689C1148.95 534.798 1148.66 532.468 1147.05 529.405C1145.3 526.187 1141.65 524.144 1137.41 524.144C1133.16 524.144 1129.52 526.187 1127.77 529.405C1126.31 532.317 1125.87 534.948 1125.87 542.689V577.581C1125.87 585.318 1126.33 587.802 1127.77 590.865C1129.52 594.083 1133.17 596.126 1137.41 596.126C1141.64 596.126 1145.3 594.083 1147.05 590.865C1148.66 587.802 1148.95 585.472 1148.95 577.581V542.689Z" />
    <path d="M1185.15 511.442H1200.33L1224.86 572.052V511.442H1239.18V608.832H1225.74L1199.45 544.004V608.832H1185.15V511.442Z" />
    <path d="M1343.01 178.884C1343.01 191.08 1333.54 200.596 1321.29 200.596C1309.04 200.596 1299.57 191.08 1299.57 178.884C1299.57 166.687 1309.04 157.176 1321.29 157.176C1333.54 157.176 1343.01 166.692 1343.01 178.884ZM1302.95 178.884C1302.95 189.269 1310.77 197.502 1321.28 197.502C1331.79 197.502 1339.61 189.269 1339.61 178.884C1339.61 168.498 1331.79 160.27 1321.28 160.27C1310.77 160.27 1302.96 168.503 1302.96 178.884H1302.95ZM1316.5 191.431H1313.41V166.341H1323.04C1328.7 166.341 1331.23 168.794 1331.23 173.282C1331.23 177.769 1328.32 179.707 1324.93 180.29L1332.4 191.431H1328.76L1321.69 180.29H1316.5V191.431ZM1320.6 177.66C1324.39 177.66 1328.12 177.546 1328.12 173.282C1328.12 169.782 1325.21 168.963 1322.17 168.963H1316.5V177.66H1320.6Z" />
</g>
</svg>
