<svg xmlns="http://www.w3.org/2000/svg" viewBox="0 0 464.24 56.05">
    <title>Panang Kommunikation logotyp</title>
    <g id="logo" fill="currentColor">
        <path
            d="M632,238.62a25.24,25.24,0,0,0-19,8.23,29,29,0,0,0,0,39.63,25.29,25.29,0,0,0,19,8.19q10.44,0,18.54-8.09V267.08h-6.79v16.56A17.66,17.66,0,0,1,632,287.54a18.83,18.83,0,0,1-14.09-6.1,21.52,21.52,0,0,1,0-29.52,18.83,18.83,0,0,1,14.09-6.1A24.24,24.24,0,0,1,648,251.93l2.47-7.13A30.25,30.25,0,0,0,632,238.62Z"
            transform="translate(-186.27 -238.62)" class="cls-1"></path>
        <path d="M455.68,239.21l20,54.85h-7.54l-14.37-39.21h0l-14.26,39.21h-7.58l20-54.85h3.84Z"
            transform="translate(-186.27 -238.62)" class="cls-1"></path>
        <path d="M280.09,239.24l20,54.85H292.5l-14.37-39.2h0l-14.26,39.2H256.3l20-54.85h3.84Z"
            transform="translate(-186.27 -238.62)" class="cls-1"></path>
        <path d="M349,239.24h6.48l22.63,39.15V239.24h7.13V294.1h-6.2l-22.94-39.63V294.1H349V239.24Z"
            transform="translate(-186.27 -238.62)" class="cls-1"></path>
        <path d="M524.64,239.24h6.48l22.63,39.15V239.24h7.13V294.1h-6.2l-22.93-39.63V294.1h-7.1V239.24Z"
            transform="translate(-186.27 -238.62)" class="cls-1"></path>
        <path
            d="M218.46,257.86A18,18,0,0,0,213,244.7a19,19,0,0,0-11.18-5.45H186.27V294.1h7.1V276.54h0v-7.13h0v-23h6.48A11.52,11.52,0,0,1,208,266a12.2,12.2,0,0,1-2.31,1.81l2.52,6.78a18.87,18.87,0,0,0,4.85-3.54A18,18,0,0,0,218.46,257.86Z"
            transform="translate(-186.27 -238.62)" class="cls-1"></path>
    </g>
</svg>