<svg id="Lager_1" data-name="Lager 1" xmlns="http://www.w3.org/2000/svg" viewBox="0 0 464.24 109.46">
    <g id="logo" fill="currentColor">
        <path
            d="M528.37,336c-5.54,0-9.1-3.93-9.1-9.65,0-6.82,4.67-9.66,9.18-9.66,5.1,0,9.15,3.49,9.15,9.47C537.6,331.72,534.4,336,528.37,336Zm.08-17.33c-4.59,0-6.55,3.57-6.55,7.7,0,3.85,1.88,7.7,6.57,7.7,4.9,0,6.52-4.11,6.5-7.88C534.94,321.78,532.65,318.71,528.45,318.71Z"
            transform="translate(-179.27 -226.62)" />
        <path d="M266.31,326.58l-2.44,2.63v6.4h-2.29V317.25h2.29v9l8.18-9h2.83l-7,7.59,7.28,10.77h-2.79Z"
            transform="translate(-179.27 -226.62)" />
        <path
            d="M291.18,336.08c-5.55,0-9.1-3.93-9.1-9.65,0-6.82,4.66-9.65,9.17-9.65,5.11,0,9.16,3.48,9.16,9.46C300.41,331.76,297.21,336.08,291.18,336.08Zm.07-17.33c-4.58,0-6.54,3.57-6.54,7.7,0,3.85,1.88,7.7,6.57,7.7,4.9,0,6.52-4.11,6.5-7.88C297.75,321.82,295.46,318.75,291.25,318.75Z"
            transform="translate(-179.27 -226.62)" />
        <path
            d="M327.62,317.25v18.36h-2.27l.32-15.4-5.44,15.4h-1.79l-5.34-15.17.24,15.17h-2.25V317.25h3l5.3,15.05,5.32-15.05Z"
            transform="translate(-179.27 -226.62)" />
        <path
            d="M356.84,317.25v18.36h-2.27l.32-15.4-5.44,15.4h-1.79l-5.34-15.17.24,15.17h-2.25V317.25h3l5.3,15.05,5.32-15.05Z"
            transform="translate(-179.27 -226.62)" />
        <path
            d="M382.36,317.22V329a11.19,11.19,0,0,1-.22,2.39c-.49,2.21-2.42,4.71-6.45,4.71a6.23,6.23,0,0,1-5.29-2.45c-1.15-1.56-1.13-2.93-1.13-5V317.22h2.32v11c0,1.69,0,3.12.88,4.29a3.86,3.86,0,0,0,3.22,1.44,4,4,0,0,0,4.13-3.05,11.88,11.88,0,0,0,.22-2.73v-11Z"
            transform="translate(-179.27 -226.62)" />
        <path d="M409,317.25v18.36H407l-9.45-14.93.2,14.93h-2.15V317.25h2.15L407.06,332l-.1-14.72Z"
            transform="translate(-179.27 -226.62)" />
        <path d="M424.42,317.25v18.36H422.1V317.25Z" transform="translate(-179.27 -226.62)" />
        <path d="M442.57,326.58l-2.44,2.63v6.4h-2.3V317.25h2.3v9l8.18-9h2.83l-7,7.59,7.27,10.77h-2.78Z"
            transform="translate(-179.27 -226.62)" />
        <path d="M470.91,330h-6.57l-1.93,5.62H460l6.57-18.36h2.39l6.28,18.36h-2.42Zm-.69-2.06-2.51-7.64-2.64,7.64Z"
            transform="translate(-179.27 -226.62)" />
        <path d="M489.45,319.38v16.23h-2.32V319.38H482v-2.16H494.6v2.16Z" transform="translate(-179.27 -226.62)" />
        <path d="M508.36,317.25v18.36H506V317.25Z" transform="translate(-179.27 -226.62)" />
        <path d="M561.51,317.25v18.36h-2.08L550,320.68l.19,14.93H548V317.25h2.15L559.53,332l-.1-14.72Z"
            transform="translate(-179.27 -226.62)" />
        <path
            d="M625,226.62a25.23,25.23,0,0,0-19,8.23,29,29,0,0,0,0,39.63,25.3,25.3,0,0,0,19,8.19q10.44,0,18.54-8.09v-19.5h-6.79v16.55A17.66,17.66,0,0,1,625,275.54a18.81,18.81,0,0,1-14.09-6.1,21.52,21.52,0,0,1,0-29.52,18.81,18.81,0,0,1,14.09-6.1A24.24,24.24,0,0,1,641,239.93l2.47-7.13A30.26,30.26,0,0,0,625,226.62Z"
            transform="translate(-179.27 -226.62)" />
        <path d="M448.68,227.21l20,54.85h-7.55l-14.37-39.2h0l-14.25,39.2h-7.58l19.95-54.85Z"
            transform="translate(-179.27 -226.62)" />
        <path d="M273.09,227.24l20,54.86H285.5l-14.37-39.21h0L256.88,282.1H249.3l19.95-54.86Z"
            transform="translate(-179.27 -226.62)" />
        <path d="M342,227.24h6.48l22.62,39.16V227.24h7.14V282.1h-6.21l-22.94-39.63V282.1H342Z"
            transform="translate(-179.27 -226.62)" />
        <path d="M517.64,227.24h6.48l22.63,39.16V227.24h7.13V282.1h-6.21l-22.93-39.63V282.1h-7.1Z"
            transform="translate(-179.27 -226.62)" />
        <path
            d="M211.46,245.86A18,18,0,0,0,206,232.7a19,19,0,0,0-11.17-5.46H179.27V282.1h7.1V264.54h0v-7.12h0V234.37h6.48A11.53,11.53,0,0,1,201,254a12.44,12.44,0,0,1-2.31,1.8l2.51,6.78a18.89,18.89,0,0,0,4.85-3.54A18,18,0,0,0,211.46,245.86Z"
            transform="translate(-179.27 -226.62)" />
    </g>
</svg>