<svg width="1138" height="528" viewBox="0 0 1138 528" fill="none" xmlns="http://www.w3.org/2000/svg">
<g id="logo" fill="currentColor">
    <path d="M160.085 226.944C148.701 215.085 133.533 207.575 117.202 205.708C95.2446 202.912 75.1715 207.327 58.3359 225.193C57.1733 218.026 56.3492 212.934 55.5251 207.783C38.3952 212.595 21.6773 217.452 4.97422 221.896C-2.73718 223.927 0.853626 229.343 0.721178 233.669C0.58873 238.967 3.66446 239.997 8.07938 239.011C20.1763 236.289 24.0614 241.955 24.9002 253.316C28.962 308.257 33.3769 363.198 38.145 418.139C39.1457 429.809 32.9501 433.724 22.9577 434.548C13.5244 435.328 18.2337 442.215 17.7333 446.616C16.9975 452.752 21.3094 451.663 25.2387 451.251C48.9616 448.794 72.6844 446.204 96.5838 445.953C98.9237 445.953 101.867 447.072 102.882 443.084C104.928 435.004 100.572 428.735 91.904 429.029C81.7791 429.368 76.3488 425.718 75.716 415.019C74.5534 394.711 72.7727 374.446 71.3011 353.019C113.581 368.972 149.828 359.156 170.298 327.442C189.827 296.95 185.368 252.904 160.085 226.944ZM133.345 320.04C124.913 340.319 99.6449 347.28 80.6165 336.051C70.786 330.253 69.1819 320.452 68.0193 310.724C66.5476 297.612 65.9001 284.367 65.076 274.287C64.7228 262.852 64.4285 254.478 67.828 246.62C73.067 234.39 82.5444 227.577 95.7009 226.355C109.784 225.001 121.572 230.211 128.312 242.543C141.954 267.429 144.294 293.727 133.345 320.04Z" />
    <path d="M187.855 147.298C187.901 143.508 188.694 139.766 190.189 136.283C191.683 132.801 193.85 129.648 196.565 127.004C199.28 124.36 202.489 122.278 206.01 120.877C209.53 119.475 213.293 118.782 217.082 118.836C224.81 118.863 232.211 121.959 237.656 127.443C243.101 132.927 246.145 140.349 246.117 148.077C246.09 155.806 242.994 163.206 237.51 168.651C232.026 174.097 224.604 177.14 216.876 177.113C212.985 177.158 209.125 176.411 205.532 174.918C201.938 173.426 198.685 171.218 195.971 168.429C193.257 165.641 191.138 162.33 189.743 158.697C188.348 155.064 187.705 151.186 187.855 147.298Z" />
    <path d="M249.385 200.175C253.8 235.803 258.671 271.373 263.233 306.987C265.352 323.616 265.793 324.646 282.629 324.573C291.459 324.573 288.015 331.121 289.516 334.874C291.429 339.657 288.942 341.438 283.998 341.776C261.314 343.302 238.748 346.251 216.435 350.606C211.534 351.592 207.443 351.518 206.869 344.793C206.413 339.377 205.074 334.359 213.197 333.564C224.97 332.431 227.501 325.632 225.721 314.433C221.615 288.694 218.76 262.749 215.228 236.922C214.36 230.55 213.874 223.294 203.572 225.311C199.481 223 192.094 231.874 189.577 220.793C187.958 213.655 188.959 209.947 196.67 207.769C210.872 203.766 224.941 199.233 238.656 193.891C246.206 190.918 248.457 192.566 249.385 200.175Z" />
    <path d="M279.45 207.223C278.92 203.147 275.55 198.673 280.377 194.655C294.328 183.132 305.895 169.991 310.045 151.654C311.252 146.43 316.447 147.092 320.347 146.636C325.983 145.988 324.555 150.742 325.144 153.655C326.845 161.013 328.156 168.455 329.073 175.951C329.633 182.367 332.532 183.309 338.036 182.043C343.922 180.675 349.985 180.071 355.857 178.644C364.246 176.569 367.719 178.82 368.852 188.092C369.705 194.979 367.998 196.627 362.053 197.378C354.945 198.261 347.91 200.174 340.773 200.748C334.312 201.278 333.768 204.03 334.769 209.666C339.419 235.655 343.598 261.762 348.013 287.825C348.308 289.664 348.896 291.474 349.294 293.314C350.839 300.569 352.914 307.854 361.523 309.178C370.471 310.562 377.108 305.911 380.772 298.156C384.113 291.121 387.027 288.384 394.944 293.226C401.022 296.92 400.124 300.437 398.343 305.367C392.369 321.864 373.841 332.18 349.882 332.195C327.631 332.195 315.108 321.378 311.296 298.862C306.763 272.093 301.966 245.339 297.786 218.496C296.771 211.815 295.579 207.738 287.485 209.784C284.924 210.446 280.156 212.756 279.45 207.223Z" />
    <path d="M413.34 174.848C433.943 152.126 459.947 143.62 490.042 146.489C496.929 147.152 503.39 149.433 508.408 154.495C515.457 161.662 515.766 173.259 509.144 180.102C502.522 186.945 492.205 186.901 484.847 179.057C477.989 171.699 473.266 162.059 460.08 167.387C446.423 172.891 438.829 182.618 436.121 196.569C435.106 201.735 434.65 207.003 434.238 209.976C434.591 225.237 436.828 237.937 441.596 249.902C447.571 265.118 455.782 278.79 474.207 280.968C493.545 283.264 507.761 274.61 518.357 258.982C521.02 255.052 521.889 249.696 529.85 253.801C539.784 258.893 539.636 263.338 533.941 271.461C509.63 306.236 454.767 315.228 421.876 289.415C388.057 262.955 383.907 207.253 413.34 174.848Z" />
    <path d="M498.489 69.7864C497.782 66.0632 495.016 61.7512 500.637 59.014C516.605 51.229 532.484 43.2674 548.407 35.4677C554.455 32.5245 554.205 37.2926 555.162 40.8687C562.741 68.9181 570.364 96.9382 578.531 127.033C591.644 107.696 608.376 98.0566 629.538 95.7167C656.028 92.7734 674.335 104.547 681.767 130.477C688.213 152.949 694.32 175.538 699.824 198.261C702.561 209.563 707.991 215.243 719.735 211.432C728.889 208.488 727.093 216.009 729.006 220.114C731.655 225.913 728.02 227.237 723.341 228.194C701.47 232.618 679.886 238.358 658.706 245.382C654.806 246.707 650.377 248.708 649.302 242.071C648.552 237.436 643.74 231.593 652.54 229.474C665.373 226.398 666.624 218.451 663.239 207.164C656.837 185.869 651.701 164.177 645.182 142.912C640.046 126.209 630.936 118.468 619.958 119.248C606.448 120.234 591.349 134.421 589.053 148.681C587.582 157.408 589.054 166.046 591.217 174.494C595.632 191.668 600.532 208.724 604.8 226.001C607.14 235.464 612.6 239.82 622.048 237.244C630.259 234.993 632.202 239.157 633.938 245.75C636.146 254.153 629.803 253.212 625.535 254.153C604.456 258.687 583.628 264.322 563.138 271.033C559.164 272.358 554.234 274.962 553.042 267.413C552.204 262.203 548.392 256.714 557.796 254.698C567.465 252.623 571.217 246.398 568.377 236.126C555.265 188.489 542.697 140.69 529.393 93.0677C524.434 75.2756 523.757 75.2168 504.934 75.8643C499.975 75.879 499.107 73.0387 498.489 69.7864Z" />
    <path d="M855.7 160.528C846.311 154.289 846.87 163.604 844.751 167.239C825.811 199.954 790.845 201.087 770.095 169.579C764.862 161.275 761.076 152.144 758.896 142.574C756.983 135.04 758.646 132.008 766.651 130.478C792.302 125.548 817.732 119.793 843.265 114.363C855.318 111.817 856.922 108.977 853.037 97.0271C847.356 79.544 835.377 68.2713 818.203 62.5466C767.814 45.7846 716.483 84.2533 716.321 138.792C716.233 175.407 737.307 204.118 770.963 213.154C806.459 222.69 843.545 207.783 861.866 178.1C868.165 167.96 862.779 165.149 855.7 160.528ZM757.277 105.828C758.749 89.1538 771.096 77.8664 788.991 77.9547C791.904 77.6452 794.849 78.0367 797.581 79.0965C800.312 80.1564 802.751 81.8538 804.693 84.0473C808.52 88.1531 812.758 93.3333 811.625 98.8814C810.491 104.429 803.575 102.781 799.145 103.841C787.372 106.652 775.599 108.889 763.929 111.788C758.072 113.274 756.747 111.464 757.277 105.828Z" />
    <path d="M881.278 55.9385C893.492 55.0408 905.148 51.5235 916.464 47.3146C926.766 43.5178 931.063 46.7996 932.093 56.8509C932.329 59.0584 932.829 61.2658 933.565 65.1215C949.282 49.2425 966.294 41.6783 987.074 46.5494C998.729 49.3161 1006.21 58.7346 1004.73 68.3002C1003.63 75.3936 1000.04 81.1035 992.416 83.0166C984.572 85.0034 978.524 82.3544 973.579 75.9675C965.382 65.3717 961.158 65.1068 950.798 73.7748C943.44 79.9998 940.496 88.4911 939.275 97.6447C936.199 121.397 939.275 145.193 938.716 168.96C938.524 177.687 943.793 180.969 951.857 180.807C958.877 180.675 964.146 181.249 963.734 191.006C963.307 201.94 955.772 198.29 950.842 198.084C929.238 197.128 907.679 198.084 886.09 198.923C881.969 199.085 877.157 199.968 878.069 193.198C878.673 188.783 875.214 182.897 884.427 181.926C899.923 180.174 900.998 177.82 900.615 162.191C900.041 137.173 900.615 112.317 899.055 87.3727C898.378 76.3501 894.184 71.1846 882.867 73.0683C877.937 73.9072 875.317 72.2295 876.156 67.1818C876.833 63.0906 872.772 56.5418 881.278 55.9385Z" />
    <path d="M1022.36 59.2356C1019.42 55.9391 1020.76 53.349 1024.48 51.3182C1031.09 47.6685 1037.73 43.8423 1041.64 36.0867C1027.31 29.6262 1022.51 20.8405 1027.01 10.4655C1030.74 1.85636 1042.16 -2.63215 1051.1 1.63561C1061.3 6.49202 1064.48 15.8516 1064.04 26.1826C1063.36 43.18 1046.25 62.0317 1029.57 65.8138C1023.29 67.2119 1024.45 61.6197 1022.36 59.2356Z" />
    <path d="M1087.32 251.034C1087.32 251.181 1087.32 251.313 1087.32 251.446C1087.52 251.311 1087.73 251.189 1087.94 251.078C1087.69 251.063 1087.5 251.063 1087.32 251.034ZM1087.32 251.034C1087.32 251.181 1087.32 251.313 1087.32 251.446C1087.52 251.311 1087.73 251.189 1087.94 251.078C1087.69 251.063 1087.5 251.063 1087.32 251.034ZM1087.32 251.034C1087.32 251.181 1087.32 251.313 1087.32 251.446C1087.52 251.311 1087.73 251.189 1087.94 251.078C1087.69 251.063 1087.5 251.063 1087.32 251.034ZM1087.32 251.034C1087.32 251.181 1087.32 251.313 1087.32 251.446C1087.52 251.311 1087.73 251.189 1087.94 251.078C1087.69 251.063 1087.5 251.063 1087.32 251.034ZM1087.32 251.034C1087.32 251.181 1087.32 251.313 1087.32 251.446C1087.52 251.311 1087.73 251.189 1087.94 251.078C1087.69 251.063 1087.5 251.063 1087.32 251.034ZM1087.32 251.034C1087.32 251.181 1087.32 251.313 1087.32 251.446C1087.52 251.311 1087.73 251.189 1087.94 251.078C1087.69 251.063 1087.5 251.063 1087.32 251.034ZM1087.32 251.034C1087.32 251.181 1087.32 251.313 1087.32 251.446C1087.52 251.311 1087.73 251.189 1087.94 251.078C1087.69 251.063 1087.5 251.063 1087.32 251.034ZM1090.37 242.072C1086.5 242.302 1082.79 243.665 1079.69 245.993C1076.59 248.32 1074.25 251.509 1072.95 255.159C1071.66 258.81 1071.47 262.762 1072.4 266.521C1073.34 270.28 1075.36 273.68 1078.22 276.297C1081.07 278.914 1084.64 280.632 1088.46 281.236C1092.29 281.84 1096.21 281.303 1099.73 279.693C1103.26 278.083 1106.23 275.471 1108.28 272.182C1110.33 268.894 1111.36 265.075 1111.25 261.203C1111.16 258.567 1110.55 255.975 1109.45 253.579C1108.34 251.183 1106.77 249.031 1104.83 247.249C1102.88 245.468 1100.6 244.092 1098.12 243.203C1095.64 242.314 1093 241.929 1090.37 242.072ZM1101.04 271.24C1096.83 265.515 1099.57 259.128 1099.39 253.035C1099.22 253.02 1099.05 252.991 1098.89 252.947C1095.21 252.358 1091.53 251.755 1087.87 251.137C1087.69 251.137 1087.5 251.137 1087.32 251.137C1087.15 251.137 1087.32 251.417 1087.32 251.549C1080.48 255.699 1083.44 262.101 1083.63 267.84C1083.72 268.977 1083.62 270.121 1083.33 271.225C1088.65 265.338 1093.83 266.589 1099.05 271.387C1099.39 271.725 1100.24 271.519 1100.92 271.49C1094.15 279.451 1087.4 278.333 1080.61 271.387C1074.56 264.028 1074.8 257.097 1082.19 250.784C1088.93 245.707 1095.27 243.72 1100.35 252.859C1108.9 258.569 1107.14 264.794 1101.04 271.24ZM1087.32 251.093C1087.32 251.24 1087.32 251.372 1087.32 251.505C1087.52 251.37 1087.73 251.248 1087.94 251.137C1087.69 251.063 1087.5 251.063 1087.32 251.034V251.093ZM1087.32 251.093C1087.32 251.24 1087.32 251.372 1087.32 251.505C1087.52 251.37 1087.73 251.248 1087.94 251.137C1087.69 251.063 1087.5 251.063 1087.32 251.034V251.093ZM1087.32 251.093C1087.32 251.24 1087.32 251.372 1087.32 251.505C1087.52 251.37 1087.73 251.248 1087.94 251.137C1087.69 251.063 1087.5 251.063 1087.32 251.034V251.093ZM1087.32 251.093C1087.32 251.24 1087.32 251.372 1087.32 251.505C1087.52 251.37 1087.73 251.248 1087.94 251.137C1087.69 251.063 1087.5 251.063 1087.32 251.034V251.093ZM1087.32 251.093C1087.32 251.24 1087.32 251.372 1087.32 251.505C1087.52 251.37 1087.73 251.248 1087.94 251.137C1087.69 251.063 1087.5 251.063 1087.32 251.034V251.093ZM1087.32 251.093C1087.32 251.24 1087.32 251.372 1087.32 251.505C1087.52 251.37 1087.73 251.248 1087.94 251.137C1087.69 251.063 1087.5 251.063 1087.32 251.034V251.093ZM1087.32 251.093C1087.32 251.24 1087.32 251.372 1087.32 251.505C1087.52 251.37 1087.73 251.248 1087.94 251.137C1087.69 251.063 1087.5 251.063 1087.32 251.034V251.093Z" />
    <path d="M340.463 407.47C337.123 412.812 331.898 414.048 326.998 414.475C318.006 415.299 316.137 421.068 315.799 428.308C315.534 433.371 311.928 449.883 309.912 453.812C306.513 460.331 301.156 463.51 294.004 461.17C288.117 459.228 286.042 454.474 287.955 448.44C288.735 445.924 289.692 442.804 293.091 443.687C296.491 444.57 294.563 447.219 293.945 449.191C293.692 449.809 293.573 450.474 293.596 451.142C293.619 451.809 293.784 452.464 294.078 453.064C294.373 453.663 294.792 454.193 295.307 454.619C295.821 455.045 296.421 455.357 297.065 455.534C300.626 456.785 303.113 454.518 304.026 451.443C305.497 446.307 310.074 440.081 299.92 436.653C311.192 435.358 309.176 426.351 310.442 420.052C311.457 414.887 306.439 416.785 304.026 416.785C299.846 416.785 294.828 417.565 294.372 422.51C294.004 426.248 297.698 425.453 300.346 424.453C302.421 423.658 304.276 424.114 304.761 426.395C305.247 428.676 303.569 429.721 301.612 430.207C296.638 431.414 291.311 432.12 288.617 426.69C285.924 421.259 288.485 416.785 293.827 413.621C299.714 410.075 306.38 411.944 312.62 410.678C321.582 408.706 331.148 409.825 340.463 407.47Z" />
    <path d="M422.876 437.741C415.753 437.358 418.535 431.958 418.24 428.44C417.372 418.58 420.065 409 420.948 399.258C421.198 396.653 424.348 392.841 419.771 391.723C414.547 390.472 415.547 395.77 414.385 398.522C412.428 403.158 416.048 410.736 409.97 412.65C398.55 416.255 393.782 423.937 391.825 434.724C391.324 437.373 389.882 440.493 385.614 440.611C385.776 439.036 385.938 437.667 386.056 436.196C386.527 428.838 387.056 420.817 377.491 419.198C368.867 417.727 363.378 423.201 360.184 430.795C358.448 434.93 357.167 439.257 355.769 443.525C346.792 449.823 351.354 442.053 351.354 439.213C351.354 433.032 351.472 426.733 343.996 424.408C337.271 422.333 332.223 425.733 328.161 430.545C324.499 434.947 322.642 440.574 322.966 446.291C323.334 455.828 330.604 460.669 339.375 456.828C346.145 453.885 352.414 449.853 358.919 446.306C364.172 456.092 371.251 454.179 378.815 449.455C383.731 446.424 388.881 440.876 394.694 445.04C400.507 449.205 404.481 448.366 408.351 443.834C411.103 440.611 412.589 440.155 416.004 443.171C418.432 445.291 421.89 443.451 423.877 440.905C424.657 439.89 425.378 437.859 422.876 437.741ZM335.799 452.251C331.119 454.003 329.736 447.984 330.148 444.702C330.943 438.58 331.443 431.075 339.537 429.868C344.423 429.161 343.658 434.003 344.129 437.874C342.466 442.921 341.715 450.044 335.799 452.251ZM373.885 446.129C373.885 446.689 372.06 447.763 371.119 447.689C366.056 447.321 365.467 443.392 365.526 439.61C365.644 432.988 366.998 426.042 374.356 424.393C379.198 423.319 379.095 428.808 379.492 432.443C380.154 438.006 373.959 440.802 373.885 446.115V446.129ZM411.456 425.438C409.587 431.016 410.868 439.536 402.626 441.155C398.859 441.921 399.403 436.24 399.521 433.047C399.801 426.601 402.303 420.876 408.763 419.213C412.825 418.168 411.059 422.642 411.456 425.423V425.438Z" />
    <path d="M440.698 439.109C440.036 443.524 438.623 447.719 433.605 450.883C431.486 446.173 435.812 442.892 433.472 439.109C431.706 436.284 433.355 433.679 436.636 433.591C439.918 433.502 441.081 436.24 440.698 439.109Z" />
    <path d="M494.515 376.741C484.449 373.798 474.824 375.387 467.525 383.672C462.021 389.897 460.167 396.917 466.171 404.025C467.437 405.497 469.218 406.645 471.131 405.718C473.412 404.614 472.499 402.774 471.705 400.964C467.113 390.516 470.969 384.452 481.741 382.068C492.602 378.242 498.282 384.629 501.638 393.164C505.332 402.539 506.877 412.561 498.209 420.405C496.611 421.781 494.65 422.666 492.561 422.953C490.473 423.24 488.345 422.917 486.436 422.023C481.932 420.14 483.492 416.505 483.713 413.282C484.258 405.07 482.639 396.682 486.024 388.691C487.893 384.276 484.552 384.717 481.844 384.703C476.414 392.797 477.429 402.009 477.326 411.001C477.253 414.842 477.988 418.536 471.69 417.962C467.275 417.55 462.404 418.668 461.271 424.466C460.653 427.66 461.109 430.735 464.214 432.369C466.387 433.589 468.903 434.051 471.368 433.684C473.832 433.316 476.105 432.139 477.827 430.338C480.549 427.777 482.889 427.204 486.656 427.527C502.418 428.911 510.777 420.949 511.027 405.188C511.336 391.914 504.669 379.684 494.515 376.741ZM471.293 428.248C469.276 428.572 467.29 428.101 467.525 425.541C467.731 423.392 469.615 422.509 471.602 422.362C473.162 422.274 474.545 422.774 474.869 424.643C474.853 425.585 474.471 426.484 473.803 427.149C473.136 427.814 472.235 428.193 471.293 428.204V428.248Z" />
    <path d="M584.461 401.156C583.919 400.7 583.568 400.057 583.475 399.355C583.383 398.653 583.556 397.941 583.961 397.36C584.123 398.611 584.3 399.891 584.461 401.156Z" />
    <path d="M596.692 371.531C596.692 371.693 596.574 371.87 596.53 372.032C596.441 371.826 596.353 371.649 596.25 371.458L596.692 371.531Z" />
    <path d="M622.769 378.155C622.077 378.788 621.297 379.479 620.414 380.245C620.988 379.229 621.709 378.273 622.769 378.155Z" />
    <path d="M694.306 342.231C691.362 345.38 694.703 350.193 690.597 352.886C683.371 348.765 677.352 344.659 685.211 335.388C686.723 333.634 687.533 331.383 687.484 329.068C687.435 326.753 686.531 324.538 684.946 322.85C682.709 320.201 679.442 320.362 676.543 321.451C672.128 323.144 668.817 326.175 668.581 331.356C668.493 333.225 668.154 335.476 668.993 336.918C672.143 342.231 670.553 346.396 667.669 351.414C664.343 357.301 664.181 364.07 669.906 369C675.292 373.636 681.679 372.326 686.697 368.544C691.301 364.748 697.11 362.723 703.076 362.834C690.244 359.346 700.531 347.764 694.306 342.231ZM677.102 326.808C677.371 326.554 677.701 326.373 678.059 326.282C678.418 326.19 678.794 326.192 679.152 326.286C679.509 326.38 679.837 326.564 680.105 326.82C680.372 327.076 680.569 327.396 680.678 327.75C682.827 332.356 679.516 335.211 676.572 339.244C673.541 334.387 672.893 330.355 677.102 326.808ZM679.942 365.939C674.762 367.205 672.334 363.393 671.598 359.184C670.862 354.975 673.217 348.971 676.44 349.648C680.855 350.59 684.46 355.535 688.213 358.669C687.183 363.805 683.415 365.115 679.942 365.939Z" />
    <path d="M769.388 291.357C766.15 297.862 762.309 298.715 759.263 300.187C745.547 306.986 744.444 311.386 753.582 323.968C754.07 324.87 754.181 325.928 753.892 326.912C744.341 330.826 749.329 340.333 746.18 346.749C743.59 352.047 740.029 355.079 734.098 355.329C732.206 355.523 730.3 355.129 728.638 354.203C726.977 353.276 725.641 351.861 724.812 350.149C722.06 344.969 724.238 341.128 727.843 336.507C731.92 340.922 727.446 349.413 735.319 349.443C739.205 349.443 740.573 345.557 740.941 342.084C741.456 337.081 743.443 331.15 730.434 331.474C740.367 327.206 742.516 322.438 741.397 316.066C740.897 313.226 743.134 309.134 740.205 307.677C736.924 306.015 732.847 307.236 729.389 309.149C727.402 310.238 724.974 311.46 725.562 314.123C726.445 318.362 729.3 316.61 731.655 315.595C733.524 314.756 735.408 314.3 736.394 316.507C737.38 318.715 735.643 320.054 733.98 320.922C729.3 323.306 724.444 324.366 720.632 319.657C716.821 314.947 718.984 310.518 722.766 306.706C727.946 301.482 735.202 301.173 741.618 299.848C750.286 297.979 758.571 294.433 769.388 291.357Z" />
    <path d="M839.35 305.544C830.314 298.274 827.841 302.968 827.783 312.137C827.722 312.864 827.588 313.584 827.385 314.285C826.502 322.159 823.677 328.796 815.7 331.945C812.124 333.417 808.798 332.607 807.268 328.84C805.296 324.013 809.549 324.189 812.213 323.777C821.837 322.306 824.324 316.198 823.441 307.589C813.14 301.408 804.31 304.558 800.263 316.11C798.07 322.306 796.466 328.751 794.597 335.065C791.889 335.55 789.167 336.095 789.623 331.798C790.079 327.501 790.682 323.66 790.741 319.598C790.83 316.213 793.42 310.842 788.446 310.121C782.559 309.311 784.722 315.374 784.472 318.45C783.854 326.014 782.117 333.063 777.673 339.303C771.595 340.583 769.506 336.801 771.448 332.401C775.451 323.336 774.141 317.023 765.046 312.269C762.927 311.18 762.839 305.514 758.954 308.031C755.069 310.547 758.321 313.917 759.984 316.655C759.16 320.51 760.219 324.616 757.953 328.31C756.982 329.914 757.026 332.048 759.645 332.151C762.265 332.254 761.75 329.723 762.309 328.178C762.309 325.573 761.794 322.88 762.868 320.481C763.163 319.808 763.572 319.191 764.075 318.656C771.433 322.35 766.724 326.647 764.664 330.797C763.884 336.021 762.957 341.452 768.681 344.586C773.096 347.073 777.188 346.161 780.042 341.643C784.693 338.376 794.42 347.765 795.451 335.506C798.041 336.904 798.394 330.856 801.793 333.814C809.048 340.157 815.568 336.757 823.397 333.505C828.077 331.533 833.698 333.843 833.139 325.602C832.698 318.332 836.656 312.048 839.35 305.544ZM807.135 316.772C807.812 313.24 809.77 310.415 813.478 309.561C815.847 309.017 816.848 310.709 816.686 312.872C816.421 316.802 813.993 318.921 809.519 319.995C807.856 320.304 806.738 319.039 807.135 316.772Z" />
    <path d="M792.051 303.292C791.683 305.632 790.683 307.707 787.842 307.324C786.895 307.231 786.023 306.767 785.417 306.034C784.811 305.301 784.518 304.357 784.605 303.41C784.56 302.846 784.641 302.279 784.84 301.75C785.04 301.22 785.355 300.742 785.761 300.348C786.167 299.954 786.656 299.655 787.191 299.472C787.726 299.289 788.295 299.227 788.858 299.289C791.036 299.363 791.816 301.187 792.051 303.292Z" />
    <path d="M839.6 305.735L839.482 305.617C839.441 305.583 839.397 305.553 839.349 305.529H839.556C839.561 305.599 839.576 305.668 839.6 305.735Z" />
    <path d="M886.045 313.256C886.825 302.689 889.297 292.447 891.387 282.145C891.887 279.673 896.494 275.273 890.548 273.919C885.706 272.8 885.707 277.877 885.074 280.821C883.411 288.547 882.513 295.537 871.991 297.421C865.221 298.642 862.043 306.089 860.409 313.005C859.291 317.671 858.334 322.439 852.256 325.529C852.624 318.48 853.08 312.579 853.213 306.663C853.33 302.63 852.3 298.686 847.326 298.731C843.22 298.731 838.82 299.599 839.541 305.485C843.838 304.529 846.899 305 846.09 310.754C845.468 314.848 845.095 318.976 844.972 323.116C844.839 330.474 849.151 333.756 854.802 329.297C859.423 325.647 862.764 328.296 866.575 327.825C874.257 326.942 881.483 322.88 889.798 324.676C891.093 324.955 893.374 322.233 893.33 318.951C887.208 321.821 885.633 318.877 886.045 313.256ZM872.27 322.233C871.624 322.584 870.922 322.823 870.195 322.939C869.134 322.526 868.23 321.789 867.612 320.832C866.994 319.876 866.693 318.749 866.752 317.612C867.061 310.518 869.209 304.293 876.2 300.982C877.951 300.158 880.35 300.305 880.158 302.998C879.643 310.209 878.113 317.141 872.27 322.233Z" />
    <path d="M900.791 304.087C900.323 308.295 898.704 312.293 896.111 315.64C892.888 309.856 895.066 306.251 900.791 304.087Z" />
    <path d="M929.694 310.209C922.998 322.688 909.709 326.956 900.379 321.217C900.379 318.685 898.907 316.007 901.527 313.432C905.029 313.962 906.089 323.38 910.121 318.2C913.903 313.343 910.872 306.427 908.208 300.54C905.383 294.227 903.705 300.29 901.703 300.879C901.548 300.935 901.38 300.953 901.216 300.929C901.052 300.906 900.896 300.843 900.762 300.746C899.628 295.816 902.778 292.946 906.177 290.68C909.194 288.679 912.137 287.575 912.932 293.535C913.55 298.186 916.788 302.453 917.656 307.118C918.98 314.447 921.924 316.861 929.694 310.209Z" />
    <path d="M1017.48 324.219C1012.11 318.082 1012.91 314.933 1018.82 309.959C1031.28 299.437 1042.98 288.046 1055.61 276.435C1027.28 271.784 1000.3 273.492 973.401 273.168C968.604 273.168 964.91 273.403 964.204 266.56C962.128 246.222 961.79 246.252 940.908 244.677C937.508 244.427 934.094 244.427 930.694 244.383C854.169 243.426 779.851 257.407 707.005 279.202C634.615 300.894 563.579 327.162 489.953 345.072C408.88 364.763 327.381 381.613 243.674 384.968C229.958 385.528 228.957 391.267 231.783 401.156C234.608 411.046 230.414 413.974 221.481 413.915C219.206 413.906 216.932 414.073 214.682 414.416C193.167 417.521 171.578 420.391 149.209 426.351C165.162 438.271 180.114 449.235 193.962 461.479C198.068 465.129 198.906 468.19 196.655 473.12C188.325 491.309 180.334 509.631 172.24 527.879H179.054C180.04 525.819 182.071 526.01 183.881 525.628C219.2 517.754 255.02 515.076 291.016 513.943C297.918 513.707 304.644 513.457 302.201 503.715C299.258 491.78 305.88 490.294 315.446 489.528C362.332 485.687 408.468 477.152 454.427 467.454C534.117 450.5 611.26 424.938 688.551 399.685C757.835 377.08 828.798 361.599 901.6 355.241C909.665 354.535 914.109 355.742 912.402 364.939C910.93 372.901 915.065 374.476 922.07 374.034C938.258 372.989 954.608 372.401 970.885 371.694C1000.36 370.486 1029.88 371.568 1059.18 374.932C1044.33 356.595 1031.3 340.098 1017.48 324.219ZM941.128 365.072L948.678 362.452C970.134 353.622 970.193 353.622 968.986 330.532C968.206 315.816 967.353 301.1 966.176 286.471C965.822 281.954 966.176 279.216 971.665 279.26C993.813 279.422 1016.02 278.583 1040.33 281.129C1029.43 291.284 1020.13 300.364 1010.34 308.943C1004.45 314.124 1003.38 318.053 1009.28 324.602C1020.89 337.449 1031.44 351.253 1044.5 367.161C1019.48 364.115 996.712 364.822 974.005 364.571C963.335 367.309 952.475 366.175 941.128 365.116V365.072ZM949.296 355.123L919.731 365.969C918.068 353.24 912.107 352.18 949.296 355.123ZM287.646 502.287C281.186 500.051 274.887 497.387 268.515 494.929C268.633 494.223 268.75 493.531 268.883 492.825C275.432 492.486 282.01 492.045 288.559 491.795C290.928 491.795 294.166 490.22 295.152 493.781C296.035 496.975 297.065 500.919 294.798 503.509C292.885 505.54 289.868 503.023 287.646 502.287ZM197.582 455.71C186.898 447.601 176.832 438.683 165.515 429.309C186.927 424.143 207.162 422.319 227.191 419.007C234.314 417.874 234.432 422.142 235.02 426.66C237.581 446.115 240.377 465.555 242.379 485.069C242.997 490.882 245.322 493.664 250.561 495.371C259.945 498.439 269.11 502.141 277.992 506.452C246.779 509.881 215.492 511.618 183.69 518.917C190.238 503.7 195.345 489.484 202.409 476.239C207.486 466.968 205.337 461.597 197.582 455.71ZM266.572 487.218C266.572 486.982 266.572 486.762 266.572 486.526C263.541 486.673 260.48 486.526 257.492 486.982C251.312 487.895 248.751 485.349 248.044 479.227C244.939 452.988 241.569 426.748 238.243 400.538C237.625 395.667 237.228 392.224 244.424 391.797C388.925 383.35 526.979 345.985 663.238 299.701C740.911 273.33 820.38 254.964 902.792 251.152C918.259 250.446 933.844 251.564 949.355 251.785C955.374 251.888 957.552 254.39 957.89 260.762C959.303 286.79 961.167 312.789 963.482 338.759C964.012 344.645 963.159 346.676 956.845 346.706C842.411 346.794 734.054 376.433 626.845 412.929C531.041 445.512 433.015 469.647 332.281 481.626C310.427 484.157 288.456 485.364 266.572 487.218Z" />
    <path d="M1137.45 71.524V87.403C1133.16 95.497 1132.85 104.665 1130.23 113.201C1129.31 116.232 1130.23 122.031 1123.96 120.162C1119.4 118.837 1112.91 120.53 1112.29 112.318C1111.84 106.431 1109.96 100.545 1108.31 94.7465C1107.52 91.7995 1106.1 89.0604 1104.14 86.7214C1102.18 84.3825 1099.74 82.5004 1096.98 81.2074C1089.62 77.749 1081.85 76.4981 1076.22 83.5914C1070.6 90.6847 1073.28 98.1607 1079.33 103.826C1089.32 113.068 1099.93 121.692 1110.06 130.772C1130.1 148.667 1135.08 171.699 1123.57 192.743C1112.91 212.272 1088.85 221.381 1064.44 215.289C1057.46 213.512 1050.8 210.689 1044.67 206.915C1038.96 203.427 1034.8 197.187 1026.26 203.736C1022.79 206.415 1015.08 204.089 1017.14 195.024C1020.23 181.397 1022.51 167.593 1025.35 153.936C1025.92 151.125 1024.82 145.857 1030.63 147.858C1035.05 149.33 1042.23 146.681 1042.26 155.349C1042.26 163.307 1043.76 171.195 1046.67 178.601C1051.81 191.595 1063.58 199.307 1076.73 198.63C1090.85 197.879 1098.17 185.385 1091.71 172.817C1088.51 166.636 1083.19 162.324 1078.02 157.85C1070.01 150.919 1061.69 144.297 1054.21 136.835C1037.57 120.191 1034.65 99.4704 1045.64 81.0749C1056.14 63.5035 1077.48 56.1895 1099.36 62.7089C1101.89 63.4594 1104.92 63.9597 1106.72 65.6521C1115.75 74.5261 1127.22 69.5078 1137.45 71.524Z" />
    <path d="M160.085 226.944C148.701 215.085 133.533 207.575 117.202 205.708C95.2446 202.912 75.1715 207.327 58.3359 225.193C57.1733 218.026 56.3492 212.934 55.5251 207.783C38.3952 212.595 21.6773 217.452 4.97422 221.896C-2.73718 223.927 0.853626 229.343 0.721178 233.669C0.58873 238.967 3.66446 239.997 8.07938 239.011C20.1763 236.289 24.0614 241.955 24.9002 253.316C28.962 308.257 33.3769 363.198 38.145 418.139C39.1457 429.809 32.9501 433.724 22.9577 434.548C13.5244 435.328 18.2337 442.215 17.7333 446.616C16.9975 452.752 21.3094 451.663 25.2387 451.251C48.9616 448.794 72.6844 446.204 96.5838 445.953C98.9237 445.953 101.867 447.072 102.882 443.084C104.928 435.004 100.572 428.735 91.904 429.029C81.7791 429.368 76.3488 425.718 75.716 415.019C74.5534 394.711 72.7727 374.446 71.3011 353.019C113.581 368.972 149.828 359.156 170.298 327.442C189.827 296.95 185.368 252.904 160.085 226.944ZM133.345 320.04C124.913 340.319 99.6449 347.28 80.6165 336.051C70.786 330.253 69.1819 320.452 68.0193 310.724C66.5476 297.612 65.9001 284.367 65.076 274.287C64.7228 262.852 64.4285 254.478 67.828 246.62C73.067 234.39 82.5444 227.577 95.7009 226.355C109.784 225.001 121.572 230.211 128.312 242.543C141.954 267.429 144.294 293.727 133.345 320.04Z" />
    <path d="M723.341 228.15C701.47 232.574 679.886 238.314 658.707 245.339C654.807 246.664 650.377 248.665 649.303 242.028C648.552 237.392 643.74 231.55 652.54 229.431C665.373 226.355 666.624 218.408 663.239 207.121C656.838 185.826 651.702 164.134 645.182 142.869C640.046 126.166 630.937 118.425 619.958 119.205C606.449 120.191 591.35 134.378 589.054 148.638C587.582 157.365 589.054 166.003 591.217 174.45C595.632 191.624 600.533 208.681 604.8 225.958C607.14 235.42 612.6 239.776 622.048 237.201C630.26 234.949 632.202 239.114 633.939 245.707C636.146 254.11 629.804 253.168 625.536 254.11C604.456 258.644 583.629 264.278 563.138 270.99C559.165 272.314 554.235 274.919 553.043 267.37C552.204 262.16 548.392 256.671 557.796 254.655C567.465 252.58 571.218 246.355 568.377 236.083C555.265 188.446 542.697 140.647 529.394 93.0244C524.434 75.2323 523.757 75.1735 504.935 75.821C499.961 75.9829 499.048 73.1426 498.474 69.9344C497.768 66.2112 495.001 61.8993 500.623 59.162C516.59 51.377 532.469 43.4155 548.392 35.6158C554.441 32.6725 554.191 37.4406 555.147 41.0167C562.726 69.0662 570.349 97.0862 578.517 127.181C591.629 107.844 608.362 98.2046 629.524 95.8647C656.013 92.9214 674.321 104.695 681.752 130.625C688.198 153.097 694.306 175.687 699.809 198.409C702.547 209.711 707.977 215.391 719.721 211.58C728.874 208.637 727.079 216.157 728.992 220.262C731.656 225.869 728.021 227.194 723.341 228.15Z" />
    <path d="M855.7 160.528C846.311 154.289 846.87 163.604 844.751 167.239C825.811 199.954 790.845 201.087 770.095 169.579C764.862 161.275 761.076 152.144 758.896 142.574C756.983 135.04 758.646 132.008 766.651 130.478C792.302 125.548 817.732 119.793 843.265 114.363C855.318 111.817 856.922 108.977 853.037 97.0271C847.356 79.544 835.377 68.2713 818.203 62.5466C767.814 45.7846 716.483 84.2533 716.321 138.792C716.233 175.407 737.307 204.118 770.963 213.154C806.459 222.69 843.545 207.783 861.866 178.1C868.165 167.96 862.779 165.149 855.7 160.528ZM757.277 105.828C758.749 89.1538 771.096 77.8664 788.991 77.9547C791.904 77.6452 794.849 78.0367 797.581 79.0965C800.312 80.1564 802.751 81.8538 804.693 84.0473C808.52 88.1531 812.758 93.3333 811.625 98.8814C810.491 104.429 803.575 102.781 799.145 103.841C787.372 106.652 775.599 108.889 763.929 111.788C758.072 113.274 756.747 111.464 757.277 105.828Z" />
    <path d="M533.925 271.505C509.614 306.28 454.751 315.272 421.86 289.459C388.012 262.97 383.907 207.253 413.34 174.848C433.943 152.126 459.947 143.62 490.042 146.489C496.929 147.152 503.39 149.433 508.408 154.495C515.457 161.662 515.766 173.259 509.144 180.102C502.522 186.945 492.205 186.901 484.847 179.057C477.989 171.699 473.266 162.059 460.08 167.387C446.423 172.891 438.829 182.618 436.121 196.569C435.106 201.735 434.65 207.003 434.238 209.976C434.591 225.237 436.828 237.937 441.596 249.902C447.571 265.118 455.782 278.79 474.207 280.968C493.545 283.264 507.761 274.61 518.357 258.982C521.02 255.052 521.889 249.696 529.85 253.801C539.769 258.893 539.621 263.338 533.925 271.505Z" />
    <path d="M1004.64 68.3009C1003.54 75.3943 999.95 81.1042 992.327 83.0173C984.483 85.0041 978.435 82.3551 973.49 75.9682C965.293 65.3724 961.07 65.1075 950.709 73.7754C943.351 80.0005 940.408 88.4918 939.186 97.6454C936.111 121.398 939.186 145.194 938.627 168.961C938.436 177.688 943.704 180.97 951.769 180.808C958.789 180.675 964.057 181.249 963.645 191.006C963.218 201.941 955.683 198.291 950.753 198.085C929.15 197.128 907.59 198.085 886.001 198.924C881.881 199.086 877.068 199.969 877.981 193.199C878.584 188.784 875.126 182.898 884.338 181.926C899.835 180.175 900.909 177.82 900.526 162.192C899.952 137.174 900.526 112.318 898.966 87.3734C898.29 76.3508 894.095 71.1853 882.778 73.069C877.848 73.9079 875.229 72.2302 876.068 67.1825C876.759 63.0619 872.698 56.5131 881.204 55.9097C893.418 55.012 905.074 51.4948 916.391 47.2859C926.692 43.4891 930.989 46.7708 932.019 56.8221C932.255 59.0296 932.755 61.2371 933.491 65.0928C949.208 49.2138 966.22 41.6495 987 46.5207C998.67 49.3168 1006.18 58.7353 1004.64 68.3009Z" />
    <path d="M398.432 305.367C392.457 321.864 373.929 332.18 349.971 332.195C327.72 332.195 315.196 321.378 311.385 298.862C306.852 272.093 302.054 245.339 297.875 218.496C296.86 211.815 295.667 207.738 287.573 209.784C284.91 210.446 280.215 212.727 279.435 207.223C278.906 203.147 275.535 198.673 280.362 194.655C294.314 183.132 305.881 169.991 310.031 151.654C311.237 146.43 316.432 147.092 320.332 146.636C325.969 145.988 324.541 150.742 325.13 153.655C326.83 161.013 328.142 168.455 329.059 175.951C329.618 182.367 332.517 183.309 338.021 182.043C343.908 180.675 349.971 180.071 355.843 178.644C364.231 176.569 367.704 178.82 368.837 188.092C369.691 194.979 367.984 196.627 362.038 197.378C354.93 198.261 347.896 200.174 340.759 200.748C334.298 201.278 333.754 204.03 334.754 209.666C339.405 235.655 343.584 261.762 347.999 287.825C348.293 289.664 348.882 291.474 349.279 293.314C350.825 300.569 352.9 307.854 361.509 309.178C370.456 310.562 377.093 305.911 380.758 298.156C384.098 291.121 387.012 288.384 394.93 293.226C401.11 296.92 400.213 300.437 398.432 305.367Z" />
    <path d="M284.012 341.775C261.328 343.301 238.763 346.25 216.449 350.605C211.548 351.591 207.457 351.517 206.883 344.792C206.427 339.376 205.088 334.358 213.211 333.563C224.984 332.43 227.516 325.631 225.735 314.432C221.629 288.693 218.774 262.748 215.242 236.921C214.374 230.549 213.888 223.293 203.587 225.31C199.496 222.999 192.108 231.873 189.591 220.792C187.973 213.654 188.973 209.946 196.685 207.768C210.886 203.765 224.955 199.232 238.671 193.89C246.206 190.947 248.457 192.595 249.399 200.203C253.814 235.832 258.685 271.401 263.247 307.015C265.366 323.645 265.808 324.675 282.643 324.601C291.473 324.601 288.03 331.15 289.531 334.903C291.444 339.656 288.957 341.437 284.012 341.775Z" />
    <path d="M246.294 148.607C246.12 156.274 242.934 163.564 237.425 168.899C231.917 174.234 224.529 177.185 216.861 177.113C213.034 177.1 209.248 176.332 205.718 174.856C202.188 173.379 198.983 171.221 196.287 168.506C193.591 165.79 191.456 162.571 190.004 159.03C188.552 155.49 187.812 151.698 187.825 147.872C187.839 144.045 188.606 140.259 190.083 136.729C191.56 133.199 193.717 129.994 196.433 127.298C199.148 124.602 202.368 122.467 205.908 121.015C209.449 119.563 213.24 118.823 217.067 118.836C220.955 118.823 224.806 119.589 228.393 121.087C231.981 122.586 235.232 124.787 237.955 127.561C240.679 130.336 242.82 133.627 244.252 137.242C245.684 140.856 246.378 144.72 246.294 148.607Z" />
    <path d="M1064.04 26.1531C1063.36 43.1506 1046.25 62.0023 1029.57 65.7844C1023.29 67.256 1024.45 61.6197 1022.36 59.2356C1019.42 55.9391 1020.76 53.349 1024.48 51.3182C1031.09 47.6685 1037.73 43.8423 1041.64 36.0867C1027.31 29.6262 1022.51 20.8405 1027.01 10.4655C1030.74 1.85636 1042.16 -2.63215 1051.1 1.63561C1061.3 6.46259 1064.48 15.8222 1064.04 26.1531Z" />
    <path d="M1087.32 251.034C1087.32 251.181 1087.32 251.313 1087.32 251.446C1087.52 251.311 1087.73 251.189 1087.94 251.078C1087.69 251.063 1087.5 251.063 1087.32 251.034ZM1087.32 251.034C1087.32 251.181 1087.32 251.313 1087.32 251.446C1087.52 251.311 1087.73 251.189 1087.94 251.078C1087.69 251.063 1087.5 251.063 1087.32 251.034ZM1087.32 251.034C1087.32 251.181 1087.32 251.313 1087.32 251.446C1087.52 251.311 1087.73 251.189 1087.94 251.078C1087.69 251.063 1087.5 251.063 1087.32 251.034ZM1087.32 251.034C1087.32 251.181 1087.32 251.313 1087.32 251.446C1087.52 251.311 1087.73 251.189 1087.94 251.078C1087.69 251.063 1087.5 251.063 1087.32 251.034ZM1087.32 251.034C1087.32 251.181 1087.32 251.313 1087.32 251.446C1087.52 251.311 1087.73 251.189 1087.94 251.078C1087.69 251.063 1087.5 251.063 1087.32 251.034ZM1087.32 251.034C1087.32 251.181 1087.32 251.313 1087.32 251.446C1087.52 251.311 1087.73 251.189 1087.94 251.078C1087.69 251.063 1087.5 251.063 1087.32 251.034ZM1087.32 251.034C1087.32 251.181 1087.32 251.313 1087.32 251.446C1087.52 251.311 1087.73 251.189 1087.94 251.078C1087.69 251.063 1087.5 251.063 1087.32 251.034ZM1090.37 242.072C1086.5 242.302 1082.79 243.665 1079.69 245.993C1076.59 248.32 1074.25 251.509 1072.95 255.159C1071.66 258.81 1071.47 262.762 1072.4 266.521C1073.34 270.28 1075.36 273.68 1078.22 276.297C1081.07 278.914 1084.64 280.632 1088.46 281.236C1092.29 281.84 1096.21 281.303 1099.73 279.693C1103.26 278.083 1106.23 275.471 1108.28 272.182C1110.33 268.894 1111.36 265.075 1111.25 261.203C1111.16 258.567 1110.55 255.975 1109.45 253.579C1108.34 251.183 1106.77 249.031 1104.83 247.249C1102.88 245.468 1100.6 244.092 1098.12 243.203C1095.64 242.314 1093 241.929 1090.37 242.072ZM1101.04 271.24C1096.83 265.515 1099.57 259.128 1099.39 253.035C1099.22 253.02 1099.05 252.991 1098.89 252.947C1095.21 252.358 1091.53 251.755 1087.87 251.137C1087.69 251.137 1087.5 251.137 1087.32 251.137C1087.15 251.137 1087.32 251.417 1087.32 251.549C1080.48 255.699 1083.44 262.101 1083.63 267.84C1083.72 268.977 1083.62 270.121 1083.33 271.225C1088.65 265.338 1093.83 266.589 1099.05 271.387C1099.39 271.725 1100.24 271.519 1100.92 271.49C1094.15 279.451 1087.4 278.333 1080.61 271.387C1074.56 264.028 1074.8 257.097 1082.19 250.784C1088.93 245.707 1095.27 243.72 1100.35 252.859C1108.9 258.569 1107.14 264.794 1101.04 271.24ZM1087.32 251.093C1087.32 251.24 1087.32 251.372 1087.32 251.505C1087.52 251.37 1087.73 251.248 1087.94 251.137C1087.69 251.063 1087.5 251.063 1087.32 251.034V251.093ZM1087.32 251.093C1087.32 251.24 1087.32 251.372 1087.32 251.505C1087.52 251.37 1087.73 251.248 1087.94 251.137C1087.69 251.063 1087.5 251.063 1087.32 251.034V251.093ZM1087.32 251.093C1087.32 251.24 1087.32 251.372 1087.32 251.505C1087.52 251.37 1087.73 251.248 1087.94 251.137C1087.69 251.063 1087.5 251.063 1087.32 251.034V251.093ZM1087.32 251.093C1087.32 251.24 1087.32 251.372 1087.32 251.505C1087.52 251.37 1087.73 251.248 1087.94 251.137C1087.69 251.063 1087.5 251.063 1087.32 251.034V251.093ZM1087.32 251.093C1087.32 251.24 1087.32 251.372 1087.32 251.505C1087.52 251.37 1087.73 251.248 1087.94 251.137C1087.69 251.063 1087.5 251.063 1087.32 251.034V251.093ZM1087.32 251.093C1087.32 251.24 1087.32 251.372 1087.32 251.505C1087.52 251.37 1087.73 251.248 1087.94 251.137C1087.69 251.063 1087.5 251.063 1087.32 251.034V251.093ZM1087.32 251.093C1087.32 251.24 1087.32 251.372 1087.32 251.505C1087.52 251.37 1087.73 251.248 1087.94 251.137C1087.69 251.063 1087.5 251.063 1087.32 251.034V251.093Z" />
    <path d="M340.463 407.47C337.123 412.812 331.898 414.048 326.998 414.475C318.006 415.299 316.137 421.068 315.799 428.308C315.534 433.371 311.928 449.883 309.912 453.812C306.513 460.331 301.156 463.51 294.004 461.17C288.117 459.228 286.042 454.474 287.955 448.44C288.735 445.924 289.692 442.804 293.091 443.687C296.491 444.57 294.563 447.219 293.945 449.191C293.692 449.809 293.573 450.474 293.596 451.142C293.619 451.809 293.784 452.464 294.078 453.064C294.373 453.663 294.792 454.193 295.307 454.619C295.821 455.045 296.421 455.357 297.065 455.534C300.626 456.785 303.113 454.518 304.026 451.443C305.497 446.307 310.074 440.081 299.92 436.653C311.192 435.358 309.176 426.351 310.442 420.052C311.457 414.887 306.439 416.785 304.026 416.785C299.846 416.785 294.828 417.565 294.372 422.51C294.004 426.248 297.698 425.453 300.346 424.453C302.421 423.658 304.276 424.114 304.761 426.395C305.247 428.676 303.569 429.721 301.612 430.207C296.638 431.414 291.311 432.12 288.617 426.69C285.924 421.259 288.485 416.785 293.827 413.621C299.714 410.075 306.38 411.944 312.62 410.678C321.582 408.706 331.148 409.825 340.463 407.47Z" />
    <path d="M422.876 437.741C415.753 437.358 418.535 431.958 418.24 428.44C417.372 418.58 420.065 409 420.948 399.258C421.198 396.653 424.348 392.841 419.771 391.723C414.547 390.472 415.547 395.77 414.385 398.522C412.428 403.158 416.048 410.736 409.97 412.65C398.55 416.255 393.782 423.937 391.825 434.724C391.324 437.373 389.882 440.493 385.614 440.611C385.776 439.036 385.938 437.667 386.056 436.196C386.527 428.838 387.056 420.817 377.491 419.198C368.867 417.727 363.378 423.201 360.184 430.795C358.448 434.93 357.167 439.257 355.769 443.525C346.792 449.823 351.354 442.053 351.354 439.213C351.354 433.032 351.472 426.733 343.996 424.408C337.271 422.333 332.223 425.733 328.161 430.545C324.499 434.947 322.642 440.574 322.966 446.291C323.334 455.828 330.604 460.669 339.375 456.828C346.145 453.885 352.414 449.853 358.919 446.306C364.172 456.092 371.251 454.179 378.815 449.455C383.731 446.424 388.881 440.876 394.694 445.04C400.507 449.205 404.481 448.366 408.351 443.834C411.103 440.611 412.589 440.155 416.004 443.171C418.432 445.291 421.89 443.451 423.877 440.905C424.657 439.89 425.378 437.859 422.876 437.741ZM335.799 452.251C331.119 454.003 329.736 447.984 330.148 444.702C330.943 438.58 331.443 431.075 339.537 429.868C344.423 429.161 343.658 434.003 344.129 437.874C342.466 442.921 341.715 450.044 335.799 452.251ZM373.885 446.129C373.885 446.689 372.06 447.763 371.119 447.689C366.056 447.321 365.467 443.392 365.526 439.61C365.644 432.988 366.998 426.042 374.356 424.393C379.198 423.319 379.095 428.808 379.492 432.443C380.154 438.006 373.959 440.802 373.885 446.115V446.129ZM411.456 425.438C409.587 431.016 410.868 439.536 402.626 441.155C398.859 441.921 399.403 436.24 399.521 433.047C399.801 426.601 402.303 420.876 408.763 419.213C412.825 418.168 411.059 422.642 411.456 425.423V425.438Z" />
    <path d="M440.698 439.109C440.036 443.524 438.623 447.719 433.605 450.883C431.486 446.173 435.812 442.892 433.472 439.109C431.706 436.284 433.355 433.679 436.636 433.591C439.918 433.502 441.081 436.24 440.698 439.109Z" />
    <path d="M494.515 376.741C484.449 373.798 474.824 375.387 467.525 383.672C462.021 389.897 460.167 396.917 466.171 404.025C467.437 405.497 469.218 406.645 471.131 405.718C473.412 404.614 472.499 402.774 471.705 400.964C467.113 390.516 470.969 384.452 481.741 382.068C492.602 378.242 498.282 384.629 501.638 393.164C505.332 402.539 506.877 412.561 498.209 420.405C496.611 421.781 494.65 422.666 492.561 422.953C490.473 423.24 488.345 422.917 486.436 422.023C481.932 420.14 483.492 416.505 483.713 413.282C484.258 405.07 482.639 396.682 486.024 388.691C487.893 384.276 484.552 384.717 481.844 384.703C476.414 392.797 477.429 402.009 477.326 411.001C477.253 414.842 477.988 418.536 471.69 417.962C467.275 417.55 462.404 418.668 461.271 424.466C460.653 427.66 461.109 430.735 464.214 432.369C466.387 433.589 468.903 434.051 471.368 433.684C473.832 433.316 476.105 432.139 477.827 430.338C480.549 427.777 482.889 427.204 486.656 427.527C502.418 428.911 510.777 420.949 511.027 405.188C511.336 391.914 504.669 379.684 494.515 376.741ZM471.293 428.248C469.276 428.572 467.29 428.101 467.525 425.541C467.731 423.392 469.615 422.509 471.602 422.362C473.162 422.274 474.545 422.774 474.869 424.643C474.853 425.585 474.471 426.484 473.803 427.149C473.136 427.814 472.235 428.193 471.293 428.204V428.248Z" />
    <path d="M584.461 401.156C583.919 400.7 583.568 400.057 583.475 399.355C583.383 398.653 583.556 397.941 583.961 397.36C584.123 398.611 584.3 399.891 584.461 401.156Z" />
    <path d="M596.692 371.531C596.692 371.693 596.574 371.87 596.53 372.032C596.441 371.826 596.353 371.649 596.25 371.458L596.692 371.531Z" />
    <path d="M622.769 378.155C622.077 378.788 621.297 379.479 620.414 380.245C620.988 379.229 621.709 378.273 622.769 378.155Z" />
    <path d="M694.306 342.231C691.362 345.38 694.703 350.193 690.597 352.886C683.371 348.765 677.352 344.659 685.211 335.388C686.723 333.634 687.533 331.383 687.484 329.068C687.435 326.753 686.531 324.538 684.946 322.85C682.709 320.201 679.442 320.362 676.543 321.451C672.128 323.144 668.817 326.175 668.581 331.356C668.493 333.225 668.154 335.476 668.993 336.918C672.143 342.231 670.553 346.396 667.669 351.414C664.343 357.301 664.181 364.07 669.906 369C675.292 373.636 681.679 372.326 686.697 368.544C691.301 364.748 697.11 362.723 703.076 362.834C690.244 359.346 700.531 347.764 694.306 342.231ZM677.102 326.808C677.371 326.554 677.701 326.373 678.059 326.282C678.418 326.19 678.794 326.192 679.152 326.286C679.509 326.38 679.837 326.564 680.105 326.82C680.372 327.076 680.569 327.396 680.678 327.75C682.827 332.356 679.516 335.211 676.572 339.244C673.541 334.387 672.893 330.355 677.102 326.808ZM679.942 365.939C674.762 367.205 672.334 363.393 671.598 359.184C670.862 354.975 673.217 348.971 676.44 349.648C680.855 350.59 684.46 355.535 688.213 358.669C687.183 363.805 683.415 365.115 679.942 365.939Z" />
    <path d="M769.388 291.357C766.15 297.862 762.309 298.715 759.263 300.187C745.547 306.986 744.444 311.386 753.582 323.968C754.07 324.87 754.181 325.928 753.892 326.912C744.341 330.826 749.329 340.333 746.18 346.749C743.59 352.047 740.029 355.079 734.098 355.329C732.206 355.523 730.3 355.129 728.638 354.203C726.977 353.276 725.641 351.861 724.812 350.149C722.06 344.969 724.238 341.128 727.843 336.507C731.92 340.922 727.446 349.413 735.319 349.443C739.205 349.443 740.573 345.557 740.941 342.084C741.456 337.081 743.443 331.15 730.434 331.474C740.367 327.206 742.516 322.438 741.397 316.066C740.897 313.226 743.134 309.134 740.205 307.677C736.924 306.015 732.847 307.236 729.389 309.149C727.402 310.238 724.974 311.46 725.562 314.123C726.445 318.362 729.3 316.61 731.655 315.595C733.524 314.756 735.408 314.3 736.394 316.507C737.38 318.715 735.643 320.054 733.98 320.922C729.3 323.306 724.444 324.366 720.632 319.657C716.821 314.947 718.984 310.518 722.766 306.706C727.946 301.482 735.202 301.173 741.618 299.848C750.286 297.979 758.571 294.433 769.388 291.357Z" />
    <path d="M792.051 303.292C791.683 305.632 790.683 307.707 787.842 307.324C786.895 307.231 786.023 306.767 785.417 306.034C784.811 305.301 784.518 304.357 784.605 303.41C784.56 302.846 784.641 302.279 784.84 301.75C785.04 301.22 785.355 300.742 785.761 300.348C786.167 299.954 786.656 299.655 787.191 299.472C787.726 299.289 788.295 299.227 788.858 299.289C791.036 299.363 791.816 301.187 792.051 303.292Z" />
    <path d="M839.35 305.544C830.314 298.274 827.841 302.968 827.783 312.137C827.722 312.864 827.588 313.584 827.385 314.285C826.502 322.159 823.677 328.796 815.7 331.945C812.124 333.417 808.798 332.607 807.268 328.84C805.296 324.013 809.549 324.189 812.213 323.777C821.837 322.306 824.324 316.198 823.441 307.589C813.14 301.408 804.31 304.558 800.263 316.11C798.07 322.306 796.466 328.751 794.597 335.065C791.889 335.55 789.167 336.095 789.623 331.798C790.079 327.501 790.682 323.66 790.741 319.598C790.83 316.213 793.42 310.842 788.446 310.121C782.559 309.311 784.722 315.374 784.472 318.45C783.854 326.014 782.117 333.063 777.673 339.303C771.595 340.583 769.506 336.801 771.448 332.401C775.451 323.336 774.141 317.023 765.046 312.269C762.927 311.18 762.839 305.514 758.954 308.031C755.069 310.547 758.321 313.917 759.984 316.655C759.16 320.51 760.219 324.616 757.953 328.31C756.982 329.914 757.026 332.048 759.645 332.151C762.265 332.254 761.75 329.723 762.309 328.178C762.309 325.573 761.794 322.88 762.868 320.481C763.163 319.808 763.572 319.191 764.075 318.656C771.433 322.35 766.724 326.647 764.664 330.797C763.884 336.021 762.957 341.452 768.681 344.586C773.096 347.073 777.188 346.161 780.042 341.643C784.693 338.376 794.42 347.765 795.451 335.506C798.041 336.904 798.394 330.856 801.793 333.814C809.048 340.157 815.568 336.757 823.397 333.505C828.077 331.533 833.698 333.843 833.139 325.602C832.698 318.332 836.656 312.048 839.35 305.544ZM807.135 316.772C807.812 313.24 809.77 310.415 813.478 309.561C815.847 309.017 816.848 310.709 816.686 312.872C816.421 316.802 813.993 318.921 809.519 319.995C807.856 320.304 806.738 319.039 807.135 316.772Z" />
    <path d="M839.6 305.735L839.482 305.617C839.441 305.583 839.397 305.553 839.349 305.529H839.556C839.561 305.599 839.576 305.668 839.6 305.735Z" />
    <path d="M886.045 313.256C886.825 302.689 889.297 292.447 891.387 282.145C891.887 279.673 896.494 275.273 890.548 273.919C885.706 272.8 885.707 277.877 885.074 280.821C883.411 288.547 882.513 295.537 871.991 297.421C865.221 298.642 862.043 306.089 860.409 313.005C859.291 317.671 858.334 322.439 852.256 325.529C852.624 318.48 853.08 312.579 853.213 306.663C853.33 302.63 852.3 298.686 847.326 298.731C843.22 298.731 838.82 299.599 839.541 305.485C843.838 304.529 846.899 305 846.09 310.754C845.468 314.848 845.095 318.976 844.972 323.116C844.839 330.474 849.151 333.756 854.802 329.297C859.423 325.647 862.764 328.296 866.575 327.825C874.257 326.942 881.483 322.88 889.798 324.676C891.093 324.955 893.374 322.233 893.33 318.951C887.208 321.821 885.633 318.877 886.045 313.256ZM872.27 322.233C871.624 322.584 870.922 322.823 870.195 322.939C869.134 322.526 868.23 321.789 867.612 320.832C866.994 319.876 866.693 318.749 866.752 317.612C867.061 310.518 869.209 304.293 876.2 300.982C877.951 300.158 880.35 300.305 880.158 302.998C879.643 310.209 878.113 317.141 872.27 322.233Z" />
    <path d="M900.791 304.087C900.323 308.295 898.704 312.293 896.111 315.64C892.888 309.856 895.066 306.251 900.791 304.087Z" />
    <path d="M929.694 310.209C922.998 322.688 909.709 326.956 900.379 321.217C900.379 318.685 898.907 316.007 901.527 313.432C905.029 313.962 906.089 323.38 910.121 318.2C913.903 313.343 910.872 306.427 908.208 300.54C905.383 294.227 903.705 300.29 901.703 300.879C901.548 300.935 901.38 300.953 901.216 300.929C901.052 300.906 900.896 300.843 900.762 300.746C899.628 295.816 902.778 292.946 906.177 290.68C909.194 288.679 912.137 287.575 912.932 293.535C913.55 298.186 916.788 302.453 917.656 307.118C918.98 314.447 921.924 316.861 929.694 310.209Z" />
    <path d="M1100.93 271.239C1100.93 271.239 1100.93 271.239 1100.85 271.342C1100.17 271.342 1099.37 271.578 1098.98 271.239C1093.75 266.442 1088.57 265.161 1083.26 271.077C1083.54 269.973 1083.64 268.829 1083.55 267.693C1084.01 267.236 1084.44 266.854 1084.85 266.486C1090.07 261.674 1091.52 261.585 1096.87 266.662C1097.83 267.575 1098.93 268.649 1100.18 269.915C1100.43 270.327 1100.67 270.724 1100.89 271.136C1100.9 271.173 1100.91 271.208 1100.93 271.239Z" />
    <path d="M1087.25 251.446C1086.81 256.525 1086.01 261.566 1084.85 266.53C1084.43 268.097 1083.9 269.631 1083.26 271.122C1083.54 270.018 1083.64 268.874 1083.55 267.737C1083.36 261.998 1080.4 255.596 1087.25 251.446Z" />
    <path d="M1101.04 271.24L1100.96 271.314V271.24C1099.26 270.153 1097.87 268.628 1096.95 266.825C1095.2 263.176 1095.99 258.937 1097.24 254.552C1097.37 254.315 1097.52 254.093 1097.7 253.89C1098.02 253.478 1098.46 253.171 1098.96 253.007C1099.13 253.05 1099.29 253.08 1099.46 253.095C1099.57 259.07 1096.83 265.456 1101.04 271.24Z" />
    <path d="M1099.39 252.976C1098.82 253.293 1098.23 253.559 1097.62 253.771C1094.03 254.993 1090.85 253.595 1087.87 251.078C1091.54 251.696 1095.22 252.299 1098.89 252.888C1099.05 252.932 1099.22 252.961 1099.39 252.976Z" />
    <path d="M422.876 437.741C415.753 437.358 418.535 431.958 418.24 428.44C417.372 418.58 420.065 409 420.948 399.258C421.198 396.653 424.348 392.841 419.771 391.723C414.547 390.472 415.547 395.77 414.385 398.522C412.428 403.158 416.048 410.736 409.97 412.65C398.55 416.255 393.782 423.937 391.825 434.724C391.324 437.373 389.882 440.493 385.614 440.611C385.776 439.036 385.938 437.667 386.056 436.196C386.527 428.838 387.056 420.817 377.491 419.198C368.867 417.727 363.378 423.201 360.184 430.795C358.448 434.93 357.167 439.257 355.769 443.525C356.27 444.834 357.55 445.232 358.521 445.968C358.665 446.072 358.802 446.185 358.933 446.306C364.187 456.092 371.265 454.179 378.83 449.455C383.745 446.424 388.896 440.876 394.709 445.04C400.522 449.205 404.495 448.366 408.365 443.834C411.117 440.611 412.604 440.155 416.018 443.171C418.446 445.291 421.905 443.451 423.891 440.905C424.657 439.89 425.378 437.859 422.876 437.741ZM373.885 446.115C373.885 446.674 372.06 447.748 371.118 447.675C366.056 447.307 365.467 443.377 365.526 439.595C365.644 432.973 366.998 426.027 374.356 424.379C379.198 423.304 379.095 428.794 379.492 432.428C380.154 438.006 373.959 440.802 373.885 446.115ZM411.456 425.423C409.587 431.001 410.867 439.522 402.626 441.141C398.859 441.906 399.403 436.225 399.521 433.032C399.801 426.586 402.302 420.861 408.763 419.198C412.825 418.168 411.059 422.642 411.456 425.423Z" />
    <path d="M494.515 376.741C484.449 373.798 474.824 375.387 467.525 383.672C462.021 389.897 460.167 396.917 466.171 404.025C467.437 405.497 469.218 406.645 471.131 405.718C473.412 404.614 472.499 402.774 471.705 400.964C467.113 390.516 470.969 384.452 481.741 382.068C492.602 378.242 498.282 384.629 501.638 393.164C505.332 402.539 506.877 412.561 498.209 420.405C496.611 421.781 494.65 422.666 492.561 422.953C490.473 423.24 488.345 422.917 486.436 422.023C481.932 420.14 483.492 416.505 483.713 413.282C484.258 405.07 482.639 396.682 486.024 388.691C487.893 384.276 484.552 384.717 481.844 384.703C476.414 392.797 477.429 402.009 477.326 411.001C477.253 414.842 477.988 418.536 471.69 417.962C467.275 417.55 462.404 418.668 461.271 424.466C460.653 427.66 461.109 430.735 464.214 432.369C466.387 433.589 468.903 434.051 471.368 433.684C473.832 433.316 476.105 432.139 477.827 430.338C480.549 427.777 482.889 427.204 486.656 427.527C502.418 428.911 510.777 420.949 511.027 405.188C511.336 391.914 504.669 379.684 494.515 376.741ZM471.293 428.248C469.276 428.572 467.29 428.101 467.525 425.541C467.731 423.392 469.615 422.509 471.602 422.362C473.162 422.274 474.545 422.774 474.869 424.643C474.853 425.585 474.471 426.484 473.803 427.149C473.136 427.814 472.235 428.193 471.293 428.204V428.248Z" />
    <path d="M839.6 305.735L839.394 305.529H839.6C839.591 305.597 839.59 305.666 839.6 305.735Z" />
    <path d="M886.045 313.256C886.825 302.689 889.297 292.447 891.387 282.145C891.887 279.673 896.494 275.273 890.548 273.919C885.706 272.8 885.707 277.877 885.074 280.821C883.411 288.547 882.513 295.537 871.991 297.421C865.221 298.642 862.043 306.089 860.409 313.005C859.291 317.671 858.334 322.439 852.256 325.529C852.624 318.48 853.08 312.579 853.213 306.663C853.33 302.63 852.3 298.686 847.326 298.731C843.22 298.731 838.82 299.599 839.541 305.485C843.838 304.529 846.899 305 846.09 310.754C845.468 314.848 845.095 318.976 844.972 323.116C844.839 330.474 849.151 333.756 854.802 329.297C859.423 325.647 862.764 328.296 866.575 327.825C874.257 326.942 881.483 322.88 889.798 324.676C891.093 324.955 893.374 322.233 893.33 318.951C887.208 321.821 885.633 318.877 886.045 313.256ZM872.27 322.233C871.624 322.584 870.922 322.823 870.195 322.939C869.134 322.526 868.23 321.789 867.612 320.832C866.994 319.876 866.693 318.749 866.752 317.612C867.061 310.518 869.209 304.293 876.2 300.982C877.951 300.158 880.35 300.305 880.158 302.998C879.643 310.209 878.113 317.141 872.27 322.233Z" />
    <path d="M769.388 291.357C766.15 297.862 762.309 298.715 759.263 300.187C745.547 306.986 744.444 311.386 753.582 323.968C754.07 324.87 754.181 325.928 753.892 326.912C744.341 330.826 749.329 340.333 746.18 346.749C743.59 352.047 740.029 355.079 734.098 355.329C732.206 355.523 730.3 355.129 728.638 354.203C726.977 353.276 725.641 351.861 724.812 350.149C722.06 344.969 724.238 341.128 727.843 336.507C731.92 340.922 727.446 349.413 735.319 349.443C739.205 349.443 740.573 345.557 740.941 342.084C741.456 337.081 743.443 331.15 730.434 331.474C740.367 327.206 742.516 322.438 741.397 316.066C740.897 313.226 743.134 309.134 740.205 307.677C736.924 306.015 732.847 307.236 729.389 309.149C727.402 310.238 724.974 311.46 725.562 314.123C726.445 318.362 729.3 316.61 731.655 315.595C733.524 314.756 735.408 314.3 736.394 316.507C737.38 318.715 735.643 320.054 733.98 320.922C729.3 323.306 724.444 324.366 720.632 319.657C716.821 314.947 718.984 310.518 722.766 306.706C727.946 301.482 735.202 301.173 741.618 299.848C750.286 297.979 758.571 294.433 769.388 291.357Z" />
    <path d="M340.463 407.47C337.123 412.812 331.898 414.048 326.998 414.475C318.006 415.299 316.137 421.068 315.799 428.308C315.534 433.371 311.928 449.883 309.912 453.812C306.513 460.331 301.156 463.51 294.004 461.17C288.117 459.228 286.042 454.474 287.955 448.44C288.735 445.924 289.692 442.804 293.091 443.687C296.491 444.57 294.563 447.219 293.945 449.191C293.692 449.809 293.573 450.474 293.596 451.142C293.619 451.809 293.784 452.464 294.078 453.064C294.373 453.663 294.792 454.193 295.307 454.619C295.821 455.045 296.421 455.357 297.065 455.534C300.626 456.785 303.113 454.518 304.026 451.443C305.497 446.307 310.074 440.081 299.92 436.653C311.192 435.358 309.176 426.351 310.442 420.052C311.457 414.887 306.439 416.785 304.026 416.785C299.846 416.785 294.828 417.565 294.372 422.51C294.004 426.248 297.698 425.453 300.346 424.453C302.421 423.658 304.276 424.114 304.761 426.395C305.247 428.676 303.569 429.721 301.612 430.207C296.638 431.414 291.311 432.12 288.617 426.69C285.924 421.259 288.485 416.785 293.827 413.621C299.714 410.075 306.38 411.944 312.62 410.678C321.582 408.706 331.148 409.825 340.463 407.47Z" />
    <path d="M839.35 305.544C830.314 298.274 827.841 302.968 827.783 312.137C827.722 312.864 827.588 313.584 827.385 314.285C826.502 322.159 823.677 328.796 815.7 331.945C812.124 333.417 808.798 332.607 807.268 328.84C805.296 324.013 809.549 324.189 812.213 323.777C821.837 322.306 824.324 316.198 823.441 307.589C813.14 301.408 804.31 304.558 800.263 316.11C798.07 322.306 796.466 328.751 794.597 335.065L795.452 335.477C798.042 336.875 798.395 330.826 801.794 333.784C809.05 340.127 815.569 336.728 823.398 333.475C828.078 331.503 833.7 333.814 833.14 325.573C832.699 318.332 836.656 312.048 839.35 305.544ZM807.135 316.772C807.812 313.24 809.77 310.415 813.478 309.561C815.847 309.017 816.848 310.709 816.686 312.872C816.421 316.802 813.993 318.921 809.519 319.995C807.856 320.304 806.738 319.039 807.135 316.772Z" />
    <path d="M839.512 305.631C839.472 305.597 839.427 305.567 839.38 305.543L839.512 305.631Z" />
    <path d="M694.306 342.231C691.362 345.38 694.703 350.193 690.597 352.886C683.371 348.765 677.352 344.659 685.211 335.388C686.723 333.634 687.533 331.383 687.484 329.068C687.435 326.753 686.531 324.538 684.946 322.85C682.709 320.201 679.442 320.362 676.543 321.451C672.128 323.144 668.817 326.175 668.581 331.356C668.493 333.225 668.154 335.476 668.993 336.918C672.143 342.231 670.553 346.396 667.669 351.414C664.343 357.301 664.181 364.07 669.906 369C675.292 373.636 681.679 372.326 686.697 368.544C691.301 364.748 697.11 362.723 703.076 362.834C690.244 359.346 700.531 347.764 694.306 342.231ZM677.102 326.808C677.371 326.554 677.701 326.373 678.059 326.282C678.418 326.19 678.794 326.192 679.152 326.286C679.509 326.38 679.837 326.564 680.105 326.82C680.372 327.076 680.569 327.396 680.678 327.75C682.827 332.356 679.516 335.211 676.572 339.244C673.541 334.387 672.893 330.355 677.102 326.808ZM679.942 365.939C674.762 367.205 672.334 363.393 671.598 359.184C670.862 354.975 673.217 348.971 676.44 349.648C680.855 350.59 684.46 355.535 688.213 358.669C687.183 363.805 683.415 365.115 679.942 365.939Z" />
    <path d="M358.477 445.938C357.564 445.099 356.637 444.289 355.725 443.495C346.748 449.793 351.31 442.023 351.31 439.183C351.31 433.002 351.428 426.703 343.952 424.378C337.226 422.303 332.179 425.703 328.117 430.515C324.454 434.917 322.598 440.544 322.922 446.261C323.29 455.798 330.56 460.639 339.331 456.798C346.1 453.855 352.369 449.823 358.874 446.276C358.748 446.156 358.616 446.043 358.477 445.938ZM335.799 452.251C331.119 454.003 329.736 447.984 330.148 444.702C330.943 438.58 331.443 431.075 339.537 429.868C344.423 429.161 343.658 434.003 344.129 437.874C342.466 442.921 341.715 450.044 335.799 452.251Z" />
    <path d="M929.694 310.209C922.998 322.688 909.709 326.956 900.379 321.217C900.379 318.685 898.907 316.007 901.527 313.432C905.029 313.962 906.089 323.38 910.121 318.2C913.903 313.343 910.872 306.427 908.208 300.54C905.383 294.227 903.705 300.29 901.703 300.879L900.762 300.746C899.628 295.816 902.778 292.946 906.177 290.68C909.194 288.679 912.137 287.575 912.932 293.535C913.55 298.186 916.788 302.453 917.656 307.118C918.98 314.447 921.924 316.861 929.694 310.209Z" />
    <path d="M584.461 401.156C583.919 400.7 583.568 400.057 583.475 399.355C583.383 398.653 583.556 397.941 583.961 397.36C584.123 398.611 584.3 399.891 584.461 401.156Z" />
    <path d="M605.638 395.696C602.136 397.168 599.855 392.871 598.148 390.148C596.779 388.029 596.529 385.203 595.778 382.716C598.173 380.477 600.433 378.099 602.548 375.594C603.784 373.975 605.491 371.561 603.401 369.707C600.664 367.294 598.854 370.487 596.735 371.576H596.293C596.396 371.767 596.485 371.944 596.573 372.15C595.543 374.887 593.247 377.212 593.792 380.45C593.703 383.791 592.967 387.234 593.586 390.398C595.057 398.095 592.217 401.553 584.461 401.244C584.299 399.979 584.123 398.698 583.961 397.448C589.185 384.041 584.52 370.09 586.286 356.536C586.742 353.136 582.798 346.632 591.128 346.794C596.073 353.166 590.48 360.553 593.173 367.191C594.071 367.956 594.836 367.809 595.837 366.94C599.546 363.791 603.622 359.185 608.346 364.409C612.54 369.089 610.583 374.931 606.521 378.61C603.652 381.201 601.783 383.173 603.033 386.881C605.977 395.255 609.921 386.999 613.762 387.794C614.983 393.916 608.846 394.401 605.638 395.696Z" />
    <path d="M780.042 341.643C777.188 346.19 773.17 347.103 768.681 344.586C762.957 341.452 763.884 336.021 764.664 330.797C766.724 326.647 771.463 322.35 764.075 318.656C763.572 319.191 763.163 319.808 762.868 320.481C762.662 320.187 762.457 319.922 762.221 319.613C761.526 318.594 760.779 317.612 759.984 316.669C758.321 313.888 755.039 310.592 758.954 308.046C762.869 305.5 762.927 311.195 765.047 312.284C774.141 317.037 775.451 323.351 771.448 332.416C769.506 336.831 771.595 340.598 777.673 339.318C779.954 338.582 780.543 339.568 780.042 341.643Z" />
    <path d="M584.461 401.156C577.869 406.646 574.381 404.188 573.277 396.609C572.965 393.234 572.837 389.844 572.894 386.455C572.806 383.85 573.409 380.495 570.496 379.479C567.582 378.464 566.522 382.349 564.241 383.438C562.343 388.765 560.797 394.078 561.886 399.876C563.358 407.47 560.665 411.355 552.35 409.574C549.598 417.536 543.623 412.062 539.105 412.694C534.337 419.905 528.804 419.788 522.829 414.313C521.918 408.698 522.523 402.942 524.58 397.639C525.463 395.358 524.831 392.827 522.064 392.459C520.151 392.209 520.666 394.667 520.121 395.932C520.121 396.786 520.283 397.654 520.357 398.508C520.564 399.563 520.506 400.654 520.188 401.681C519.869 402.709 519.3 403.641 518.532 404.394C513.528 399.979 517.163 394.328 516.589 389.31C515.309 386.484 511.277 383.541 515.795 380.686C519.194 378.567 519.459 383.217 521.269 384.248C529.937 389.148 533.337 394.976 529.393 405.189C527.421 410.266 530.143 414.549 536.663 409.854C543.123 401.157 538.134 389.472 542.991 378.655C551.453 388.501 542.122 399.95 550.202 407.573C554.808 400.568 555.22 392.695 554.617 384.748C553.91 376.154 557.56 375.918 563.608 379.715C565.183 374.211 569.142 371.444 574.469 372.798C579.796 374.152 578.958 379.465 579.958 383.777C581.033 388.339 575.676 394.976 583.961 397.389C583.564 397.968 583.396 398.673 583.488 399.369C583.581 400.065 583.927 400.701 584.461 401.156Z" />
    <path d="M584.461 401.156C583.919 400.7 583.568 400.057 583.475 399.355C583.383 398.653 583.556 397.941 583.961 397.36C584.123 398.611 584.3 399.891 584.461 401.156Z" />
    <path d="M795.451 335.506C794.42 347.765 784.693 338.376 780.042 341.643C779.263 340.863 778.469 340.171 777.674 339.332C782.089 333.092 783.855 326.087 784.473 318.479C784.723 315.403 782.487 309.34 788.447 310.149C793.421 310.871 790.831 316.242 790.742 319.627C790.742 323.689 790.036 327.75 789.624 331.827C789.212 335.903 791.89 335.579 794.598 335.094L795.451 335.506Z" />
    <path d="M900.791 304.087C900.323 308.295 898.704 312.293 896.111 315.64C895.846 311.048 898.922 307.81 900.791 304.087Z" />
    <path d="M440.698 439.109C440.036 443.524 438.623 447.719 433.605 450.883C431.486 446.173 435.812 442.892 433.472 439.109C431.706 436.284 433.355 433.679 436.636 433.591C439.918 433.502 441.081 436.24 440.698 439.109Z" />
    <path d="M762.868 320.511C761.794 322.909 762.339 325.603 762.309 328.207C760.676 325.058 758.954 321.879 762.221 319.642C762.802 319.256 763.423 318.935 764.075 318.686C763.572 319.221 763.163 319.838 762.868 320.511Z" />
    <path d="M792.051 303.292C791.683 305.632 790.683 307.707 787.842 307.324C786.895 307.231 786.023 306.767 785.417 306.034C784.811 305.301 784.518 304.357 784.605 303.41C784.56 302.846 784.641 302.279 784.84 301.75C785.04 301.22 785.355 300.742 785.761 300.348C786.167 299.954 786.656 299.655 787.191 299.472C787.726 299.289 788.295 299.227 788.858 299.289C791.036 299.363 791.816 301.187 792.051 303.292Z" />
    <path d="M543.506 378.537C543.046 378.596 542.579 378.562 542.132 378.437C541.685 378.312 541.268 378.098 540.905 377.808C540.543 377.519 540.242 377.159 540.022 376.751C539.801 376.342 539.665 375.894 539.621 375.432C539.283 372.827 540.813 371.414 543.345 371.017C544.269 370.942 545.185 371.231 545.9 371.822C546.614 372.413 547.07 373.259 547.171 374.181C547.583 376.844 546.008 378.375 543.506 378.537Z" />
    <path d="M762.868 320.511C761.794 322.909 762.339 325.603 762.309 328.207C761.75 329.753 762.162 332.239 759.646 332.18C757.129 332.121 756.982 329.943 757.953 328.339C760.22 324.645 759.16 320.54 759.984 316.684L764.075 318.686C763.572 319.221 763.163 319.838 762.868 320.511Z" />
    <path d="M900.791 304.087C900.323 308.295 898.704 312.293 896.111 315.64C892.888 309.856 895.066 306.251 900.791 304.087Z" />
    <path d="M647.978 373.431C643.872 377.61 640.296 382.555 635.542 385.793C628.773 390.384 623.402 387.735 620.414 380.245C621.283 379.479 622.077 378.773 622.769 378.155C623.14 378.098 623.519 378.155 623.857 378.317C626.492 379.406 628.272 385.174 631.466 381.26C633.791 378.449 632.937 373.504 630.2 370.105C627.463 366.705 625.785 362.364 621.15 360.76C620.927 360.99 620.72 361.236 620.532 361.496C617.426 365.337 617.927 369.825 618.501 374.358C614.88 368.045 614.233 362.084 620.458 356.89C623.048 351.93 624.314 349.149 628.729 356.595C632.481 362.938 634.512 372.562 644.917 373.092C646.226 369.707 647.521 366.308 649.332 361.613C651.142 366.808 650.965 370.281 647.978 373.431Z" />
    <path d="M1101.14 271.372H1100.85C1100.17 271.372 1099.37 271.608 1098.98 271.269C1093.75 266.472 1088.57 265.191 1083.26 271.107C1083.54 270.003 1083.64 268.859 1083.55 267.723C1083.36 261.983 1080.4 255.582 1087.25 251.432C1087.45 251.297 1087.65 251.174 1087.87 251.064C1091.54 251.682 1095.22 252.285 1098.89 252.874C1099.05 252.918 1099.22 252.947 1099.39 252.962C1099.56 259.055 1096.83 265.442 1101.04 271.166C1101.06 271.241 1101.09 271.311 1101.14 271.372Z" />
    <path d="M1093.87 258.157C1093.49 259.923 1092.22 260.247 1090.72 260.041C1090.36 260.035 1090.01 259.943 1089.7 259.772C1089.39 259.601 1089.12 259.357 1088.92 259.06C1088.73 258.764 1088.6 258.424 1088.56 258.069C1088.53 257.714 1088.57 257.356 1088.7 257.024C1088.98 256.594 1089.35 256.236 1089.79 255.979C1090.23 255.723 1090.73 255.577 1091.24 255.552C1091.59 255.511 1091.95 255.549 1092.28 255.665C1092.62 255.78 1092.93 255.97 1093.18 256.221C1093.43 256.471 1093.63 256.775 1093.75 257.11C1093.87 257.445 1093.91 257.803 1093.87 258.157Z" />
</g>
</svg>
