<svg width="774" height="360" viewBox="0 0 774 360" fill="none" xmlns="http://www.w3.org/2000/svg">
    <g id="logo" fill="currentColor">
        <path
            d="M109.319 154.9C101.584 146.842 91.2769 141.739 80.1791 140.47C65.2591 138.57 51.6191 141.57 40.1791 153.71C39.3891 148.84 38.8291 145.38 38.2691 141.88C26.6291 145.15 15.2691 148.45 3.91911 151.47C-1.32089 152.85 1.11911 156.53 1.02911 159.47C0.939113 163.07 3.02911 163.77 6.02911 163.1C14.2491 161.25 16.8891 165.1 17.4591 172.82C20.2191 210.154 23.2191 247.487 26.4591 284.82C27.1391 292.75 22.9291 295.41 16.1391 295.97C9.72911 296.5 12.9291 301.18 12.5891 304.17C12.0891 308.34 15.0191 307.6 17.6891 307.32C33.8091 305.65 49.9291 303.89 66.1691 303.72C67.7591 303.72 69.7591 304.48 70.4491 301.77C71.8391 296.28 68.8791 292.02 62.9891 292.22C56.1091 292.45 52.4191 289.97 51.9891 282.7C51.1991 268.9 49.9891 255.13 48.9891 240.57C77.7191 251.41 102.349 244.74 116.259 223.19C129.529 202.47 126.499 172.54 109.319 154.9ZM91.1491 218.16C85.4191 231.94 68.2491 236.67 55.3191 229.04C48.6391 225.1 47.5491 218.44 46.7591 211.83C45.7591 202.92 45.3191 193.92 44.7591 187.07C44.5191 179.3 44.3191 173.61 46.6291 168.27C50.1891 159.96 56.6291 155.33 65.5691 154.5C75.1391 153.58 83.1491 157.12 87.7291 165.5C96.9991 182.41 98.5891 200.28 91.1491 218.16Z" />
        <path
            d="M128.189 100.78C128.22 98.2055 128.759 95.6622 129.775 93.296C130.79 90.9298 132.263 88.7871 134.107 86.9907C135.952 85.1942 138.133 83.7793 140.525 82.8269C142.918 81.8744 145.474 81.4032 148.049 81.4403C153.3 81.4588 158.329 83.5627 162.029 87.289C165.729 91.0154 167.798 96.059 167.779 101.31C167.761 106.562 165.657 111.59 161.93 115.29C158.204 118.991 153.16 121.059 147.909 121.04C145.265 121.071 142.642 120.563 140.201 119.549C137.759 118.535 135.548 117.034 133.704 115.14C131.86 113.245 130.42 110.995 129.472 108.526C128.524 106.058 128.087 103.423 128.189 100.78Z" />
        <path
            d="M169.999 136.71C172.999 160.92 176.309 185.09 179.409 209.29C180.849 220.59 181.149 221.29 192.589 221.24C198.589 221.24 196.249 225.69 197.269 228.24C198.569 231.49 196.879 232.7 193.519 232.93C178.105 233.967 162.772 235.971 147.609 238.93C144.279 239.6 141.499 239.55 141.109 234.98C140.799 231.3 139.889 227.89 145.409 227.35C153.409 226.58 155.129 221.96 153.919 214.35C151.129 196.86 149.189 179.23 146.789 161.68C146.199 157.35 145.869 152.42 138.869 153.79C136.089 152.22 131.069 158.25 129.359 150.72C128.259 145.87 128.939 143.35 134.179 141.87C143.829 139.15 153.389 136.07 162.709 132.44C167.839 130.42 169.369 131.54 169.999 136.71Z" />
        <path
            d="M190.429 141.5C190.069 138.73 187.779 135.69 191.059 132.96C200.539 125.13 208.399 116.2 211.219 103.74C212.039 100.19 215.569 100.64 218.219 100.33C222.049 99.8902 221.079 103.12 221.479 105.1C222.635 110.1 223.526 115.157 224.149 120.25C224.529 124.61 226.499 125.25 230.239 124.39C234.239 123.46 238.359 123.05 242.349 122.08C248.049 120.67 250.409 122.2 251.179 128.5C251.759 133.18 250.599 134.3 246.559 134.81C241.729 135.41 236.949 136.71 232.099 137.1C227.709 137.46 227.339 139.33 228.019 143.16C231.179 160.82 234.019 178.56 237.019 196.27C237.219 197.52 237.619 198.75 237.889 200C238.939 204.93 240.349 209.88 246.199 210.78C252.279 211.72 256.789 208.56 259.279 203.29C261.549 198.51 263.529 196.65 268.909 199.94C273.039 202.45 272.429 204.84 271.219 208.19C267.159 219.4 254.569 226.41 238.289 226.42C223.169 226.42 214.659 219.07 212.069 203.77C208.989 185.58 205.729 167.4 202.889 149.16C202.199 144.62 201.389 141.85 195.889 143.24C194.149 143.69 190.909 145.26 190.429 141.5Z" />
        <path
            d="M281.409 119.5C295.409 104.06 313.079 98.2803 333.529 100.23C338.209 100.68 342.599 102.23 346.009 105.67C350.799 110.54 351.009 118.42 346.509 123.07C342.009 127.72 334.999 127.69 329.999 122.36C325.339 117.36 322.129 110.81 313.169 114.43C303.889 118.17 298.729 124.78 296.889 134.26C296.199 137.77 295.889 141.35 295.609 143.37C295.849 153.74 297.369 162.37 300.609 170.5C304.669 180.84 310.249 190.13 322.769 191.61C335.909 193.17 345.569 187.29 352.769 176.67C354.579 174 355.169 170.36 360.579 173.15C367.329 176.61 367.229 179.63 363.359 185.15C346.839 208.78 309.559 214.89 287.209 197.35C264.229 179.37 261.409 141.52 281.409 119.5Z" />
        <path
            d="M339.269 48.1102C338.789 45.5802 336.909 42.6502 340.729 40.7902C351.579 35.5002 362.369 30.0902 373.189 24.7902C377.299 22.7902 377.129 26.0302 377.779 28.4602C382.929 47.5202 388.109 66.5602 393.659 87.0102C402.569 73.8702 413.939 67.3202 428.319 65.7302C446.319 63.7302 458.759 71.7302 463.809 89.3502C468.189 104.62 472.339 119.97 476.079 135.41C477.939 143.09 481.629 146.95 489.609 144.36C495.829 142.36 494.609 147.47 495.909 150.26C497.709 154.2 495.239 155.1 492.059 155.75C477.198 158.756 462.531 162.657 448.139 167.43C445.489 168.33 442.479 169.69 441.749 165.18C441.239 162.03 437.969 158.06 443.949 156.62C452.669 154.53 453.519 149.13 451.219 141.46C446.869 126.99 443.379 112.25 438.949 97.8002C435.459 86.4502 429.269 81.1902 421.809 81.7202C412.629 82.3902 402.369 92.0302 400.809 101.72C399.809 107.65 400.809 113.52 402.279 119.26C405.279 130.93 408.609 142.52 411.509 154.26C413.099 160.69 416.809 163.65 423.229 161.9C428.809 160.37 430.129 163.2 431.309 167.68C432.809 173.39 428.499 172.75 425.599 173.39C411.275 176.471 397.123 180.3 383.199 184.86C380.499 185.76 377.149 187.53 376.339 182.4C375.769 178.86 373.179 175.13 379.569 173.76C386.139 172.35 388.689 168.12 386.759 161.14C377.849 128.77 369.309 96.2902 360.269 63.9302C356.899 51.8402 356.439 51.8002 343.649 52.2402C340.279 52.2502 339.689 50.3202 339.269 48.1102Z" />
        <path
            d="M581.999 109.77C575.619 105.53 575.999 111.86 574.559 114.33C561.689 136.56 537.929 137.33 523.829 115.92C520.274 110.278 517.7 104.073 516.219 97.5703C514.919 92.4503 516.049 90.3903 521.489 89.3503C538.919 86.0003 556.199 82.0903 573.549 78.4003C581.739 76.6703 582.829 74.7403 580.189 66.6203C576.329 54.7403 568.189 47.0803 556.519 43.1903C522.279 31.8003 487.399 57.9403 487.289 95.0003C487.229 119.88 501.549 139.39 524.419 145.53C548.539 152.01 573.739 141.88 586.189 121.71C590.469 114.82 586.809 112.91 581.999 109.77ZM515.119 72.6003C516.119 61.2703 524.509 53.6003 536.669 53.6603C538.649 53.4501 540.65 53.7161 542.506 54.4362C544.362 55.1564 546.019 56.3098 547.339 57.8003C549.939 60.5903 552.819 64.1103 552.049 67.8803C551.279 71.6503 546.579 70.5303 543.569 71.2503C535.569 73.1603 527.569 74.6803 519.639 76.6503C515.659 77.6603 514.759 76.4303 515.119 72.6003Z" />
        <path
            d="M599.379 38.7002C607.679 38.0902 615.599 35.7002 623.289 32.8402C630.289 30.2602 633.209 32.4903 633.909 39.3203C634.069 40.8203 634.409 42.3202 634.909 44.9402C645.589 34.1502 657.149 29.0103 671.269 32.3203C679.189 34.2003 684.269 40.6003 683.269 47.1003C682.519 51.9203 680.079 55.8003 674.899 57.1003C669.569 58.4503 665.459 56.6502 662.099 52.3102C656.529 45.1102 653.659 44.9303 646.619 50.8203C641.619 55.0503 639.619 60.8202 638.789 67.0402C636.699 83.1802 638.789 99.3502 638.409 115.5C638.279 121.43 641.859 123.66 647.339 123.55C652.109 123.46 655.689 123.85 655.409 130.48C655.119 137.91 649.999 135.43 646.649 135.29C631.969 134.64 617.319 135.29 602.649 135.86C599.849 135.97 596.579 136.57 597.199 131.97C597.609 128.97 595.259 124.97 601.519 124.31C612.049 123.12 612.779 121.52 612.519 110.9C612.129 93.9002 612.519 77.0102 611.459 60.0602C610.999 52.5702 608.149 49.0602 600.459 50.3402C597.109 50.9102 595.329 49.7702 595.899 46.3402C596.359 43.5602 593.599 39.1102 599.379 38.7002Z" />
        <path
            d="M695.249 40.9402C693.249 38.7002 694.159 36.9402 696.689 35.5602C701.179 33.0802 705.689 30.4802 708.349 25.2102C698.609 20.8202 695.349 14.8502 698.409 7.80021C700.939 1.95021 708.699 -1.09979 714.779 1.80021C721.709 5.10021 723.869 11.4602 723.569 18.4802C723.109 30.0302 711.479 42.8402 700.149 45.4102C695.879 46.3602 696.669 42.5602 695.249 40.9402Z" />
        <path
            d="M739.389 171.27C739.389 171.37 739.389 171.46 739.389 171.55C739.524 171.459 739.664 171.375 739.809 171.3C739.639 171.29 739.509 171.29 739.389 171.27ZM739.389 171.27C739.389 171.37 739.389 171.46 739.389 171.55C739.524 171.459 739.664 171.375 739.809 171.3C739.639 171.29 739.509 171.29 739.389 171.27ZM739.389 171.27C739.389 171.37 739.389 171.46 739.389 171.55C739.524 171.459 739.664 171.375 739.809 171.3C739.639 171.29 739.509 171.29 739.389 171.27ZM739.389 171.27C739.389 171.37 739.389 171.46 739.389 171.55C739.524 171.459 739.664 171.375 739.809 171.3C739.639 171.29 739.509 171.29 739.389 171.27ZM739.389 171.27C739.389 171.37 739.389 171.46 739.389 171.55C739.524 171.459 739.664 171.375 739.809 171.3C739.639 171.29 739.509 171.29 739.389 171.27ZM739.389 171.27C739.389 171.37 739.389 171.46 739.389 171.55C739.524 171.459 739.664 171.375 739.809 171.3C739.639 171.29 739.509 171.29 739.389 171.27ZM739.389 171.27C739.389 171.37 739.389 171.46 739.389 171.55C739.524 171.459 739.664 171.375 739.809 171.3C739.639 171.29 739.509 171.29 739.389 171.27ZM741.459 165.18C738.831 165.337 736.308 166.263 734.203 167.845C732.099 169.427 730.507 171.593 729.627 174.074C728.746 176.554 728.615 179.239 729.251 181.794C729.887 184.348 731.262 186.659 733.203 188.437C735.144 190.215 737.565 191.383 740.166 191.793C742.766 192.203 745.429 191.839 747.824 190.745C750.218 189.651 752.237 187.875 753.629 185.641C755.02 183.407 755.723 180.812 755.649 178.18C755.589 176.389 755.172 174.628 754.423 173C753.674 171.372 752.607 169.909 751.286 168.699C749.964 167.488 748.414 166.553 746.727 165.949C745.04 165.345 743.249 165.084 741.459 165.18ZM748.709 185C745.849 181.11 747.709 176.77 747.589 172.63C747.474 172.62 747.36 172.6 747.249 172.57C744.749 172.17 742.249 171.76 739.759 171.34C739.639 171.34 739.509 171.34 739.389 171.34C739.269 171.34 739.389 171.53 739.389 171.62C734.739 174.44 736.749 178.79 736.879 182.69C736.94 183.463 736.873 184.24 736.679 184.99C740.289 180.99 743.809 181.84 747.359 185.1C747.589 185.33 748.169 185.19 748.629 185.17C744.029 190.58 739.439 189.82 734.829 185.1C730.719 180.1 730.879 175.39 735.899 171.1C740.479 167.65 744.789 166.3 748.239 172.51C754.049 176.39 752.859 180.62 748.709 185ZM739.389 171.31C739.389 171.41 739.389 171.5 739.389 171.59C739.524 171.499 739.664 171.415 739.809 171.34C739.639 171.29 739.509 171.29 739.389 171.27V171.31ZM739.389 171.31C739.389 171.41 739.389 171.5 739.389 171.59C739.524 171.499 739.664 171.415 739.809 171.34C739.639 171.29 739.509 171.29 739.389 171.27V171.31ZM739.389 171.31C739.389 171.41 739.389 171.5 739.389 171.59C739.524 171.499 739.664 171.415 739.809 171.34C739.639 171.29 739.509 171.29 739.389 171.27V171.31ZM739.389 171.31C739.389 171.41 739.389 171.5 739.389 171.59C739.524 171.499 739.664 171.415 739.809 171.34C739.639 171.29 739.509 171.29 739.389 171.27V171.31ZM739.389 171.31C739.389 171.41 739.389 171.5 739.389 171.59C739.524 171.499 739.664 171.415 739.809 171.34C739.639 171.29 739.509 171.29 739.389 171.27V171.31ZM739.389 171.31C739.389 171.41 739.389 171.5 739.389 171.59C739.524 171.499 739.664 171.415 739.809 171.34C739.639 171.29 739.509 171.29 739.389 171.27V171.31ZM739.389 171.31C739.389 171.41 739.389 171.5 739.389 171.59C739.524 171.499 739.664 171.415 739.809 171.34C739.639 171.29 739.509 171.29 739.389 171.27V171.31Z" />
        <path
            d="M231.889 277.57C229.619 281.2 226.069 282.04 222.739 282.33C216.629 282.89 215.359 286.81 215.129 291.73C214.949 295.17 212.499 306.39 211.129 309.06C208.819 313.49 205.179 315.65 200.319 314.06C196.319 312.74 194.909 309.51 196.209 305.41C196.739 303.7 197.389 301.58 199.699 302.18C202.009 302.78 200.699 304.58 200.279 305.92C200.107 306.34 200.027 306.792 200.042 307.246C200.058 307.7 200.17 308.145 200.37 308.552C200.57 308.959 200.855 309.32 201.205 309.609C201.554 309.898 201.961 310.11 202.399 310.23C204.819 311.08 206.509 309.54 207.129 307.45C208.129 303.96 211.239 299.73 204.339 297.4C211.999 296.52 210.629 290.4 211.489 286.12C212.179 282.61 208.769 283.9 207.129 283.9C204.289 283.9 200.879 284.43 200.569 287.79C200.319 290.33 202.829 289.79 204.629 289.11C206.039 288.57 207.299 288.88 207.629 290.43C207.959 291.98 206.819 292.69 205.489 293.02C202.109 293.84 198.489 294.32 196.659 290.63C194.829 286.94 196.569 283.9 200.199 281.75C204.199 279.34 208.729 280.61 212.969 279.75C219.059 278.41 225.559 279.17 231.889 277.57Z" />
        <path
            d="M287.889 298.14C283.049 297.88 284.939 294.21 284.739 291.82C284.149 285.12 285.979 278.61 286.579 271.99C286.749 270.22 288.889 267.63 285.779 266.87C282.229 266.02 282.909 269.62 282.119 271.49C280.789 274.64 283.249 279.79 279.119 281.09C271.359 283.54 268.119 288.76 266.789 296.09C266.449 297.89 265.469 300.01 262.569 300.09C262.679 299.02 262.789 298.09 262.869 297.09C263.189 292.09 263.549 286.64 257.049 285.54C251.189 284.54 247.459 288.26 245.289 293.42C244.109 296.23 243.239 299.17 242.289 302.07C236.189 306.35 239.289 301.07 239.289 299.14C239.289 294.94 239.369 290.66 234.289 289.08C229.719 287.67 226.289 289.98 223.529 293.25C221.04 296.241 219.779 300.065 219.999 303.95C220.249 310.43 225.189 313.72 231.149 311.11C235.749 309.11 240.009 306.37 244.429 303.96C247.999 310.61 252.809 309.31 257.949 306.1C261.289 304.04 264.789 300.27 268.739 303.1C272.689 305.93 275.389 305.36 278.019 302.28C279.889 300.09 280.899 299.78 283.219 301.83C284.869 303.27 287.219 302.02 288.569 300.29C289.099 299.6 289.589 298.22 287.889 298.14ZM228.719 308C225.539 309.19 224.599 305.1 224.879 302.87C225.419 298.71 225.759 293.61 231.259 292.79C234.579 292.31 234.059 295.6 234.379 298.23C233.249 301.66 232.739 306.5 228.719 308ZM254.599 303.84C254.599 304.22 253.359 304.95 252.719 304.9C249.279 304.65 248.879 301.98 248.919 299.41C248.999 294.91 249.919 290.19 254.919 289.07C258.209 288.34 258.139 292.07 258.409 294.54C258.859 298.32 254.649 300.22 254.599 303.83V303.84ZM280.129 289.78C278.859 293.57 279.729 299.36 274.129 300.46C271.569 300.98 271.939 297.12 272.019 294.95C272.209 290.57 273.909 286.68 278.299 285.55C281.059 284.84 279.859 287.88 280.129 289.77V289.78Z" />
        <path
            d="M299.999 299.07C299.549 302.07 298.589 304.92 295.179 307.07C293.739 303.87 296.679 301.64 295.089 299.07C293.889 297.15 295.009 295.38 297.239 295.32C299.469 295.26 300.259 297.12 299.999 299.07Z" />
        <path
            d="M336.569 256.69C329.729 254.69 323.189 255.77 318.229 261.4C314.489 265.63 313.229 270.4 317.309 275.23C318.169 276.23 319.379 277.01 320.679 276.38C322.229 275.63 321.609 274.38 321.069 273.15C317.949 266.05 320.569 261.93 327.889 260.31C335.269 257.71 339.129 262.05 341.409 267.85C343.919 274.22 344.969 281.03 339.079 286.36C337.994 287.295 336.661 287.897 335.242 288.092C333.822 288.287 332.377 288.068 331.079 287.46C328.019 286.18 329.079 283.71 329.229 281.52C329.599 275.94 328.499 270.24 330.799 264.81C332.069 261.81 329.799 262.11 327.959 262.1C324.269 267.6 324.959 273.86 324.889 279.97C324.839 282.58 325.339 285.09 321.059 284.7C318.059 284.42 314.749 285.18 313.979 289.12C313.559 291.29 313.869 293.38 315.979 294.49C317.456 295.319 319.166 295.633 320.84 295.384C322.515 295.134 324.059 294.334 325.229 293.11C327.079 291.37 328.669 290.98 331.229 291.2C341.939 292.14 347.619 286.73 347.789 276.02C347.999 267 343.469 258.69 336.569 256.69ZM320.789 291.69C319.419 291.91 318.069 291.59 318.229 289.85C318.369 288.39 319.649 287.79 320.999 287.69C322.059 287.63 322.999 287.97 323.219 289.24C323.209 289.881 322.949 290.492 322.495 290.944C322.042 291.395 321.429 291.653 320.789 291.66V291.69Z" />
        <path
            d="M397.689 273.28C397.321 272.97 397.082 272.533 397.019 272.056C396.956 271.579 397.074 271.095 397.349 270.7C397.459 271.55 397.579 272.42 397.689 273.28Z" />
        <path
            d="M405.999 253.15C405.999 253.26 405.919 253.38 405.889 253.49C405.829 253.35 405.769 253.23 405.699 253.1L405.999 253.15Z" />
        <path
            d="M423.719 257.65C423.249 258.08 422.719 258.55 422.119 259.07C422.509 258.38 422.999 257.73 423.719 257.65Z" />
        <path
            d="M472.329 233.24C470.329 235.38 472.599 238.65 469.809 240.48C464.899 237.68 460.809 234.89 466.149 228.59C467.177 227.399 467.727 225.869 467.694 224.296C467.66 222.723 467.046 221.217 465.969 220.07C464.449 218.27 462.229 218.38 460.259 219.12C457.259 220.27 455.009 222.33 454.849 225.85C454.789 227.12 454.559 228.65 455.129 229.63C457.269 233.24 456.189 236.07 454.229 239.48C451.969 243.48 451.859 248.08 455.749 251.43C459.409 254.58 463.749 253.69 467.159 251.12C470.288 248.541 474.235 247.165 478.289 247.24C469.569 244.87 476.559 237 472.329 233.24ZM460.639 222.76C460.822 222.588 461.046 222.465 461.29 222.402C461.533 222.34 461.789 222.341 462.032 222.405C462.275 222.47 462.498 222.594 462.679 222.769C462.861 222.943 462.995 223.16 463.069 223.4C464.529 226.53 462.279 228.47 460.279 231.21C458.219 227.91 457.779 225.17 460.639 222.76ZM462.569 249.35C459.049 250.21 457.399 247.62 456.899 244.76C456.399 241.9 457.999 237.82 460.189 238.28C463.189 238.92 465.639 242.28 468.189 244.41C467.489 247.9 464.929 248.79 462.569 249.35Z" />
        <path
            d="M523.349 198.67C521.149 203.09 518.539 203.67 516.469 204.67C507.149 209.29 506.399 212.28 512.609 220.83C512.94 221.443 513.016 222.162 512.819 222.83C506.329 225.49 509.719 231.95 507.579 236.31C505.819 239.91 503.399 241.97 499.369 242.14C498.083 242.272 496.788 242.004 495.659 241.375C494.531 240.745 493.623 239.783 493.059 238.62C491.189 235.1 492.669 232.49 495.119 229.35C497.889 232.35 494.849 238.12 500.199 238.14C502.839 238.14 503.769 235.5 504.019 233.14C504.369 229.74 505.719 225.71 496.879 225.93C503.629 223.03 505.089 219.79 504.329 215.46C503.989 213.53 505.509 210.75 503.519 209.76C501.289 208.63 498.519 209.46 496.169 210.76C494.819 211.5 493.169 212.33 493.569 214.14C494.169 217.02 496.109 215.83 497.709 215.14C498.979 214.57 500.259 214.26 500.929 215.76C501.599 217.26 500.419 218.17 499.289 218.76C496.109 220.38 492.809 221.1 490.219 217.9C487.629 214.7 489.099 211.69 491.669 209.1C495.189 205.55 500.119 205.34 504.479 204.44C510.369 203.17 515.999 200.76 523.349 198.67Z" />
        <path
            d="M570.889 208.31C564.749 203.37 563.069 206.56 563.029 212.79C562.988 213.285 562.897 213.774 562.759 214.25C562.159 219.6 560.239 224.11 554.819 226.25C552.389 227.25 550.129 226.7 549.089 224.14C547.749 220.86 550.639 220.98 552.449 220.7C558.989 219.7 560.679 215.55 560.079 209.7C553.079 205.5 547.079 207.64 544.329 215.49C542.839 219.7 541.749 224.08 540.479 228.37C538.639 228.7 536.789 229.07 537.099 226.15C537.409 223.23 537.819 220.62 537.859 217.86C537.919 215.56 539.679 211.91 536.299 211.42C532.299 210.87 533.769 214.99 533.599 217.08C533.179 222.22 531.999 227.01 528.979 231.25C524.849 232.12 523.429 229.55 524.749 226.56C527.469 220.4 526.579 216.11 520.399 212.88C518.959 212.14 518.899 208.29 516.259 210C513.619 211.71 515.829 214 516.959 215.86C516.399 218.48 517.119 221.27 515.579 223.78C514.919 224.87 514.949 226.32 516.729 226.39C518.509 226.46 518.159 224.74 518.539 223.69C518.539 221.92 518.189 220.09 518.919 218.46C519.12 218.003 519.397 217.584 519.739 217.22C524.739 219.73 521.539 222.65 520.139 225.47C519.609 229.02 518.979 232.71 522.869 234.84C525.869 236.53 528.649 235.91 530.589 232.84C533.749 230.62 540.359 237 541.059 228.67C542.819 229.62 543.059 225.51 545.369 227.52C550.299 231.83 554.729 229.52 560.049 227.31C563.229 225.97 567.049 227.54 566.669 221.94C566.369 217 569.059 212.73 570.889 208.31ZM548.999 215.94C549.459 213.54 550.789 211.62 553.309 211.04C554.919 210.67 555.599 211.82 555.489 213.29C555.309 215.96 553.659 217.4 550.619 218.13C549.489 218.34 548.729 217.48 548.999 215.94Z" />
        <path
            d="M538.749 206.78C538.499 208.37 537.819 209.78 535.889 209.52C535.246 209.457 534.653 209.142 534.241 208.644C533.829 208.145 533.631 207.504 533.689 206.86C533.659 206.477 533.714 206.092 533.849 205.732C533.985 205.373 534.199 205.047 534.475 204.78C534.751 204.512 535.083 204.309 535.447 204.185C535.81 204.06 536.197 204.018 536.579 204.06C538.059 204.11 538.589 205.35 538.749 206.78Z" />
        <path
            d="M571.059 208.44L570.979 208.36C570.952 208.337 570.921 208.317 570.889 208.3H571.029C571.033 208.348 571.043 208.395 571.059 208.44Z" />
        <path
            d="M602.619 213.55C603.149 206.37 604.829 199.41 606.249 192.41C606.589 190.73 609.719 187.74 605.679 186.82C602.389 186.06 602.389 189.51 601.959 191.51C600.829 196.76 600.219 201.51 593.069 202.79C588.469 203.62 586.309 208.68 585.199 213.38C584.439 216.55 583.789 219.79 579.659 221.89C579.909 217.1 580.219 213.09 580.309 209.07C580.389 206.33 579.689 203.65 576.309 203.68C573.519 203.68 570.529 204.27 571.019 208.27C573.939 207.62 576.019 207.94 575.469 211.85C575.046 214.632 574.793 217.437 574.709 220.25C574.619 225.25 577.549 227.48 581.389 224.45C584.529 221.97 586.799 223.77 589.389 223.45C594.609 222.85 599.519 220.09 605.169 221.31C606.049 221.5 607.599 219.65 607.569 217.42C603.409 219.37 602.339 217.37 602.619 213.55ZM593.259 219.65C592.82 219.889 592.343 220.051 591.849 220.13C591.128 219.85 590.514 219.349 590.094 218.699C589.674 218.049 589.469 217.283 589.509 216.51C589.719 211.69 591.179 207.46 595.929 205.21C597.119 204.65 598.749 204.75 598.619 206.58C598.269 211.48 597.229 216.19 593.259 219.65Z" />
        <path
            d="M612.639 207.32C612.321 210.18 611.221 212.896 609.459 215.17C607.269 211.24 608.749 208.79 612.639 207.32Z" />
        <path
            d="M632.279 211.48C627.729 219.96 618.699 222.86 612.359 218.96C612.359 217.24 611.359 215.42 613.139 213.67C615.519 214.03 616.239 220.43 618.979 216.91C621.549 213.61 619.489 208.91 617.679 204.91C615.759 200.62 614.619 204.74 613.259 205.14C613.153 205.179 613.04 205.191 612.928 205.175C612.816 205.159 612.71 205.116 612.619 205.05C611.849 201.7 613.989 199.75 616.299 198.21C618.349 196.85 620.349 196.1 620.889 200.15C621.309 203.31 623.509 206.21 624.099 209.38C624.999 214.36 626.999 216 632.279 211.48Z" />
        <path
            d="M691.929 221C688.279 216.83 688.829 214.69 692.839 211.31C701.309 204.16 709.259 196.42 717.839 188.53C698.589 185.37 680.259 186.53 661.979 186.31C658.719 186.31 656.209 186.47 655.729 181.82C654.319 168 654.089 168.02 639.899 166.95C637.589 166.78 635.269 166.78 632.959 166.75C580.959 166.1 530.459 175.6 480.959 190.41C431.769 205.15 383.499 223 333.469 235.17C278.379 248.55 222.999 260 166.119 262.28C156.799 262.66 156.119 266.56 158.039 273.28C159.959 280 157.109 281.99 151.039 281.95C149.493 281.944 147.948 282.057 146.419 282.29C131.799 284.4 117.129 286.35 101.929 290.4C112.769 298.5 122.929 305.95 132.339 314.27C135.129 316.75 135.699 318.83 134.169 322.18C128.509 334.54 123.079 346.99 117.579 359.39H122.209C122.879 357.99 124.259 358.12 125.489 357.86C149.489 352.51 173.829 350.69 198.289 349.92C202.979 349.76 207.549 349.59 205.889 342.97C203.889 334.86 208.389 333.85 214.889 333.33C246.749 330.72 278.099 324.92 309.329 318.33C363.479 306.81 415.899 289.44 468.419 272.28C515.499 256.92 563.719 246.4 613.189 242.08C618.669 241.6 621.689 242.42 620.529 248.67C619.529 254.08 622.339 255.15 627.099 254.85C638.099 254.14 649.209 253.74 660.269 253.26C680.296 252.439 700.356 253.175 720.269 255.46C710.179 243 701.319 231.79 691.929 221ZM640.049 248.76L645.179 246.98C659.759 240.98 659.799 240.98 658.979 225.29C658.449 215.29 657.869 205.29 657.069 195.35C656.829 192.28 657.069 190.42 660.799 190.45C675.849 190.56 690.939 189.99 707.459 191.72C700.049 198.62 693.729 204.79 687.079 210.62C683.079 214.14 682.349 216.81 686.359 221.26C694.249 229.99 701.419 239.37 710.289 250.18C693.289 248.11 677.819 248.59 662.389 248.42C655.139 250.28 647.759 249.51 640.049 248.79V248.76ZM645.599 242L625.509 249.37C624.379 240.72 620.329 240 645.599 242ZM195.999 342C191.609 340.48 187.329 338.67 182.999 337C183.079 336.52 183.159 336.05 183.249 335.57C187.699 335.34 192.169 335.04 196.619 334.87C198.229 334.87 200.429 333.8 201.099 336.22C201.699 338.39 202.399 341.07 200.859 342.83C199.559 344.21 197.509 342.5 195.999 342ZM134.799 310.35C127.539 304.84 120.699 298.78 113.009 292.41C127.559 288.9 141.309 287.66 154.919 285.41C159.759 284.64 159.839 287.54 160.239 290.61C161.979 303.83 163.879 317.04 165.239 330.3C165.659 334.25 167.239 336.14 170.799 337.3C177.176 339.385 183.404 341.901 189.439 344.83C168.229 347.16 146.969 348.34 125.359 353.3C129.809 342.96 133.279 333.3 138.079 324.3C141.529 318 140.069 314.35 134.799 310.35ZM181.679 331.76C181.679 331.6 181.679 331.45 181.679 331.29C179.619 331.39 177.539 331.29 175.509 331.6C171.309 332.22 169.569 330.49 169.089 326.33C166.979 308.5 164.689 290.67 162.429 272.86C162.009 269.55 161.739 267.21 166.629 266.92C264.819 261.18 358.629 235.79 451.219 204.34C503.999 186.42 557.999 173.94 613.999 171.35C624.509 170.87 635.099 171.63 645.639 171.78C649.729 171.85 651.209 173.55 651.439 177.88C652.399 195.567 653.666 213.234 655.239 230.88C655.599 234.88 655.019 236.26 650.729 236.28C572.969 236.34 499.339 256.48 426.489 281.28C361.389 303.42 294.779 319.82 226.329 327.96C211.479 329.68 196.549 330.5 181.679 331.76Z" />
        <path
            d="M773.449 49.2902V60.0802C770.539 65.5802 770.329 71.8102 768.549 77.6102C767.919 79.6702 768.549 83.6102 764.289 82.3402C761.189 81.4402 756.779 82.5902 756.359 77.0102C756.049 73.0102 754.769 69.0102 753.649 65.0702C753.115 63.0677 752.149 61.2064 750.818 59.6171C749.488 58.0277 747.826 56.7488 745.949 55.8702C740.949 53.5202 735.669 52.6702 731.849 57.4902C728.029 62.3102 729.849 67.3902 733.959 71.2402C740.749 77.5202 747.959 83.3802 754.839 89.5502C768.459 101.71 771.839 117.36 764.019 131.66C756.779 144.93 740.429 151.12 723.839 146.98C719.101 145.773 714.573 143.855 710.409 141.29C706.529 138.92 703.699 134.68 697.899 139.13C695.539 140.95 690.299 139.37 691.699 133.21C693.799 123.95 695.349 114.57 697.279 105.29C697.669 103.38 696.919 99.8002 700.869 101.16C703.869 102.16 708.749 100.36 708.769 106.25C708.77 111.658 709.788 117.018 711.769 122.05C715.259 130.88 723.259 136.12 732.189 135.66C741.789 135.15 746.759 126.66 742.369 118.12C740.199 113.92 736.579 110.99 733.069 107.95C727.629 103.24 721.969 98.7402 716.889 93.6702C705.579 82.3602 703.599 68.2802 711.069 55.7802C718.199 43.8402 732.699 38.8702 747.569 43.3002C749.289 43.8102 751.349 44.1502 752.569 45.3002C758.709 51.3302 766.499 47.9202 773.449 49.2902Z" />
        <path
            d="M109.319 154.9C101.584 146.842 91.2769 141.739 80.1791 140.47C65.2591 138.57 51.6191 141.57 40.1791 153.71C39.3891 148.84 38.8291 145.38 38.2691 141.88C26.6291 145.15 15.2691 148.45 3.91911 151.47C-1.32089 152.85 1.11911 156.53 1.02911 159.47C0.939113 163.07 3.02911 163.77 6.02911 163.1C14.2491 161.25 16.8891 165.1 17.4591 172.82C20.2191 210.154 23.2191 247.487 26.4591 284.82C27.1391 292.75 22.9291 295.41 16.1391 295.97C9.72911 296.5 12.9291 301.18 12.5891 304.17C12.0891 308.34 15.0191 307.6 17.6891 307.32C33.8091 305.65 49.9291 303.89 66.1691 303.72C67.7591 303.72 69.7591 304.48 70.4491 301.77C71.8391 296.28 68.8791 292.02 62.9891 292.22C56.1091 292.45 52.4191 289.97 51.9891 282.7C51.1991 268.9 49.9891 255.13 48.9891 240.57C77.7191 251.41 102.349 244.74 116.259 223.19C129.529 202.47 126.499 172.54 109.319 154.9ZM91.1491 218.16C85.4191 231.94 68.2491 236.67 55.3191 229.04C48.6391 225.1 47.5491 218.44 46.7591 211.83C45.7591 202.92 45.3191 193.92 44.7591 187.07C44.5191 179.3 44.3191 173.61 46.6291 168.27C50.1891 159.96 56.6291 155.33 65.5691 154.5C75.1391 153.58 83.1491 157.12 87.7291 165.5C96.9991 182.41 98.5891 200.28 91.1491 218.16Z" />
        <path
            d="M492.059 155.72C477.197 158.726 462.531 162.627 448.139 167.4C445.489 168.3 442.479 169.66 441.749 165.15C441.239 162 437.969 158.03 443.949 156.59C452.669 154.5 453.519 149.1 451.219 141.43C446.869 126.96 443.379 112.22 438.949 97.7702C435.459 86.4202 429.269 81.1602 421.809 81.6902C412.629 82.3602 402.369 92.0002 400.809 101.69C399.809 107.62 400.809 113.49 402.279 119.23C405.279 130.9 408.609 142.49 411.509 154.23C413.099 160.66 416.809 163.62 423.229 161.87C428.809 160.34 430.129 163.17 431.309 167.65C432.809 173.36 428.499 172.72 425.599 173.36C411.275 176.441 397.123 180.27 383.199 184.83C380.499 185.73 377.149 187.5 376.339 182.37C375.769 178.83 373.179 175.1 379.569 173.73C386.139 172.32 388.689 168.09 386.759 161.11C377.849 128.74 369.309 96.2602 360.269 63.9002C356.899 51.8102 356.439 51.7702 343.649 52.2102C340.269 52.3202 339.649 50.3902 339.259 48.2102C338.779 45.6802 336.899 42.7502 340.719 40.8902C351.569 35.6002 362.359 30.1902 373.179 24.8902C377.289 22.8902 377.119 26.1302 377.769 28.5602C382.919 47.6202 388.099 66.6602 393.649 87.1102C402.559 73.9702 413.929 67.4202 428.309 65.8302C446.309 63.8302 458.749 71.8302 463.799 89.4502C468.179 104.72 472.329 120.07 476.069 135.51C477.929 143.19 481.619 147.05 489.599 144.46C495.819 142.46 494.599 147.57 495.899 150.36C497.709 154.17 495.239 155.07 492.059 155.72Z" />
        <path
            d="M581.999 109.77C575.619 105.53 575.999 111.86 574.559 114.33C561.689 136.56 537.929 137.33 523.829 115.92C520.274 110.278 517.7 104.073 516.219 97.5703C514.919 92.4503 516.049 90.3903 521.489 89.3503C538.919 86.0003 556.199 82.0903 573.549 78.4003C581.739 76.6703 582.829 74.7403 580.189 66.6203C576.329 54.7403 568.189 47.0803 556.519 43.1903C522.279 31.8003 487.399 57.9403 487.289 95.0003C487.229 119.88 501.549 139.39 524.419 145.53C548.539 152.01 573.739 141.88 586.189 121.71C590.469 114.82 586.809 112.91 581.999 109.77ZM515.119 72.6003C516.119 61.2703 524.509 53.6003 536.669 53.6603C538.649 53.4501 540.65 53.7161 542.506 54.4362C544.362 55.1564 546.019 56.3098 547.339 57.8003C549.939 60.5903 552.819 64.1103 552.049 67.8803C551.279 71.6503 546.579 70.5303 543.569 71.2503C535.569 73.1603 527.569 74.6803 519.639 76.6503C515.659 77.6603 514.759 76.4303 515.119 72.6003Z" />
        <path
            d="M683.209 47.1002C682.459 51.9202 680.019 55.8002 674.839 57.1002C669.509 58.4502 665.399 56.6502 662.039 52.3102C656.469 45.1102 653.599 44.9302 646.559 50.8202C641.559 55.0502 639.559 60.8202 638.729 67.0402C636.639 83.1802 638.729 99.3502 638.349 115.5C638.219 121.43 641.799 123.66 647.279 123.55C652.049 123.46 655.629 123.85 655.349 130.48C655.059 137.91 649.939 135.43 646.589 135.29C631.909 134.64 617.259 135.29 602.589 135.86C599.789 135.97 596.519 136.57 597.139 131.97C597.549 128.97 595.199 124.97 601.459 124.31C611.989 123.12 612.719 121.52 612.459 110.9C612.069 93.9002 612.459 77.0102 611.399 60.0602C610.939 52.5702 608.089 49.0602 600.399 50.3402C597.049 50.9102 595.269 49.7702 595.839 46.3402C596.309 43.5402 593.549 39.0902 599.329 38.6802C607.629 38.0702 615.549 35.6802 623.239 32.8202C630.239 30.2402 633.159 32.4702 633.859 39.3002C634.019 40.8002 634.359 42.3002 634.859 44.9202C645.539 34.1302 657.099 28.9902 671.219 32.3002C679.149 34.2002 684.249 40.6002 683.209 47.1002Z" />
        <path
            d="M287.199 197.38C309.549 214.92 346.829 208.81 363.349 185.18C367.219 179.63 367.319 176.61 360.579 173.15C356.105 170.843 354.927 172.933 353.63 175.235C353.359 175.717 353.082 176.208 352.769 176.67C345.569 187.29 335.909 193.17 322.769 191.61C310.249 190.13 304.669 180.84 300.609 170.5C297.369 162.37 295.849 153.74 295.609 143.37C295.688 142.8 295.769 142.104 295.861 141.321C296.094 139.333 296.394 136.779 296.889 134.26C298.729 124.78 303.889 118.17 313.169 114.43C320.683 111.395 324.153 115.511 327.826 119.867C328.532 120.706 329.247 121.553 329.999 122.36C334.999 127.69 342.009 127.72 346.509 123.07C351.009 118.42 350.799 110.54 346.009 105.67C342.599 102.23 338.209 100.68 333.529 100.23C313.079 98.2803 295.409 104.06 281.409 119.5C261.409 141.52 264.199 179.38 287.199 197.38Z" />
        <path
            d="M238.348 226.42C254.628 226.41 267.218 219.4 271.278 208.19C272.488 204.84 273.098 202.45 268.898 199.94C263.518 196.65 261.538 198.51 259.268 203.29C256.778 208.56 252.268 211.72 246.188 210.78C240.338 209.88 238.928 204.93 237.878 200C237.771 199.504 237.643 199.01 237.516 198.518C237.322 197.77 237.129 197.024 237.008 196.27C236.015 190.406 235.039 184.539 234.064 178.672C232.093 166.821 230.122 154.973 228.008 143.16C227.328 139.33 227.698 137.46 232.088 137.1C234.831 136.88 237.551 136.368 240.27 135.857C242.36 135.464 244.45 135.071 246.548 134.81C250.588 134.3 251.748 133.18 251.168 128.5C250.398 122.2 248.038 120.67 242.338 122.08C240.269 122.583 238.165 122.935 236.061 123.288C234.108 123.615 232.154 123.942 230.228 124.39C226.488 125.25 224.518 124.61 224.138 120.25C223.515 115.157 222.624 110.1 221.468 105.1C221.379 104.658 221.358 104.154 221.337 103.643C221.262 101.862 221.184 99.9882 218.208 100.33C217.774 100.381 217.317 100.411 216.852 100.442C214.475 100.6 211.894 100.771 211.208 103.74C208.388 116.2 200.528 125.13 191.048 132.96C188.596 135.001 189.257 137.215 189.897 139.36C190.114 140.084 190.328 140.801 190.418 141.5C190.878 144.744 193.339 144.008 195.165 143.462C195.444 143.379 195.708 143.3 195.948 143.24C201.448 141.85 202.258 144.62 202.948 149.16C204.945 161.985 207.15 174.779 209.353 187.569C210.284 192.97 211.214 198.369 212.128 203.77C214.718 219.07 223.228 226.42 238.348 226.42Z" />
        <path
            d="M193.529 232.93C178.115 233.967 162.782 235.971 147.619 238.93C144.289 239.6 141.509 239.55 141.119 234.98C140.809 231.3 139.899 227.89 145.419 227.35C153.419 226.58 155.139 221.96 153.929 214.35C151.139 196.86 149.199 179.23 146.799 161.68C146.209 157.35 145.879 152.42 138.879 153.79C136.099 152.22 131.079 158.25 129.369 150.72C128.269 145.87 128.949 143.35 134.189 141.87C143.839 139.15 153.399 136.07 162.719 132.44C167.839 130.44 169.369 131.56 170.009 136.73C173.009 160.94 176.319 185.11 179.419 209.31C180.859 220.61 181.159 221.31 192.599 221.26C198.599 221.26 196.259 225.71 197.279 228.26C198.579 231.49 196.889 232.7 193.529 232.93Z" />
        <path
            d="M167.899 101.67C167.781 106.88 165.616 111.833 161.873 115.458C158.13 119.084 153.11 121.089 147.899 121.04C145.299 121.031 142.726 120.51 140.327 119.506C137.929 118.503 135.751 117.037 133.919 115.192C132.087 113.346 130.636 111.159 129.65 108.753C128.663 106.347 128.16 103.77 128.169 101.17C128.178 98.5701 128.7 95.9972 129.703 93.5985C130.707 91.1998 132.173 89.0222 134.018 87.1901C135.863 85.358 138.051 83.9073 140.457 82.9207C142.862 81.9341 145.439 81.4311 148.039 81.4403C150.681 81.4317 153.298 81.9518 155.735 82.9701C158.173 83.9883 160.382 85.4841 162.233 87.3693C164.084 89.2545 165.539 91.491 166.512 93.9471C167.485 96.4031 167.957 99.0291 167.899 101.67Z" />
        <path
            d="M723.569 18.4602C723.109 30.0102 711.479 42.8202 700.149 45.3902C695.879 46.3902 696.669 42.5602 695.249 40.9402C693.249 38.7002 694.159 36.9402 696.689 35.5602C701.179 33.0802 705.689 30.4802 708.349 25.2102C698.609 20.8202 695.349 14.8502 698.409 7.80021C700.939 1.95021 708.699 -1.09979 714.779 1.80021C721.709 5.08021 723.869 11.4402 723.569 18.4602Z" />
        <path
            d="M739.389 171.27C739.389 171.37 739.389 171.46 739.389 171.55C739.524 171.459 739.664 171.375 739.809 171.3C739.639 171.29 739.509 171.29 739.389 171.27ZM739.389 171.27C739.389 171.37 739.389 171.46 739.389 171.55C739.524 171.459 739.664 171.375 739.809 171.3C739.639 171.29 739.509 171.29 739.389 171.27ZM739.389 171.27C739.389 171.37 739.389 171.46 739.389 171.55C739.524 171.459 739.664 171.375 739.809 171.3C739.639 171.29 739.509 171.29 739.389 171.27ZM739.389 171.27C739.389 171.37 739.389 171.46 739.389 171.55C739.524 171.459 739.664 171.375 739.809 171.3C739.639 171.29 739.509 171.29 739.389 171.27ZM739.389 171.27C739.389 171.37 739.389 171.46 739.389 171.55C739.524 171.459 739.664 171.375 739.809 171.3C739.639 171.29 739.509 171.29 739.389 171.27ZM739.389 171.27C739.389 171.37 739.389 171.46 739.389 171.55C739.524 171.459 739.664 171.375 739.809 171.3C739.639 171.29 739.509 171.29 739.389 171.27ZM739.389 171.27C739.389 171.37 739.389 171.46 739.389 171.55C739.524 171.459 739.664 171.375 739.809 171.3C739.639 171.29 739.509 171.29 739.389 171.27ZM741.459 165.18C738.831 165.337 736.308 166.263 734.203 167.845C732.099 169.427 730.507 171.593 729.627 174.074C728.746 176.554 728.615 179.239 729.251 181.794C729.887 184.348 731.262 186.659 733.203 188.437C735.144 190.215 737.565 191.383 740.166 191.793C742.766 192.203 745.429 191.839 747.824 190.745C750.218 189.651 752.237 187.875 753.629 185.641C755.02 183.407 755.723 180.812 755.649 178.18C755.589 176.389 755.172 174.628 754.423 173C753.674 171.372 752.607 169.909 751.286 168.699C749.964 167.488 748.414 166.553 746.727 165.949C745.04 165.345 743.249 165.084 741.459 165.18ZM748.709 185C745.849 181.11 747.709 176.77 747.589 172.63C747.474 172.62 747.36 172.6 747.249 172.57C744.749 172.17 742.249 171.76 739.759 171.34C739.639 171.34 739.509 171.34 739.389 171.34C739.269 171.34 739.389 171.53 739.389 171.62C734.739 174.44 736.749 178.79 736.879 182.69C736.94 183.463 736.873 184.24 736.679 184.99C740.289 180.99 743.809 181.84 747.359 185.1C747.589 185.33 748.169 185.19 748.629 185.17C744.029 190.58 739.439 189.82 734.829 185.1C730.719 180.1 730.879 175.39 735.899 171.1C740.479 167.65 744.789 166.3 748.239 172.51C754.049 176.39 752.859 180.62 748.709 185ZM739.389 171.31C739.389 171.41 739.389 171.5 739.389 171.59C739.524 171.499 739.664 171.415 739.809 171.34C739.639 171.29 739.509 171.29 739.389 171.27V171.31ZM739.389 171.31C739.389 171.41 739.389 171.5 739.389 171.59C739.524 171.499 739.664 171.415 739.809 171.34C739.639 171.29 739.509 171.29 739.389 171.27V171.31ZM739.389 171.31C739.389 171.41 739.389 171.5 739.389 171.59C739.524 171.499 739.664 171.415 739.809 171.34C739.639 171.29 739.509 171.29 739.389 171.27V171.31ZM739.389 171.31C739.389 171.41 739.389 171.5 739.389 171.59C739.524 171.499 739.664 171.415 739.809 171.34C739.639 171.29 739.509 171.29 739.389 171.27V171.31ZM739.389 171.31C739.389 171.41 739.389 171.5 739.389 171.59C739.524 171.499 739.664 171.415 739.809 171.34C739.639 171.29 739.509 171.29 739.389 171.27V171.31ZM739.389 171.31C739.389 171.41 739.389 171.5 739.389 171.59C739.524 171.499 739.664 171.415 739.809 171.34C739.639 171.29 739.509 171.29 739.389 171.27V171.31ZM739.389 171.31C739.389 171.41 739.389 171.5 739.389 171.59C739.524 171.499 739.664 171.415 739.809 171.34C739.639 171.29 739.509 171.29 739.389 171.27V171.31Z" />
        <path
            d="M231.889 277.57C229.619 281.2 226.069 282.04 222.739 282.33C216.629 282.89 215.359 286.81 215.129 291.73C214.949 295.17 212.499 306.39 211.129 309.06C208.819 313.49 205.179 315.65 200.319 314.06C196.319 312.74 194.909 309.51 196.209 305.41C196.739 303.7 197.389 301.58 199.699 302.18C202.009 302.78 200.699 304.58 200.279 305.92C200.107 306.34 200.027 306.792 200.042 307.246C200.058 307.7 200.17 308.145 200.37 308.552C200.57 308.959 200.855 309.32 201.205 309.609C201.554 309.898 201.961 310.11 202.399 310.23C204.819 311.08 206.509 309.54 207.129 307.45C208.129 303.96 211.239 299.73 204.339 297.4C211.999 296.52 210.629 290.4 211.489 286.12C212.179 282.61 208.769 283.9 207.129 283.9C204.289 283.9 200.879 284.43 200.569 287.79C200.319 290.33 202.829 289.79 204.629 289.11C206.039 288.57 207.299 288.88 207.629 290.43C207.959 291.98 206.819 292.69 205.489 293.02C202.109 293.84 198.489 294.32 196.659 290.63C194.829 286.94 196.569 283.9 200.199 281.75C204.199 279.34 208.729 280.61 212.969 279.75C219.059 278.41 225.559 279.17 231.889 277.57Z" />
        <path
            d="M287.889 298.14C283.049 297.88 284.939 294.21 284.739 291.82C284.149 285.12 285.979 278.61 286.579 271.99C286.749 270.22 288.889 267.63 285.779 266.87C282.229 266.02 282.909 269.62 282.119 271.49C280.789 274.64 283.249 279.79 279.119 281.09C271.359 283.54 268.119 288.76 266.789 296.09C266.449 297.89 265.469 300.01 262.569 300.09C262.679 299.02 262.789 298.09 262.869 297.09C263.189 292.09 263.549 286.64 257.049 285.54C251.189 284.54 247.459 288.26 245.289 293.42C244.109 296.23 243.239 299.17 242.289 302.07C236.189 306.35 239.289 301.07 239.289 299.14C239.289 294.94 239.369 290.66 234.289 289.08C229.719 287.67 226.289 289.98 223.529 293.25C221.04 296.241 219.779 300.065 219.999 303.95C220.249 310.43 225.189 313.72 231.149 311.11C235.749 309.11 240.009 306.37 244.429 303.96C247.999 310.61 252.809 309.31 257.949 306.1C261.289 304.04 264.789 300.27 268.739 303.1C272.689 305.93 275.389 305.36 278.019 302.28C279.889 300.09 280.899 299.78 283.219 301.83C284.869 303.27 287.219 302.02 288.569 300.29C289.099 299.6 289.589 298.22 287.889 298.14ZM228.719 308C225.539 309.19 224.599 305.1 224.879 302.87C225.419 298.71 225.759 293.61 231.259 292.79C234.579 292.31 234.059 295.6 234.379 298.23C233.249 301.66 232.739 306.5 228.719 308ZM254.599 303.84C254.599 304.22 253.359 304.95 252.719 304.9C249.279 304.65 248.879 301.98 248.919 299.41C248.999 294.91 249.919 290.19 254.919 289.07C258.209 288.34 258.139 292.07 258.409 294.54C258.859 298.32 254.649 300.22 254.599 303.83V303.84ZM280.129 289.78C278.859 293.57 279.729 299.36 274.129 300.46C271.569 300.98 271.939 297.12 272.019 294.95C272.209 290.57 273.909 286.68 278.299 285.55C281.059 284.84 279.859 287.88 280.129 289.77V289.78Z" />
        <path
            d="M299.999 299.07C299.549 302.07 298.589 304.92 295.179 307.07C293.739 303.87 296.679 301.64 295.089 299.07C293.889 297.15 295.009 295.38 297.239 295.32C299.469 295.26 300.259 297.12 299.999 299.07Z" />
        <path
            d="M336.569 256.69C329.729 254.69 323.189 255.77 318.229 261.4C314.489 265.63 313.229 270.4 317.309 275.23C318.169 276.23 319.379 277.01 320.679 276.38C322.229 275.63 321.609 274.38 321.069 273.15C317.949 266.05 320.569 261.93 327.889 260.31C335.269 257.71 339.129 262.05 341.409 267.85C343.919 274.22 344.969 281.03 339.079 286.36C337.994 287.295 336.661 287.897 335.242 288.092C333.822 288.287 332.377 288.068 331.079 287.46C328.019 286.18 329.079 283.71 329.229 281.52C329.599 275.94 328.499 270.24 330.799 264.81C332.069 261.81 329.799 262.11 327.959 262.1C324.269 267.6 324.959 273.86 324.889 279.97C324.839 282.58 325.339 285.09 321.059 284.7C318.059 284.42 314.749 285.18 313.979 289.12C313.559 291.29 313.869 293.38 315.979 294.49C317.456 295.319 319.166 295.633 320.84 295.384C322.515 295.134 324.059 294.334 325.229 293.11C327.079 291.37 328.669 290.98 331.229 291.2C341.939 292.14 347.619 286.73 347.789 276.02C347.999 267 343.469 258.69 336.569 256.69ZM320.789 291.69C319.419 291.91 318.069 291.59 318.229 289.85C318.369 288.39 319.649 287.79 320.999 287.69C322.059 287.63 322.999 287.97 323.219 289.24C323.209 289.881 322.949 290.492 322.495 290.944C322.042 291.395 321.429 291.653 320.789 291.66V291.69Z" />
        <path
            d="M397.689 273.28C397.321 272.97 397.082 272.533 397.019 272.056C396.956 271.579 397.074 271.095 397.349 270.7C397.459 271.55 397.579 272.42 397.689 273.28Z" />
        <path
            d="M405.999 253.15C405.999 253.26 405.919 253.38 405.889 253.49C405.829 253.35 405.769 253.23 405.699 253.1L405.999 253.15Z" />
        <path
            d="M423.719 257.65C423.249 258.08 422.719 258.55 422.119 259.07C422.509 258.38 422.999 257.73 423.719 257.65Z" />
        <path
            d="M472.329 233.24C470.329 235.38 472.599 238.65 469.809 240.48C464.899 237.68 460.809 234.89 466.149 228.59C467.177 227.399 467.727 225.869 467.694 224.296C467.66 222.723 467.046 221.217 465.969 220.07C464.449 218.27 462.229 218.38 460.259 219.12C457.259 220.27 455.009 222.33 454.849 225.85C454.789 227.12 454.559 228.65 455.129 229.63C457.269 233.24 456.189 236.07 454.229 239.48C451.969 243.48 451.859 248.08 455.749 251.43C459.409 254.58 463.749 253.69 467.159 251.12C470.288 248.541 474.235 247.165 478.289 247.24C469.569 244.87 476.559 237 472.329 233.24ZM460.639 222.76C460.822 222.588 461.046 222.465 461.29 222.402C461.533 222.34 461.789 222.341 462.032 222.405C462.275 222.47 462.498 222.594 462.679 222.769C462.861 222.943 462.995 223.16 463.069 223.4C464.529 226.53 462.279 228.47 460.279 231.21C458.219 227.91 457.779 225.17 460.639 222.76ZM462.569 249.35C459.049 250.21 457.399 247.62 456.899 244.76C456.399 241.9 457.999 237.82 460.189 238.28C463.189 238.92 465.639 242.28 468.189 244.41C467.489 247.9 464.929 248.79 462.569 249.35Z" />
        <path
            d="M523.349 198.67C521.149 203.09 518.539 203.67 516.469 204.67C507.149 209.29 506.399 212.28 512.609 220.83C512.94 221.443 513.016 222.162 512.819 222.83C506.329 225.49 509.719 231.95 507.579 236.31C505.819 239.91 503.399 241.97 499.369 242.14C498.083 242.272 496.788 242.004 495.659 241.375C494.531 240.745 493.623 239.783 493.059 238.62C491.189 235.1 492.669 232.49 495.119 229.35C497.889 232.35 494.849 238.12 500.199 238.14C502.839 238.14 503.769 235.5 504.019 233.14C504.369 229.74 505.719 225.71 496.879 225.93C503.629 223.03 505.089 219.79 504.329 215.46C503.989 213.53 505.509 210.75 503.519 209.76C501.289 208.63 498.519 209.46 496.169 210.76C494.819 211.5 493.169 212.33 493.569 214.14C494.169 217.02 496.109 215.83 497.709 215.14C498.979 214.57 500.259 214.26 500.929 215.76C501.599 217.26 500.419 218.17 499.289 218.76C496.109 220.38 492.809 221.1 490.219 217.9C487.629 214.7 489.099 211.69 491.669 209.1C495.189 205.55 500.119 205.34 504.479 204.44C510.369 203.17 515.999 200.76 523.349 198.67Z" />
        <path
            d="M538.749 206.78C538.499 208.37 537.819 209.78 535.889 209.52C535.246 209.457 534.653 209.142 534.241 208.644C533.829 208.145 533.631 207.504 533.689 206.86C533.659 206.477 533.714 206.092 533.849 205.732C533.985 205.373 534.199 205.047 534.475 204.78C534.751 204.512 535.083 204.309 535.447 204.185C535.81 204.06 536.197 204.018 536.579 204.06C538.059 204.11 538.589 205.35 538.749 206.78Z" />
        <path
            d="M570.889 208.31C564.749 203.37 563.069 206.56 563.029 212.79C562.988 213.285 562.897 213.774 562.759 214.25C562.159 219.6 560.239 224.11 554.819 226.25C552.389 227.25 550.129 226.7 549.089 224.14C547.749 220.86 550.639 220.98 552.449 220.7C558.989 219.7 560.679 215.55 560.079 209.7C553.079 205.5 547.079 207.64 544.329 215.49C542.839 219.7 541.749 224.08 540.479 228.37C538.639 228.7 536.789 229.07 537.099 226.15C537.409 223.23 537.819 220.62 537.859 217.86C537.919 215.56 539.679 211.91 536.299 211.42C532.299 210.87 533.769 214.99 533.599 217.08C533.179 222.22 531.999 227.01 528.979 231.25C524.849 232.12 523.429 229.55 524.749 226.56C527.469 220.4 526.579 216.11 520.399 212.88C518.959 212.14 518.899 208.29 516.259 210C513.619 211.71 515.829 214 516.959 215.86C516.399 218.48 517.119 221.27 515.579 223.78C514.919 224.87 514.949 226.32 516.729 226.39C518.509 226.46 518.159 224.74 518.539 223.69C518.539 221.92 518.189 220.09 518.919 218.46C519.12 218.003 519.397 217.584 519.739 217.22C524.739 219.73 521.539 222.65 520.139 225.47C519.609 229.02 518.979 232.71 522.869 234.84C525.869 236.53 528.649 235.91 530.589 232.84C533.749 230.62 540.359 237 541.059 228.67C542.819 229.62 543.059 225.51 545.369 227.52C550.299 231.83 554.729 229.52 560.049 227.31C563.229 225.97 567.049 227.54 566.669 221.94C566.369 217 569.059 212.73 570.889 208.31ZM548.999 215.94C549.459 213.54 550.789 211.62 553.309 211.04C554.919 210.67 555.599 211.82 555.489 213.29C555.309 215.96 553.659 217.4 550.619 218.13C549.489 218.34 548.729 217.48 548.999 215.94Z" />
        <path
            d="M571.059 208.44L570.979 208.36C570.952 208.337 570.921 208.317 570.889 208.3H571.029C571.033 208.348 571.043 208.395 571.059 208.44Z" />
        <path
            d="M602.619 213.55C603.149 206.37 604.829 199.41 606.249 192.41C606.589 190.73 609.719 187.74 605.679 186.82C602.389 186.06 602.389 189.51 601.959 191.51C600.829 196.76 600.219 201.51 593.069 202.79C588.469 203.62 586.309 208.68 585.199 213.38C584.439 216.55 583.789 219.79 579.659 221.89C579.909 217.1 580.219 213.09 580.309 209.07C580.389 206.33 579.689 203.65 576.309 203.68C573.519 203.68 570.529 204.27 571.019 208.27C573.939 207.62 576.019 207.94 575.469 211.85C575.046 214.632 574.793 217.437 574.709 220.25C574.619 225.25 577.549 227.48 581.389 224.45C584.529 221.97 586.799 223.77 589.389 223.45C594.609 222.85 599.519 220.09 605.169 221.31C606.049 221.5 607.599 219.65 607.569 217.42C603.409 219.37 602.339 217.37 602.619 213.55ZM593.259 219.65C592.82 219.889 592.343 220.051 591.849 220.13C591.128 219.85 590.514 219.349 590.094 218.699C589.674 218.049 589.469 217.283 589.509 216.51C589.719 211.69 591.179 207.46 595.929 205.21C597.119 204.65 598.749 204.75 598.619 206.58C598.269 211.48 597.229 216.19 593.259 219.65Z" />
        <path
            d="M612.639 207.32C612.321 210.18 611.221 212.896 609.459 215.17C607.269 211.24 608.749 208.79 612.639 207.32Z" />
        <path
            d="M632.279 211.48C627.729 219.96 618.699 222.86 612.359 218.96C612.359 217.24 611.359 215.42 613.139 213.67C615.519 214.03 616.239 220.43 618.979 216.91C621.549 213.61 619.489 208.91 617.679 204.91C615.759 200.62 614.619 204.74 613.259 205.14C613.153 205.179 613.04 205.191 612.928 205.175C612.816 205.159 612.71 205.116 612.619 205.05C611.849 201.7 613.989 199.75 616.299 198.21C618.349 196.85 620.349 196.1 620.889 200.15C621.309 203.31 623.509 206.21 624.099 209.38C624.999 214.36 626.999 216 632.279 211.48Z" />
        <path
            d="M748.639 185C748.639 185 748.639 185 748.579 185.07C748.119 185.07 747.579 185.23 747.309 185C743.759 181.74 740.239 180.87 736.629 184.89C736.823 184.14 736.89 183.363 736.829 182.59C737.139 182.28 737.429 182.02 737.709 181.77C741.259 178.5 742.239 178.44 745.879 181.89C746.529 182.51 747.279 183.24 748.129 184.1C748.299 184.38 748.459 184.65 748.609 184.93C748.615 184.955 748.625 184.979 748.639 185Z" />
        <path
            d="M739.339 171.55C739.042 175.002 738.497 178.427 737.709 181.8C737.424 182.865 737.063 183.907 736.629 184.92C736.823 184.17 736.89 183.393 736.829 182.62C736.699 178.72 734.689 174.37 739.339 171.55Z" />
        <path
            d="M748.709 185L748.659 185.05V185C747.498 184.261 746.556 183.225 745.929 182C744.739 179.52 745.279 176.64 746.129 173.66C746.216 173.5 746.32 173.349 746.439 173.21C746.661 172.931 746.96 172.722 747.299 172.61C747.41 172.64 747.524 172.66 747.639 172.67C747.709 176.73 745.849 181.07 748.709 185Z" />
        <path
            d="M747.589 172.59C747.206 172.806 746.804 172.986 746.389 173.13C743.949 173.96 741.789 173.01 739.759 171.3C742.259 171.72 744.759 172.13 747.249 172.53C747.361 172.56 747.474 172.58 747.589 172.59Z" />
        <path
            d="M287.889 298.14C283.049 297.88 284.939 294.21 284.739 291.82C284.149 285.12 285.979 278.61 286.579 271.99C286.749 270.22 288.889 267.63 285.779 266.87C282.229 266.02 282.909 269.62 282.119 271.49C280.789 274.64 283.249 279.79 279.119 281.09C271.359 283.54 268.119 288.76 266.789 296.09C266.449 297.89 265.469 300.01 262.569 300.09C262.679 299.02 262.789 298.09 262.869 297.09C263.189 292.09 263.549 286.64 257.049 285.54C251.189 284.54 247.459 288.26 245.289 293.42C244.109 296.23 243.239 299.17 242.289 302.07C242.629 302.96 243.499 303.23 244.159 303.73C244.257 303.801 244.35 303.878 244.439 303.96C248.009 310.61 252.819 309.31 257.959 306.1C261.299 304.04 264.799 300.27 268.749 303.1C272.699 305.93 275.399 305.36 278.029 302.28C279.899 300.09 280.909 299.78 283.229 301.83C284.879 303.27 287.229 302.02 288.579 300.29C289.099 299.6 289.589 298.22 287.889 298.14ZM254.599 303.83C254.599 304.21 253.359 304.94 252.719 304.89C249.279 304.64 248.879 301.97 248.919 299.4C248.999 294.9 249.919 290.18 254.919 289.06C258.209 288.33 258.139 292.06 258.409 294.53C258.859 298.32 254.649 300.22 254.599 303.83ZM280.129 289.77C278.859 293.56 279.729 299.35 274.129 300.45C271.569 300.97 271.939 297.11 272.019 294.94C272.209 290.56 273.909 286.67 278.299 285.54C281.059 284.84 279.859 287.88 280.129 289.77Z" />
        <path
            d="M336.569 256.69C329.729 254.69 323.189 255.77 318.229 261.4C314.489 265.63 313.229 270.4 317.309 275.23C318.169 276.23 319.379 277.01 320.679 276.38C322.229 275.63 321.609 274.38 321.069 273.15C317.949 266.05 320.569 261.93 327.889 260.31C335.269 257.71 339.129 262.05 341.409 267.85C343.919 274.22 344.969 281.03 339.079 286.36C337.994 287.295 336.661 287.897 335.242 288.092C333.822 288.287 332.377 288.068 331.079 287.46C328.019 286.18 329.079 283.71 329.229 281.52C329.599 275.94 328.499 270.24 330.799 264.81C332.069 261.81 329.799 262.11 327.959 262.1C324.269 267.6 324.959 273.86 324.889 279.97C324.839 282.58 325.339 285.09 321.059 284.7C318.059 284.42 314.749 285.18 313.979 289.12C313.559 291.29 313.869 293.38 315.979 294.49C317.456 295.319 319.166 295.633 320.84 295.384C322.515 295.134 324.059 294.334 325.229 293.11C327.079 291.37 328.669 290.98 331.229 291.2C341.939 292.14 347.619 286.73 347.789 276.02C347.999 267 343.469 258.69 336.569 256.69ZM320.789 291.69C319.419 291.91 318.069 291.59 318.229 289.85C318.369 288.39 319.649 287.79 320.999 287.69C322.059 287.63 322.999 287.97 323.219 289.24C323.209 289.881 322.949 290.492 322.495 290.944C322.042 291.395 321.429 291.653 320.789 291.66V291.69Z" />
        <path d="M571.059 208.44L570.919 208.3H571.059C571.053 208.347 571.053 208.394 571.059 208.44Z" />
        <path
            d="M602.619 213.55C603.149 206.37 604.829 199.41 606.249 192.41C606.589 190.73 609.719 187.74 605.679 186.82C602.389 186.06 602.389 189.51 601.959 191.51C600.829 196.76 600.219 201.51 593.069 202.79C588.469 203.62 586.309 208.68 585.199 213.38C584.439 216.55 583.789 219.79 579.659 221.89C579.909 217.1 580.219 213.09 580.309 209.07C580.389 206.33 579.689 203.65 576.309 203.68C573.519 203.68 570.529 204.27 571.019 208.27C573.939 207.62 576.019 207.94 575.469 211.85C575.046 214.632 574.793 217.437 574.709 220.25C574.619 225.25 577.549 227.48 581.389 224.45C584.529 221.97 586.799 223.77 589.389 223.45C594.609 222.85 599.519 220.09 605.169 221.31C606.049 221.5 607.599 219.65 607.569 217.42C603.409 219.37 602.339 217.37 602.619 213.55ZM593.259 219.65C592.82 219.889 592.343 220.051 591.849 220.13C591.128 219.85 590.514 219.349 590.094 218.699C589.674 218.049 589.469 217.283 589.509 216.51C589.719 211.69 591.179 207.46 595.929 205.21C597.119 204.65 598.749 204.75 598.619 206.58C598.269 211.48 597.229 216.19 593.259 219.65Z" />
        <path
            d="M523.349 198.67C521.149 203.09 518.539 203.67 516.469 204.67C507.149 209.29 506.399 212.28 512.609 220.83C512.94 221.443 513.016 222.162 512.819 222.83C506.329 225.49 509.719 231.95 507.579 236.31C505.819 239.91 503.399 241.97 499.369 242.14C498.083 242.272 496.788 242.004 495.659 241.375C494.531 240.745 493.623 239.783 493.059 238.62C491.189 235.1 492.669 232.49 495.119 229.35C497.889 232.35 494.849 238.12 500.199 238.14C502.839 238.14 503.769 235.5 504.019 233.14C504.369 229.74 505.719 225.71 496.879 225.93C503.629 223.03 505.089 219.79 504.329 215.46C503.989 213.53 505.509 210.75 503.519 209.76C501.289 208.63 498.519 209.46 496.169 210.76C494.819 211.5 493.169 212.33 493.569 214.14C494.169 217.02 496.109 215.83 497.709 215.14C498.979 214.57 500.259 214.26 500.929 215.76C501.599 217.26 500.419 218.17 499.289 218.76C496.109 220.38 492.809 221.1 490.219 217.9C487.629 214.7 489.099 211.69 491.669 209.1C495.189 205.55 500.119 205.34 504.479 204.44C510.369 203.17 515.999 200.76 523.349 198.67Z" />
        <path
            d="M231.889 277.57C229.619 281.2 226.069 282.04 222.739 282.33C216.629 282.89 215.359 286.81 215.129 291.73C214.949 295.17 212.499 306.39 211.129 309.06C208.819 313.49 205.179 315.65 200.319 314.06C196.319 312.74 194.909 309.51 196.209 305.41C196.739 303.7 197.389 301.58 199.699 302.18C202.009 302.78 200.699 304.58 200.279 305.92C200.107 306.34 200.027 306.792 200.042 307.246C200.058 307.7 200.17 308.145 200.37 308.552C200.57 308.959 200.855 309.32 201.205 309.609C201.554 309.898 201.961 310.11 202.399 310.23C204.819 311.08 206.509 309.54 207.129 307.45C208.129 303.96 211.239 299.73 204.339 297.4C211.999 296.52 210.629 290.4 211.489 286.12C212.179 282.61 208.769 283.9 207.129 283.9C204.289 283.9 200.879 284.43 200.569 287.79C200.319 290.33 202.829 289.79 204.629 289.11C206.039 288.57 207.299 288.88 207.629 290.43C207.959 291.98 206.819 292.69 205.489 293.02C202.109 293.84 198.489 294.32 196.659 290.63C194.829 286.94 196.569 283.9 200.199 281.75C204.199 279.34 208.729 280.61 212.969 279.75C219.059 278.41 225.559 279.17 231.889 277.57Z" />
        <path
            d="M570.889 208.31C564.749 203.37 563.069 206.56 563.029 212.79C562.988 213.285 562.897 213.774 562.759 214.25C562.159 219.6 560.239 224.11 554.819 226.25C552.389 227.25 550.129 226.7 549.089 224.14C547.749 220.86 550.639 220.98 552.449 220.7C558.989 219.7 560.679 215.55 560.079 209.7C553.079 205.5 547.079 207.64 544.329 215.49C542.839 219.7 541.749 224.08 540.479 228.37L541.059 228.65C542.819 229.6 543.059 225.49 545.369 227.5C550.299 231.81 554.729 229.5 560.049 227.29C563.229 225.95 567.049 227.52 566.669 221.92C566.369 217 569.059 212.73 570.889 208.31ZM548.999 215.94C549.459 213.54 550.789 211.62 553.309 211.04C554.919 210.67 555.599 211.82 555.489 213.29C555.309 215.96 553.659 217.4 550.619 218.13C549.489 218.34 548.729 217.48 548.999 215.94Z" />
        <path d="M570.999 208.37C570.971 208.347 570.941 208.327 570.909 208.31L570.999 208.37Z" />
        <path
            d="M472.329 233.24C470.329 235.38 472.599 238.65 469.809 240.48C464.899 237.68 460.809 234.89 466.149 228.59C467.177 227.399 467.727 225.869 467.694 224.296C467.66 222.723 467.046 221.217 465.969 220.07C464.449 218.27 462.229 218.38 460.259 219.12C457.259 220.27 455.009 222.33 454.849 225.85C454.789 227.12 454.559 228.65 455.129 229.63C457.269 233.24 456.189 236.07 454.229 239.48C451.969 243.48 451.859 248.08 455.749 251.43C459.409 254.58 463.749 253.69 467.159 251.12C470.288 248.541 474.235 247.165 478.289 247.24C469.569 244.87 476.559 237 472.329 233.24ZM460.639 222.76C460.822 222.588 461.046 222.465 461.29 222.402C461.533 222.34 461.789 222.341 462.032 222.405C462.275 222.47 462.498 222.594 462.679 222.769C462.861 222.943 462.995 223.16 463.069 223.4C464.529 226.53 462.279 228.47 460.279 231.21C458.219 227.91 457.779 225.17 460.639 222.76ZM462.569 249.35C459.049 250.21 457.399 247.62 456.899 244.76C456.399 241.9 457.999 237.82 460.189 238.28C463.189 238.92 465.639 242.28 468.189 244.41C467.489 247.9 464.929 248.79 462.569 249.35Z" />
        <path
            d="M244.129 303.71C243.509 303.14 242.879 302.59 242.259 302.05C236.159 306.33 239.259 301.05 239.259 299.12C239.259 294.92 239.339 290.64 234.259 289.06C229.689 287.65 226.259 289.96 223.499 293.23C221.01 296.221 219.749 300.045 219.969 303.93C220.219 310.41 225.159 313.7 231.119 311.09C235.719 309.09 239.979 306.35 244.399 303.94C244.314 303.859 244.223 303.782 244.129 303.71ZM228.719 308C225.539 309.19 224.599 305.1 224.879 302.87C225.419 298.71 225.759 293.61 231.259 292.79C234.579 292.31 234.059 295.6 234.379 298.23C233.249 301.66 232.739 306.5 228.719 308Z" />
        <path
            d="M632.279 211.48C627.729 219.96 618.699 222.86 612.359 218.96C612.359 217.24 611.359 215.42 613.139 213.67C615.519 214.03 616.239 220.43 618.979 216.91C621.549 213.61 619.489 208.91 617.679 204.91C615.759 200.62 614.619 204.74 613.259 205.14L612.619 205.05C611.849 201.7 613.989 199.75 616.299 198.21C618.349 196.85 620.349 196.1 620.889 200.15C621.309 203.31 623.509 206.21 624.099 209.38C624.999 214.36 626.999 216 632.279 211.48Z" />
        <path
            d="M397.689 273.28C397.321 272.97 397.082 272.533 397.019 272.056C396.956 271.579 397.074 271.095 397.349 270.7C397.459 271.55 397.579 272.42 397.689 273.28Z" />
        <path
            d="M412.079 269.57C409.699 270.57 408.149 267.65 406.989 265.8C406.059 264.36 405.889 262.44 405.379 260.75C407.006 259.229 408.542 257.613 409.979 255.91C410.819 254.81 411.979 253.17 410.559 251.91C408.699 250.27 407.469 252.44 406.029 253.18H405.729C405.799 253.31 405.859 253.43 405.919 253.57C405.219 255.43 403.659 257.01 404.029 259.21C403.969 261.48 403.469 263.82 403.889 265.97C404.889 271.2 402.959 273.55 397.689 273.34C397.579 272.48 397.459 271.61 397.349 270.76C400.899 261.65 397.729 252.17 398.929 242.96C399.239 240.65 396.559 236.23 402.219 236.34C405.579 240.67 401.779 245.69 403.609 250.2C404.219 250.72 404.739 250.62 405.419 250.03C407.939 247.89 410.709 244.76 413.919 248.31C416.769 251.49 415.439 255.46 412.679 257.96C410.729 259.72 409.459 261.06 410.309 263.58C412.309 269.27 414.989 263.66 417.599 264.2C418.429 268.36 414.259 268.69 412.079 269.57Z" />
        <path
            d="M530.589 232.84C528.649 235.93 525.919 236.55 522.869 234.84C518.979 232.71 519.609 229.02 520.139 225.47C521.539 222.65 524.759 219.73 519.739 217.22C519.397 217.584 519.12 218.003 518.919 218.46C518.779 218.26 518.639 218.08 518.479 217.87C518.007 217.178 517.5 216.511 516.959 215.87C515.829 213.98 513.599 211.74 516.259 210.01C518.919 208.28 518.959 212.15 520.399 212.89C526.579 216.12 527.469 220.41 524.749 226.57C523.429 229.57 524.849 232.13 528.979 231.26C530.529 230.76 530.929 231.43 530.589 232.84Z" />
        <path
            d="M397.689 273.28C393.209 277.01 390.839 275.34 390.089 270.19C389.877 267.897 389.79 265.593 389.829 263.29C389.769 261.52 390.179 259.24 388.199 258.55C386.219 257.86 385.499 260.5 383.949 261.24C382.659 264.86 381.609 268.47 382.349 272.41C383.349 277.57 381.519 280.21 375.869 279C373.999 284.41 369.939 280.69 366.869 281.12C363.629 286.02 359.869 285.94 355.809 282.22C355.19 278.405 355.601 274.494 356.999 270.89C357.599 269.34 357.169 267.62 355.289 267.37C353.989 267.2 354.339 268.87 353.969 269.73C353.969 270.31 354.079 270.9 354.129 271.48C354.27 272.198 354.231 272.939 354.014 273.637C353.798 274.335 353.411 274.969 352.889 275.48C349.489 272.48 351.959 268.64 351.569 265.23C350.699 263.31 347.959 261.31 351.029 259.37C353.339 257.93 353.519 261.09 354.749 261.79C360.639 265.12 362.949 269.08 360.269 276.02C358.929 279.47 360.779 282.38 365.209 279.19C369.599 273.28 366.209 265.34 369.509 257.99C375.259 264.68 368.919 272.46 374.409 277.64C377.539 272.88 377.819 267.53 377.409 262.13C376.929 256.29 379.409 256.13 383.519 258.71C384.589 254.97 387.279 253.09 390.899 254.01C394.519 254.93 393.949 258.54 394.629 261.47C395.359 264.57 391.719 269.08 397.349 270.72C397.079 271.114 396.965 271.593 397.028 272.065C397.091 272.538 397.326 272.971 397.689 273.28Z" />
        <path
            d="M397.689 273.28C397.321 272.97 397.082 272.533 397.019 272.056C396.956 271.579 397.074 271.095 397.349 270.7C397.459 271.55 397.579 272.42 397.689 273.28Z" />
        <path
            d="M541.059 228.67C540.359 237 533.749 230.62 530.589 232.84C530.059 232.31 529.519 231.84 528.979 231.27C531.979 227.03 533.179 222.27 533.599 217.1C533.769 215.01 532.249 210.89 536.299 211.44C539.679 211.93 537.919 215.58 537.859 217.88C537.859 220.64 537.379 223.4 537.099 226.17C536.819 228.94 538.639 228.72 540.479 228.39L541.059 228.67Z" />
        <path
            d="M612.639 207.32C612.321 210.18 611.221 212.896 609.459 215.17C609.279 212.05 611.369 209.85 612.639 207.32Z" />
        <path
            d="M299.999 299.07C299.549 302.07 298.589 304.92 295.179 307.07C293.739 303.87 296.679 301.64 295.089 299.07C293.889 297.15 295.009 295.38 297.239 295.32C299.469 295.26 300.259 297.12 299.999 299.07Z" />
        <path
            d="M518.919 218.48C518.189 220.11 518.559 221.94 518.539 223.71C517.429 221.57 516.259 219.41 518.479 217.89C518.874 217.628 519.296 217.409 519.739 217.24C519.397 217.604 519.12 218.023 518.919 218.48Z" />
        <path
            d="M538.749 206.78C538.499 208.37 537.819 209.78 535.889 209.52C535.246 209.457 534.653 209.142 534.241 208.644C533.829 208.145 533.631 207.504 533.689 206.86C533.659 206.477 533.714 206.092 533.849 205.732C533.985 205.373 534.199 205.047 534.475 204.78C534.751 204.512 535.083 204.309 535.447 204.185C535.81 204.06 536.197 204.018 536.579 204.06C538.059 204.11 538.589 205.35 538.749 206.78Z" />
        <path
            d="M369.859 257.91C369.546 257.951 369.229 257.928 368.925 257.843C368.621 257.757 368.338 257.612 368.091 257.415C367.845 257.218 367.641 256.974 367.491 256.697C367.341 256.419 367.249 256.114 367.219 255.8C366.989 254.03 368.029 253.07 369.749 252.8C370.377 252.75 371 252.946 371.486 253.348C371.971 253.749 372.281 254.324 372.349 254.95C372.629 256.76 371.559 257.8 369.859 257.91Z" />
        <path
            d="M518.919 218.48C518.189 220.11 518.559 221.94 518.539 223.71C518.159 224.76 518.439 226.45 516.729 226.41C515.019 226.37 514.919 224.89 515.579 223.8C517.119 221.29 516.399 218.5 516.959 215.88L519.739 217.24C519.397 217.604 519.12 218.023 518.919 218.48Z" />
        <path
            d="M612.639 207.32C612.321 210.18 611.221 212.896 609.459 215.17C607.269 211.24 608.749 208.79 612.639 207.32Z" />
        <path
            d="M440.849 254.44C438.059 257.28 435.629 260.64 432.399 262.84C427.799 265.96 424.149 264.16 422.119 259.07C422.709 258.55 423.249 258.07 423.719 257.65C423.971 257.612 424.229 257.65 424.459 257.76C426.249 258.5 427.459 262.42 429.629 259.76C431.209 257.85 430.629 254.49 428.769 252.18C426.909 249.87 425.769 246.92 422.619 245.83C422.468 245.987 422.327 246.154 422.199 246.33C420.089 248.94 420.429 251.99 420.819 255.07C418.359 250.78 417.919 246.73 422.149 243.2C423.909 239.83 424.769 237.94 427.769 243C430.319 247.31 431.699 253.85 438.769 254.21C439.659 251.91 440.539 249.6 441.769 246.41C442.999 249.94 442.879 252.3 440.849 254.44Z" />
        <path
            d="M748.779 185.09H748.579C748.119 185.09 747.579 185.25 747.309 185.02C743.759 181.76 740.239 180.89 736.629 184.91C736.823 184.16 736.89 183.383 736.829 182.61C736.699 178.71 734.689 174.36 739.339 171.54C739.474 171.449 739.614 171.365 739.759 171.29C742.259 171.71 744.759 172.12 747.249 172.52C747.361 172.55 747.474 172.57 747.589 172.58C747.709 176.72 745.849 181.06 748.709 184.95C748.724 185.001 748.747 185.048 748.779 185.09Z" />
        <path
            d="M743.839 176.11C743.579 177.31 742.719 177.53 741.699 177.39C741.457 177.386 741.219 177.323 741.006 177.207C740.794 177.091 740.612 176.925 740.477 176.724C740.343 176.522 740.259 176.291 740.233 176.05C740.207 175.809 740.24 175.566 740.329 175.34C740.515 175.048 740.768 174.804 741.067 174.63C741.366 174.456 741.703 174.357 742.049 174.34C742.289 174.312 742.533 174.338 742.762 174.417C742.99 174.495 743.198 174.624 743.37 174.794C743.542 174.964 743.674 175.171 743.755 175.399C743.836 175.627 743.865 175.87 743.839 176.11Z" />
    </g>
</svg>