<svg width="304" height="362" viewBox="0 0 304 362" fill="none" xmlns="http://www.w3.org/2000/svg">
<g id="logo" fill="currentColor">
    <path d="M76.1766 301.399C76.1835 301.369 76.1909 301.336 76.1998 301.3V281.2C76.1654 281.097 76.1428 281.011 76.1229 280.936C76.0272 280.573 75.9933 280.445 74.9998 279.7C73.8998 278.9 72.5998 278.5 70.5998 278.5H50.1998V303.8H70.5998C72.5998 303.8 73.8998 303.4 74.9998 302.7C76.0882 301.793 76.1071 301.709 76.1759 301.402L76.1766 301.399Z"/>
    <path fill-rule="evenodd" clip-rule="evenodd" d="M0 346.2V15.1L15.7 0H289.8L303.4 15.1V348.2L289.8 362H15L0 346.2ZM145 263.2V250H158.4V263.2H145ZM83.6998 271C87.0998 273.4 89.3998 276.8 89.5998 280.7V301.5C89.3998 305.6 86.8998 309.1 83.2998 311.5C79.6998 313.9 75.2998 315.1 70.5998 315.1H50.1998V328.8H36.7998V267.1H70.5998C75.2998 267.1 79.6998 268.3 83.2998 270.7L83.6998 271ZM97.2998 315.1V280.8C97.4998 276.8 99.7998 273.4 103.1 271L103.5 270.7C107.1 268.3 111.4 267.1 116.1 267.1H137.6V278.5H116.1C114.1 278.5 112.8 278.9 111.8 279.6C110.711 280.507 110.693 280.591 110.624 280.898L110.623 280.901L110.614 280.94C110.61 280.959 110.605 280.979 110.6 281V315.1H97.2998ZM145 267.1V315.2H158.4V267.1H145ZM205.7 281.2V315.2H219.1V280.5C218.8 276.4 216.4 273 212.9 270.7C209.4 268.3 205 267.1 200.3 267.1H166.6V315.2H180V278.5H200.2C202.1 278.6 203.4 279 204.5 279.7C205.597 280.523 205.607 280.593 205.677 281.058L205.685 281.111C205.69 281.139 205.694 281.169 205.7 281.2ZM233.2 311.6C236.7 314 241 315.1 245.6 315.2H267.7V303.8H246C243.9 303.8 242.6 303.3 241.5 302.6C240.563 302.038 240.504 301.827 240.336 301.227L240.3 301.1V278.5H267.6V267.1H240.3V254.9H226.9V301.6C227.1 305.7 229.6 309.2 233.2 311.6ZM166.6 320.9V329.1H174.7V328H168V325.4H172V324.3H168V322H174.6V320.9H166.6ZM186.699 320.9V329.2H194.399V328H188.099V320.9H186.699ZM205.9 320.9V329.2H207.3V320.9H205.9ZM223.399 329.2V322H227.199V320.9H218.199V322H221.999V329.2H223.399ZM238.301 320.9V329.1H246.401V328H239.701V325.4H243.701V324.3H239.701V322H246.301V320.9H238.301ZM258.301 320.9V329H259.701V324.1C259.701 323.4 259.701 322.8 259.601 322.3L259.635 322.368C259.645 322.388 259.656 322.408 259.666 322.429L259.682 322.459L259.696 322.484L259.712 322.513L259.727 322.539C259.741 322.563 259.755 322.588 259.771 322.612L259.782 322.629L259.79 322.642L259.797 322.652C259.821 322.688 259.848 322.724 259.876 322.76C259.887 322.774 259.899 322.788 259.911 322.802C259.923 322.817 259.937 322.832 259.95 322.847C259.96 322.858 259.97 322.868 259.98 322.879L260.001 322.9C260.001 322.962 260.077 323.023 260.183 323.109C260.248 323.162 260.324 323.223 260.401 323.3L266.801 329.1H267.601V320.8H266.301V325.4C266.301 326.2 266.301 326.9 266.401 327.4L265.401 326.4L259.201 320.9H258.301ZM262.9 279.6V280H263.6V281.8H264V280H264.7V279.6H262.9ZM265.7 279.6L266.2 281.1L266.7 279.6H267.3V281.7H267V280L266.4 281.7H266.1L265.5 280V281.7H265.1V279.6H265.7Z" />
</g>
</svg>
