<svg width="671" height="801" viewBox="0 0 671 801" fill="none" xmlns="http://www.w3.org/2000/svg">
<g id="logo">
    <path d="M0 33.4119V766.039L33.174 801H640.922L671 770.465V33.4119L640.922 0H34.7221L0 33.4119Z" fill="#00FF00"/>
    <path d="M198.159 621.107C197.717 612.477 192.63 604.954 185.111 599.643L184.226 598.979C176.264 593.669 166.533 591.014 156.139 591.014H81.3867V727.538H111.022V697.224H156.139C166.533 697.224 176.264 694.568 184.226 689.258C192.188 683.947 197.717 676.203 198.159 667.131V621.107ZM168.524 666.688C168.303 667.573 168.524 667.573 165.87 669.786C163.437 671.335 160.562 672.22 156.139 672.22H111.022V616.239H156.139C160.562 616.239 163.437 617.124 165.87 618.894C168.524 620.885 168.081 620.885 168.524 622.213V666.688Z" fill="white"/>
    <path d="M215.188 697.445V621.328C215.631 612.477 220.717 604.954 228.016 599.643L228.9 598.979C236.862 593.669 246.372 591.014 256.767 591.014H304.316V616.239H256.767C252.343 616.239 249.468 617.124 247.257 618.672C244.603 620.885 244.824 620.885 244.603 621.77V697.224H215.188V697.445Z" fill="white"/>
    <path d="M320.683 582.385V553.177H350.318V582.385H320.683Z" fill="white"/>
    <path d="M320.683 697.445V591.014H350.318V697.445H320.683Z" fill="white"/>
    <path d="M454.927 697.445V622.213C454.706 620.885 454.927 620.885 452.273 618.894C449.84 617.345 446.965 616.46 442.763 616.239H398.089V697.445H368.453V591.014H442.984C453.379 591.014 463.11 593.669 470.85 598.979C478.591 604.069 483.899 611.592 484.562 620.664V697.445H454.927Z" fill="white"/>
    <path d="M543.169 697.446C532.996 697.225 523.486 694.791 515.746 689.48C507.784 684.17 502.255 676.425 501.812 667.353V564.02H531.448V591.015H591.825V616.239H531.448V666.247C531.89 667.796 531.89 668.238 534.102 669.566C536.535 671.115 539.41 672.221 544.054 672.221H592.046V697.446H543.169Z" fill="white"/>
    <path d="M368.453 728.423V710.058H386.146V712.492H371.549V717.581H380.396V720.015H371.549V725.768H386.367V728.202H368.453V728.423Z" fill="white"/>
    <path d="M412.906 728.423V710.058H416.003V725.768H429.936V728.423H412.906Z" fill="white"/>
    <path d="M455.369 728.423V710.058H458.465V728.423H455.369Z" fill="white"/>
    <path d="M494.073 712.492V728.423H490.976V712.492H482.572V710.058H502.477V712.492H494.073Z" fill="white"/>
    <path d="M527.025 728.423V710.058H544.718V712.492H530.122V717.581H538.968V720.015H530.122V725.768H544.939V728.202H527.025V728.423Z" fill="white"/>
    <path d="M571.257 728.423V710.057H573.247L586.959 722.227C587.623 722.891 588.286 723.555 589.171 724.44C588.95 723.333 588.95 721.785 588.95 720.014V709.836H591.825V728.201H590.055L575.901 715.368C575.459 714.925 575.017 714.704 575.017 714.483C574.574 714.04 574.353 713.598 574.132 713.155C574.353 714.261 574.353 715.589 574.353 717.138V727.98H571.257V728.423Z" fill="white"/>
</g>
</svg>
