<svg width="604" height="221" viewBox="0 0 604 221" fill="none" xmlns="http://www.w3.org/2000/svg">
    <g id="logo" fill="currentColor">
        <path
            d="M405.12 68.2356V75.4056H407.07C409.33 75.4056 411.33 75.0056 411.33 71.6656C411.33 68.3256 409.16 68.2356 407.44 68.2356H405.12Z" />
        <path d="M482.12 148.235H481.93L472.05 168.555H482.12V148.235Z" />
        <path
            d="M399.25 153.825C396 153.825 395.25 156.905 395.25 168.645C395.25 180.395 396 183.465 399.25 183.465C402.5 183.465 403.25 180.385 403.25 168.645C403.25 156.905 402.5 153.825 399.25 153.825Z" />
        <path fill-rule="evenodd" clip-rule="evenodd"
            d="M290.009 44.3359H603.379V220.036H290.009V44.3359ZM497.857 68.1539C497.77 68.2138 497.665 68.2426 497.56 68.2356H493.32V86.4056C493.326 86.4544 493.321 86.5041 493.306 86.5508C493.29 86.5975 493.264 86.6399 493.229 86.6747C493.194 86.7096 493.151 86.7359 493.105 86.7517C493.058 86.7674 493.008 86.7722 492.96 86.7656H491.22C491.17 86.7739 491.119 86.7705 491.071 86.7555C491.023 86.7405 490.979 86.7144 490.943 86.6794C490.907 86.6443 490.88 86.6012 490.864 86.5537C490.847 86.5061 490.843 86.4554 490.85 86.4056V68.2356H486.35C486.301 68.2422 486.251 68.2374 486.204 68.2217C486.158 68.2059 486.115 68.1796 486.08 68.1447C486.046 68.1099 486.019 68.0675 486.004 68.0208C485.988 67.9741 485.983 67.9244 485.99 67.8756V66.5156C485.99 66.3056 486.08 66.1256 486.41 66.1256H498.22C498.43 66.1256 498.58 66.1856 498.58 66.3656C498.549 66.4983 498.509 66.6287 498.46 66.7556L498.04 67.9056C498.008 68.0065 497.944 68.094 497.857 68.1539ZM482.7 84.6556C482.94 84.6556 483.06 84.7756 483.06 84.9956V86.3456C483.06 86.7056 482.97 86.7656 482.64 86.7656H473.36C473.311 86.7722 473.261 86.7674 473.214 86.7517C473.168 86.7359 473.125 86.7096 473.09 86.6747C473.056 86.6399 473.029 86.5975 473.013 86.5508C472.998 86.5041 472.993 86.4544 473 86.4056V66.4856C472.993 66.4368 472.998 66.3871 473.013 66.3404C473.029 66.2937 473.056 66.2513 473.09 66.2164C473.125 66.1816 473.168 66.1552 473.214 66.1395C473.261 66.1237 473.311 66.119 473.36 66.1256H482.73C483.06 66.1256 483.13 66.2156 483.13 66.3056C483.13 66.3473 483.11 66.4085 483.089 66.474C483.065 66.5497 483.04 66.6313 483.04 66.6956L482.61 67.9656C482.52 68.2356 482.43 68.2356 482.16 68.2356H475.47V74.9256H481.38C481.71 74.9256 481.77 74.9856 481.77 75.3156V76.6456C481.77 76.9756 481.71 77.0356 481.38 77.0356H475.47V84.6556H482.7ZM467.31 67.3356C467.277 67.458 467.237 67.5782 467.19 67.6956L466.79 68.6356C466.762 68.691 466.741 68.7417 466.722 68.7868C466.658 68.9369 466.621 69.0256 466.46 69.0256C466.309 69.012 466.165 68.9604 466.04 68.8756C464.858 68.2503 463.546 67.908 462.21 67.8756C460.41 67.8756 459.02 68.8256 459.02 70.8256C459.02 72.9611 460.824 73.9137 462.737 74.9243C463.655 75.4091 464.598 75.9072 465.38 76.5556C466.14 77.086 466.76 77.794 467.186 78.6183C467.611 79.4426 467.828 80.3581 467.82 81.2856C467.82 84.9656 465.11 87.1856 461.43 87.1856C459.51 87.1261 457.632 86.612 455.95 85.6856C455.88 85.6626 455.82 85.6184 455.777 85.5592C455.734 85.5 455.71 85.4288 455.71 85.3556C455.74 85.2327 455.781 85.1124 455.83 84.9956L456.22 83.9956C456.31 83.7556 456.37 83.6056 456.55 83.6056C456.7 83.6191 456.845 83.6707 456.97 83.7556C458.374 84.5104 459.928 84.9442 461.52 85.0256C461.989 85.0692 462.462 85.0113 462.908 84.856C463.353 84.7006 463.759 84.4514 464.1 84.1251C464.44 83.7989 464.707 83.4033 464.881 82.9651C465.055 82.527 465.133 82.0565 465.11 81.5856C465.11 79.2239 463.146 78.145 461.074 77.0065C458.76 75.7346 456.31 74.3882 456.31 71.0956C456.31 67.6356 459.17 65.7056 462.31 65.7056C463.976 65.7519 465.608 66.1941 467.07 66.9956C467.133 67.0306 467.187 67.0794 467.228 67.1382C467.27 67.1971 467.298 67.2645 467.31 67.3356ZM451.836 66.3404C451.851 66.3871 451.856 66.4368 451.85 66.4856V81.2256C451.85 84.8856 449.77 87.2256 445.22 87.2256C440.67 87.2256 438.99 84.8756 438.99 81.2256V66.4856C438.983 66.4368 438.988 66.3871 439.003 66.3404C439.019 66.2937 439.046 66.2513 439.08 66.2164C439.115 66.1816 439.158 66.1552 439.204 66.1395C439.251 66.1237 439.301 66.119 439.35 66.1256H441.09C441.139 66.1193 441.189 66.1242 441.236 66.14C441.283 66.1557 441.326 66.1818 441.361 66.2164C441.397 66.251 441.424 66.2932 441.441 66.3398C441.458 66.3864 441.465 66.4362 441.46 66.4856V81.1656C441.46 83.6256 442.49 85.1656 445.26 85.1656C448.03 85.1656 449.39 83.9056 449.39 81.1656V66.4856C449.383 66.4368 449.388 66.3871 449.404 66.3404C449.419 66.2937 449.446 66.2513 449.48 66.2164C449.515 66.1816 449.558 66.1552 449.604 66.1395C449.651 66.1237 449.701 66.119 449.75 66.1256H451.49C451.538 66.119 451.588 66.1237 451.635 66.1395C451.682 66.1552 451.724 66.1816 451.759 66.2164C451.794 66.2513 451.82 66.2937 451.836 66.3404ZM429.95 86.4056V77.0956L422.21 77.1356V86.4456C422.216 86.4944 422.211 86.5441 422.196 86.5908C422.18 86.6375 422.154 86.6799 422.119 86.7147C422.084 86.7496 422.042 86.7759 421.995 86.7917C421.948 86.8074 421.898 86.8122 421.85 86.8056H420.11C420.06 86.8139 420.009 86.8105 419.961 86.7955C419.913 86.7805 419.869 86.7544 419.833 86.7194C419.797 86.6843 419.77 86.6412 419.754 86.5937C419.737 86.5461 419.733 86.4954 419.74 86.4456V66.5256C419.733 66.4758 419.737 66.425 419.754 66.3775C419.77 66.3299 419.797 66.2868 419.833 66.2518C419.869 66.2167 419.913 66.1906 419.961 66.1757C420.009 66.1607 420.06 66.1572 420.11 66.1656H421.85C421.894 66.1614 421.939 66.1666 421.981 66.1808C422.024 66.195 422.063 66.2179 422.096 66.248C422.128 66.2781 422.155 66.3149 422.173 66.3558C422.191 66.3967 422.2 66.4409 422.2 66.4856V74.9856H429.95V66.4856C429.943 66.4368 429.948 66.3871 429.964 66.3404C429.979 66.2937 430.006 66.2513 430.04 66.2164C430.075 66.1816 430.118 66.1552 430.164 66.1395C430.211 66.1237 430.261 66.119 430.31 66.1256H432.06C432.108 66.119 432.158 66.1237 432.205 66.1395C432.252 66.1552 432.294 66.1816 432.329 66.2164C432.364 66.2513 432.39 66.2937 432.406 66.3404C432.421 66.3871 432.426 66.4368 432.42 66.4856V86.4056C432.426 86.4544 432.421 86.5041 432.406 86.5508C432.39 86.5975 432.364 86.6399 432.329 86.6747C432.294 86.7096 432.252 86.7359 432.205 86.7517C432.158 86.7674 432.108 86.7722 432.06 86.7656H430.31C430.261 86.7722 430.211 86.7674 430.164 86.7517C430.118 86.7359 430.075 86.7096 430.04 86.6747C430.006 86.6399 429.979 86.5975 429.964 86.5508C429.948 86.5041 429.943 86.4544 429.95 86.4056ZM412.745 75.0474C412.024 76.0481 410.997 76.7879 409.82 77.1556L414.88 86.3256C414.941 86.4265 414.982 86.5387 415 86.6556C415 86.7456 414.88 86.8656 414.67 86.8656L412.77 87.2256C412.678 87.2509 412.58 87.2402 412.497 87.1955C412.413 87.1508 412.349 87.0757 412.32 86.9856L407.32 77.4056H405.15V86.4056C405.156 86.4544 405.151 86.5041 405.136 86.5508C405.12 86.5975 405.094 86.6399 405.059 86.6747C405.024 86.7096 404.981 86.7359 404.935 86.7517C404.888 86.7674 404.838 86.7722 404.79 86.7656H403.04C402.991 86.7722 402.941 86.7674 402.894 86.7517C402.848 86.7359 402.805 86.7096 402.77 86.6747C402.736 86.6399 402.709 86.5975 402.693 86.5508C402.678 86.5041 402.673 86.4544 402.68 86.4056V66.4856C402.673 66.4368 402.678 66.3871 402.693 66.3404C402.709 66.2937 402.736 66.2513 402.77 66.2164C402.805 66.1816 402.848 66.1552 402.894 66.1395C402.941 66.1237 402.991 66.119 403.04 66.1256H407.71C410.03 66.1256 413.82 66.2756 413.82 71.6056C413.843 72.8389 413.466 74.0466 412.745 75.0474ZM396.306 66.3404C396.321 66.3871 396.326 66.4368 396.32 66.4856V81.2256C396.32 84.8856 394.24 87.2256 389.69 87.2256C385.14 87.2256 383.46 84.8756 383.46 81.2256V66.4856C383.453 66.4368 383.458 66.3871 383.474 66.3404C383.489 66.2937 383.516 66.2513 383.55 66.2164C383.585 66.1816 383.628 66.1552 383.674 66.1395C383.721 66.1237 383.771 66.119 383.82 66.1256H385.56C385.608 66.119 385.658 66.1237 385.705 66.1395C385.752 66.1552 385.794 66.1816 385.829 66.2164C385.864 66.2513 385.89 66.2937 385.906 66.3404C385.921 66.3871 385.926 66.4368 385.92 66.4856V81.1656C385.92 83.6256 386.95 85.1656 389.72 85.1656C392.49 85.1656 393.85 83.9056 393.85 81.1656V66.4856C393.843 66.4368 393.848 66.3871 393.864 66.3404C393.879 66.2937 393.906 66.2513 393.94 66.2164C393.975 66.1816 394.018 66.1552 394.064 66.1395C394.111 66.1237 394.161 66.119 394.21 66.1256H395.96C396.008 66.119 396.058 66.1237 396.105 66.1395C396.151 66.1552 396.194 66.1816 396.229 66.2164C396.264 66.2513 396.29 66.2937 396.306 66.3404ZM378.927 68.1539C378.84 68.2138 378.735 68.2426 378.63 68.2356H374.32V86.4056C374.326 86.4544 374.321 86.5041 374.306 86.5508C374.29 86.5975 374.264 86.6399 374.229 86.6747C374.194 86.7096 374.151 86.7359 374.105 86.7517C374.058 86.7674 374.008 86.7722 373.96 86.7656H372.21C372.161 86.7722 372.111 86.7674 372.064 86.7517C372.018 86.7359 371.975 86.7096 371.94 86.6747C371.906 86.6399 371.879 86.5975 371.864 86.5508C371.848 86.5041 371.843 86.4544 371.85 86.4056V68.2356H367.38C367.331 68.2422 367.281 68.2374 367.234 68.2217C367.188 68.2059 367.145 68.1796 367.11 68.1447C367.076 68.1099 367.049 68.0675 367.034 68.0208C367.018 67.9741 367.013 67.9244 367.02 67.8756V66.5156C367.02 66.3056 367.11 66.1256 367.45 66.1256H379.29C379.5 66.1256 379.65 66.1856 379.65 66.3656C379.619 66.4983 379.579 66.6287 379.53 66.7556L379.11 67.9056C379.078 68.0065 379.014 68.094 378.927 68.1539ZM358.71 66.4856V84.6556H366.36C366.57 84.6556 366.73 84.7756 366.73 84.8956C366.73 84.9522 366.703 85.0111 366.675 85.0733C366.643 85.1428 366.61 85.2164 366.61 85.2956L366.18 86.4356C366.148 86.5365 366.084 86.624 365.997 86.6839C365.91 86.7438 365.805 86.7726 365.7 86.7656H356.6C356.551 86.7722 356.501 86.7674 356.454 86.7517C356.408 86.7359 356.365 86.7096 356.33 86.6747C356.296 86.6399 356.269 86.5975 356.253 86.5508C356.238 86.5041 356.233 86.4544 356.24 86.4056V66.4856C356.233 66.4368 356.238 66.3871 356.253 66.3404C356.269 66.2937 356.296 66.2513 356.33 66.2164C356.365 66.1816 356.408 66.1552 356.454 66.1395C356.501 66.1237 356.551 66.119 356.6 66.1256H358.35C358.398 66.119 358.448 66.1237 358.495 66.1395C358.542 66.1552 358.584 66.1816 358.619 66.2164C358.654 66.2513 358.68 66.2937 358.696 66.3404C358.711 66.3871 358.716 66.4368 358.71 66.4856ZM349.696 66.3404C349.711 66.3871 349.716 66.4368 349.71 66.4856V81.2256C349.71 84.8856 347.63 87.2256 343.08 87.2256C338.53 87.2256 336.85 84.8756 336.85 81.2256V66.4856C336.843 66.4368 336.848 66.3871 336.864 66.3404C336.879 66.2937 336.906 66.2513 336.94 66.2164C336.975 66.1816 337.018 66.1552 337.064 66.1395C337.111 66.1237 337.161 66.119 337.21 66.1256H338.95C338.998 66.119 339.048 66.1237 339.095 66.1395C339.141 66.1552 339.184 66.1816 339.219 66.2164C339.254 66.2513 339.28 66.2937 339.296 66.3404C339.311 66.3871 339.316 66.4368 339.31 66.4856V81.1656C339.31 83.6256 340.33 85.1656 343.11 85.1656C345.89 85.1656 347.24 83.9056 347.24 81.1656V66.4856C347.233 66.4358 347.237 66.385 347.254 66.3375C347.27 66.2899 347.297 66.2469 347.333 66.2118C347.369 66.1767 347.413 66.1506 347.461 66.1357C347.509 66.1207 347.56 66.1172 347.61 66.1256H349.35C349.398 66.119 349.448 66.1237 349.495 66.1395C349.542 66.1552 349.584 66.1816 349.619 66.2164C349.654 66.2513 349.68 66.2937 349.696 66.3404ZM332.608 86.0325C332.569 86.091 332.514 86.1371 332.45 86.1656L331.23 87.0056C331.111 87.1115 330.966 87.184 330.81 87.2156C330.649 87.1808 330.509 87.0837 330.42 86.9456L322.85 76.9456V86.4056C322.856 86.4544 322.851 86.5041 322.836 86.5508C322.82 86.5975 322.794 86.6399 322.759 86.6747C322.724 86.7096 322.682 86.7359 322.635 86.7517C322.588 86.7674 322.538 86.7722 322.49 86.7656H320.75C320.701 86.7722 320.651 86.7674 320.604 86.7517C320.558 86.7359 320.515 86.7096 320.48 86.6747C320.446 86.6399 320.419 86.5975 320.404 86.5508C320.388 86.5041 320.383 86.4544 320.39 86.4056V66.4856C320.383 66.4368 320.388 66.3871 320.404 66.3404C320.419 66.2937 320.446 66.2513 320.48 66.2164C320.515 66.1816 320.558 66.1552 320.604 66.1395C320.651 66.1237 320.701 66.119 320.75 66.1256H322.49C322.538 66.119 322.588 66.1237 322.635 66.1395C322.682 66.1552 322.724 66.1816 322.759 66.2164C322.794 66.2513 322.82 66.2937 322.836 66.3404C322.851 66.3871 322.856 66.4368 322.85 66.4856V76.3756L330.5 66.0156C330.56 65.9556 330.74 65.7756 330.86 65.7756C330.942 65.7756 330.996 65.8176 331.079 65.8825C331.118 65.9125 331.163 65.9476 331.22 65.9856L332.22 66.6556L332.246 66.6768C332.384 66.7864 332.49 66.871 332.49 66.9556C332.49 67.0288 332.41 67.1418 332.348 67.2298L332.323 67.2655L332.31 67.2856L325.31 76.5956L332.51 85.5956C332.517 85.606 332.526 85.6167 332.535 85.6276C332.544 85.6385 332.553 85.6497 332.562 85.6609C332.615 85.7248 332.67 85.7911 332.67 85.8356C332.668 85.9058 332.647 85.9741 332.608 86.0325ZM457.61 182.555V168.555L478.2 129.225H499.12V168.535H504.99V182.535H499.12V193.925H482.12V182.555H457.61ZM439.06 127.925H452.48L452.49 193.905H433.85V149.825H421.26V138.075H423.68C430.58 138.075 437.85 135.195 439.06 127.925ZM377.16 168.645C377.16 154.485 379.31 142.175 399.25 142.175L399.26 142.165C419.21 142.165 421.34 154.385 421.34 168.645C421.34 182.905 419.19 195.215 399.25 195.215C379.31 195.215 377.16 182.805 377.16 168.645ZM370.18 139.465H352.1V126.615H370.18V139.465ZM370.18 193.895H352.1V143.485H370.18V193.895ZM314.85 143.475H320.32V128.665H338.43V143.485H344.77V155.225H338.43V177.695C338.43 180.965 338.88 182.355 341.88 182.355C342.851 182.394 343.823 182.304 344.77 182.085V194.085C343.28 194.275 338.53 194.645 335.83 194.645C325.48 194.645 320.35 194.275 320.35 182.895V155.215H314.85V143.475Z" />
        <path d="M76.9297 132.196L153.01 176.116L76.9297 220.046V132.196Z" fill-opacity="0.8" />
        <path d="M229.089 132.196L153.01 176.116L229.089 220.046V132.196Z" fill-opacity="0.6" />
        <path d="M229.089 44.3359L153.009 88.2659L229.089 132.196V44.3359Z" fill-opacity="0.5" />
        <path d="M153.009 88.2659L229.089 132.186L153.009 176.116V88.2659Z" fill-opacity="0.9" />
        <path d="M0.849609 176.116L76.9297 132.196L0.849609 88.2656V176.116Z" fill-opacity="0.3" />
        <path d="M153.009 88.2659L76.9297 132.186L153.01 176.116L153.009 88.2659Z" fill-opacity="0.5" />
        <path d="M153.01 0.416016L76.9297 44.336L153.009 88.2659L153.01 0.416016Z" fill-opacity="0.6" />
    </g>
</svg>