<svg width="1265" height="461" viewBox="0 0 1265 461" fill="none" xmlns="http://www.w3.org/2000/svg">
<g id="logo">
    <path d="M1265 92.1875H607.086V460.979H1265V92.1875Z" fill="#ABB324"/>
    <path d="M1010.02 310.272H1010.42V352.923H989.276L1010.02 310.272ZM958.959 352.923V382.309H1010.42V406.174H1046.11V382.267H1058.43V352.881H1046.11V270.37H1002.19L958.959 352.923ZM948.189 267.641H920.014C917.473 282.901 902.21 288.946 887.724 288.946H882.643V313.609H909.076V406.132H948.21L948.189 267.641ZM828.036 353.112C828.036 328.47 829.61 322.005 836.433 322.005C843.257 322.005 844.831 328.47 844.831 353.112C844.831 377.754 843.257 384.219 836.433 384.219C829.61 384.219 828.036 377.775 828.036 353.112ZM836.433 297.552C794.57 297.552 790.056 323.39 790.056 353.112C790.056 382.834 794.57 408.882 836.433 408.882C878.297 408.882 882.811 383.043 882.811 353.112C882.811 323.18 878.339 297.531 836.454 297.531L836.433 297.552ZM737.443 291.864H775.402V264.892H737.443V291.864ZM737.443 406.111H775.402V300.302H737.443V406.111ZM670.721 300.28H659.237V324.923H670.784V383.022C670.784 406.909 681.555 407.686 703.284 407.686C708.953 407.686 718.926 406.909 722.054 406.51V381.322C720.065 381.78 718.025 381.971 715.986 381.889C709.688 381.889 708.743 378.971 708.743 372.108V324.944H722.054V300.302H708.743V269.195H670.721V300.28Z" fill="white"/>
    <path d="M1042.83 142.353C1043.05 142.368 1043.27 142.308 1043.46 142.182C1043.64 142.056 1043.78 141.873 1043.84 141.661L1044.72 139.247C1044.83 138.981 1044.91 138.707 1044.97 138.428C1044.97 138.05 1044.66 137.925 1044.22 137.925H1019.42C1018.73 137.925 1018.54 138.302 1018.54 138.743V141.598C1018.53 141.7 1018.54 141.805 1018.57 141.903C1018.6 142.001 1018.66 142.09 1018.73 142.163C1018.81 142.236 1018.9 142.291 1018.99 142.324C1019.09 142.357 1019.2 142.367 1019.3 142.353H1028.75V180.492C1028.73 180.596 1028.74 180.703 1028.78 180.803C1028.81 180.903 1028.87 180.993 1028.94 181.067C1029.02 181.14 1029.11 181.195 1029.21 181.226C1029.31 181.258 1029.42 181.265 1029.52 181.248H1033.18C1033.28 181.261 1033.38 181.251 1033.48 181.218C1033.58 181.185 1033.67 181.13 1033.74 181.057C1033.81 180.984 1033.87 180.895 1033.9 180.797C1033.94 180.699 1033.95 180.594 1033.93 180.492V142.353H1042.83ZM1012.39 177.532C1012.39 177.071 1012.14 176.819 1011.64 176.819H996.456V160.824H1008.86C1009.56 160.824 1009.68 160.699 1009.68 160.006V157.214C1009.68 156.522 1009.56 156.396 1008.86 156.396H996.456V142.353H1010.5C1011.07 142.353 1011.26 142.353 1011.45 141.787L1012.35 139.121C1012.35 138.869 1012.54 138.491 1012.54 138.302C1012.54 138.113 1012.39 137.925 1011.7 137.925H992.026C991.923 137.911 991.819 137.921 991.721 137.954C991.623 137.987 991.534 138.042 991.461 138.115C991.388 138.188 991.332 138.277 991.299 138.375C991.266 138.473 991.256 138.578 991.27 138.68V180.492C991.256 180.594 991.266 180.699 991.299 180.797C991.332 180.895 991.388 180.984 991.461 181.057C991.534 181.13 991.623 181.185 991.721 181.218C991.819 181.251 991.923 181.261 992.026 181.248H1011.51C1012.2 181.248 1012.39 181.122 1012.39 180.366V177.532ZM979.072 141.22C979.172 140.974 979.256 140.721 979.324 140.464C979.299 140.315 979.241 140.174 979.154 140.05C979.066 139.927 978.952 139.824 978.82 139.751C975.751 138.068 972.325 137.14 968.827 137.043C962.234 137.043 956.23 141.094 956.23 148.356C956.23 161.454 974.705 159.88 974.705 170.375C974.755 171.363 974.591 172.351 974.225 173.271C973.859 174.19 973.3 175.021 972.585 175.705C971.871 176.39 971.017 176.913 970.082 177.239C969.148 177.565 968.154 177.687 967.168 177.595C963.826 177.424 960.563 176.514 957.615 174.93C957.353 174.752 957.05 174.643 956.734 174.615C956.356 174.615 956.23 174.93 956.041 175.433L955.222 177.532C955.119 177.778 955.035 178.03 954.97 178.288C954.971 178.442 955.02 178.591 955.111 178.715C955.201 178.84 955.328 178.932 955.474 178.981C959.006 180.925 962.949 182.004 966.979 182.129C974.705 182.129 980.395 177.469 980.395 169.745C980.413 167.798 979.956 165.877 979.064 164.147C978.171 162.416 976.869 160.93 975.272 159.817C970.212 155.619 961.919 154.423 961.919 147.79C961.919 143.592 964.838 141.598 968.617 141.598C971.423 141.666 974.176 142.384 976.658 143.697C976.92 143.875 977.224 143.983 977.539 144.012C977.98 144.012 977.98 143.697 978.232 143.193L979.072 141.22ZM946.866 138.68C946.88 138.578 946.87 138.473 946.837 138.375C946.804 138.277 946.749 138.188 946.675 138.115C946.602 138.042 946.513 137.987 946.415 137.954C946.317 137.921 946.213 137.911 946.11 137.925H942.457C942.355 137.911 942.25 137.921 942.152 137.954C942.054 137.987 941.965 138.042 941.892 138.115C941.819 138.188 941.764 138.277 941.731 138.375C941.698 138.473 941.688 138.578 941.701 138.68V169.493C941.701 175.244 938.846 177.889 933.031 177.889C927.215 177.889 925.052 174.657 925.052 169.493V138.68C925.063 138.577 925.05 138.472 925.014 138.374C924.978 138.276 924.921 138.188 924.846 138.115C924.772 138.043 924.682 137.988 924.583 137.955C924.484 137.922 924.379 137.911 924.276 137.925H920.623C920.52 137.911 920.416 137.921 920.318 137.954C920.22 137.987 920.131 138.042 920.057 138.115C919.984 138.188 919.929 138.277 919.896 138.375C919.863 138.473 919.853 138.578 919.867 138.68V169.619C919.867 177.28 923.394 182.213 932.947 182.213C942.499 182.213 946.866 177.301 946.866 169.619V138.68ZM900.887 160.95V180.492C900.874 180.594 900.884 180.699 900.917 180.797C900.95 180.895 901.005 180.984 901.078 181.057C901.151 181.13 901.24 181.185 901.338 181.218C901.436 181.251 901.541 181.261 901.643 181.248H905.317C905.42 181.261 905.524 181.251 905.622 181.218C905.72 181.185 905.809 181.13 905.882 181.057C905.956 180.984 906.011 180.895 906.044 180.797C906.077 180.699 906.087 180.594 906.073 180.492V138.68C906.087 138.578 906.077 138.473 906.044 138.375C906.011 138.277 905.956 138.188 905.882 138.115C905.809 138.042 905.72 137.987 905.622 137.954C905.524 137.921 905.42 137.911 905.317 137.925H901.643C901.541 137.911 901.436 137.921 901.338 137.954C901.24 137.987 901.151 138.042 901.078 138.115C901.005 138.188 900.95 138.277 900.917 138.375C900.884 138.473 900.874 138.578 900.887 138.68V156.522H884.617V138.68C884.617 138.586 884.598 138.494 884.56 138.408C884.522 138.322 884.467 138.245 884.398 138.182C884.329 138.118 884.247 138.07 884.158 138.04C884.069 138.011 883.975 138 883.882 138.009H880.229C880.124 137.991 880.018 137.998 879.917 138.03C879.816 138.061 879.724 138.116 879.649 138.189C879.573 138.263 879.516 138.353 879.481 138.453C879.447 138.553 879.437 138.66 879.452 138.764V180.576C879.437 180.68 879.447 180.787 879.481 180.887C879.516 180.987 879.573 181.077 879.649 181.151C879.724 181.224 879.816 181.279 879.917 181.31C880.018 181.342 880.124 181.349 880.229 181.332H883.882C883.984 181.345 884.089 181.335 884.187 181.302C884.285 181.269 884.374 181.214 884.447 181.141C884.52 181.068 884.575 180.979 884.608 180.881C884.641 180.783 884.651 180.678 884.637 180.576V161.034L900.887 160.95ZM858.625 161.076C861.097 160.305 863.252 158.752 864.766 156.651C866.281 154.551 867.072 152.016 867.023 149.427C867.023 138.239 859.066 137.925 854.195 137.925H844.39C844.288 137.911 844.184 137.921 844.086 137.954C843.988 137.987 843.898 138.042 843.825 138.115C843.752 138.188 843.697 138.277 843.664 138.375C843.631 138.473 843.621 138.578 843.635 138.68V180.492C843.621 180.594 843.631 180.699 843.664 180.797C843.697 180.895 843.752 180.984 843.825 181.057C843.898 181.13 843.988 181.185 844.086 181.218C844.184 181.251 844.288 181.261 844.39 181.248H848.065C848.167 181.261 848.271 181.251 848.369 181.218C848.467 181.185 848.556 181.13 848.63 181.057C848.703 180.984 848.758 180.895 848.791 180.797C848.824 180.699 848.834 180.594 848.82 180.492V161.601H853.376L863.874 181.709C863.936 181.898 864.069 182.056 864.245 182.15C864.421 182.244 864.626 182.266 864.818 182.213L868.807 181.457C869.248 181.457 869.5 181.206 869.5 181.017C869.463 180.771 869.377 180.536 869.248 180.324L858.625 161.076ZM848.757 157.403V142.353H853.628C857.239 142.353 861.795 142.542 861.795 149.553C861.795 156.564 857.596 157.403 852.851 157.403H848.757ZM830.282 138.68C830.296 138.578 830.286 138.473 830.253 138.375C830.22 138.277 830.164 138.188 830.091 138.115C830.018 138.042 829.929 137.987 829.831 137.954C829.733 137.921 829.629 137.911 829.526 137.925H825.852C825.749 137.911 825.645 137.921 825.547 137.954C825.449 137.987 825.36 138.042 825.287 138.115C825.214 138.188 825.159 138.277 825.125 138.375C825.092 138.473 825.082 138.578 825.096 138.68V169.493C825.096 175.244 822.241 177.889 816.425 177.889C810.61 177.889 808.447 174.657 808.447 169.493V138.68C808.461 138.578 808.451 138.473 808.418 138.375C808.385 138.277 808.33 138.188 808.257 138.115C808.183 138.042 808.094 137.987 807.996 137.954C807.898 137.921 807.794 137.911 807.691 137.925H804.038C803.936 137.911 803.832 137.921 803.734 137.954C803.636 137.987 803.546 138.042 803.473 138.115C803.4 138.188 803.345 138.277 803.312 138.375C803.279 138.473 803.269 138.578 803.283 138.68V169.619C803.283 177.28 806.81 182.213 816.362 182.213C825.915 182.213 830.282 177.301 830.282 169.619V138.68ZM793.142 142.353C793.364 142.368 793.583 142.308 793.766 142.182C793.949 142.056 794.084 141.873 794.15 141.661L795.032 139.247C795.135 138.981 795.22 138.707 795.284 138.428C795.284 138.05 794.969 137.925 794.528 137.925H769.67C768.956 137.925 768.767 138.302 768.767 138.743V141.598C768.753 141.7 768.763 141.805 768.796 141.903C768.829 142.001 768.885 142.09 768.958 142.163C769.031 142.236 769.12 142.291 769.218 142.324C769.316 142.357 769.42 142.367 769.523 142.353H778.908V180.492C778.894 180.594 778.904 180.699 778.937 180.797C778.97 180.895 779.025 180.984 779.098 181.057C779.172 181.13 779.261 181.185 779.359 181.218C779.457 181.251 779.561 181.261 779.663 181.248H783.338C783.44 181.261 783.544 181.251 783.642 181.218C783.74 181.185 783.829 181.13 783.903 181.057C783.976 180.984 784.031 180.895 784.064 180.797C784.097 180.699 784.107 180.594 784.093 180.492V142.353H793.142ZM751.32 176.819V138.68C751.334 138.578 751.324 138.473 751.291 138.375C751.258 138.277 751.203 138.188 751.13 138.115C751.057 138.042 750.968 137.987 750.87 137.954C750.771 137.921 750.667 137.911 750.565 137.925H746.891C746.788 137.911 746.684 137.921 746.586 137.954C746.488 137.987 746.399 138.042 746.325 138.115C746.252 138.188 746.197 138.277 746.164 138.375C746.131 138.473 746.121 138.578 746.135 138.68V180.492C746.121 180.594 746.131 180.699 746.164 180.797C746.197 180.895 746.252 180.984 746.325 181.057C746.399 181.13 746.488 181.185 746.586 181.218C746.684 181.251 746.788 181.261 746.891 181.248H765.996C766.217 181.262 766.437 181.202 766.62 181.076C766.803 180.95 766.938 180.767 767.004 180.555L767.906 178.162C767.906 177.847 768.158 177.574 768.158 177.322C768.158 177.071 767.822 176.819 767.382 176.819H751.32ZM732.425 138.68C732.439 138.578 732.429 138.473 732.396 138.375C732.363 138.277 732.308 138.188 732.234 138.115C732.161 138.042 732.072 137.987 731.974 137.954C731.876 137.921 731.772 137.911 731.669 137.925H728.016C727.912 137.907 727.805 137.914 727.705 137.946C727.604 137.977 727.512 138.032 727.436 138.106C727.361 138.179 727.303 138.269 727.269 138.369C727.235 138.469 727.225 138.576 727.239 138.68V169.493C727.239 175.244 724.405 177.889 718.569 177.889C712.732 177.889 710.591 174.657 710.591 169.493V138.68C710.604 138.578 710.594 138.473 710.561 138.375C710.528 138.277 710.473 138.188 710.4 138.115C710.327 138.042 710.238 137.987 710.14 137.954C710.042 137.921 709.937 137.911 709.835 137.925H706.182C706.079 137.911 705.975 137.921 705.877 137.954C705.779 137.987 705.69 138.042 705.617 138.115C705.543 138.188 705.488 138.277 705.455 138.375C705.422 138.473 705.412 138.578 705.426 138.68V169.619C705.426 177.28 708.953 182.213 718.506 182.213C728.058 182.213 732.425 177.301 732.425 169.619V138.68ZM696.188 179.988C696.323 179.928 696.438 179.832 696.52 179.709C696.602 179.586 696.647 179.443 696.65 179.296C696.65 179.17 696.44 178.96 696.314 178.792L681.198 159.901L695.894 140.359C696.02 140.17 696.272 139.856 696.272 139.667C696.272 139.478 696.02 139.289 695.705 139.037L693.606 137.631C693.228 137.379 693.102 137.19 692.85 137.19C692.598 137.19 692.22 137.568 692.094 137.694L676.033 159.439V138.68C676.047 138.578 676.037 138.473 676.004 138.375C675.971 138.277 675.915 138.188 675.842 138.115C675.769 138.042 675.68 137.987 675.582 137.954C675.484 137.921 675.38 137.911 675.277 137.925H671.624C671.522 137.911 671.417 137.921 671.319 137.954C671.221 137.987 671.132 138.042 671.059 138.115C670.986 138.188 670.931 138.277 670.898 138.375C670.865 138.473 670.854 138.578 670.868 138.68V180.492C670.854 180.594 670.865 180.699 670.898 180.797C670.931 180.895 670.986 180.984 671.059 181.057C671.132 181.13 671.221 181.185 671.319 181.218C671.417 181.251 671.522 181.261 671.624 181.248H675.277C675.38 181.261 675.484 181.251 675.582 181.218C675.68 181.185 675.769 181.13 675.842 181.057C675.915 180.984 675.971 180.895 676.004 180.797C676.037 180.699 676.047 180.594 676.033 180.492V160.636L691.926 181.625C692.113 181.915 692.408 182.119 692.745 182.192C693.073 182.126 693.377 181.974 693.627 181.751L696.188 179.988Z" fill="white"/>
    <path d="M159.729 276.604L319.457 368.792L159.729 461V276.604Z" fill="#BBC050"/>
    <path d="M479.186 276.604L319.457 368.792L479.186 461V276.604Z" fill="#CBCF7D"/>
    <path d="M479.186 92.1875L319.457 184.396L479.186 276.604V92.1875Z" fill="#DCDEA9"/>
    <path d="M319.457 184.396L479.186 276.583L319.457 368.792L319.457 184.396Z" fill="#ABB324"/>
    <path d="M0 368.791L159.729 276.604L0 184.396V368.791Z" fill="#EDEED4"/>
    <path d="M319.457 184.396L159.729 276.583L319.457 368.792L319.457 184.396Z" fill="#DCDEA9"/>
    <path d="M319.457 0L159.729 92.1874L319.457 184.396L319.457 0Z" fill="#CBCF7D"/>
</g>
</svg>
